<svg width="598" height="569" viewBox="0 0 598 569" fill="none" xmlns="http://www.w3.org/2000/svg">
<rect width="598" height="569" fill="#E5E5E5"/>
<g id="search 1">
<path id="Vector" d="M47.8276 240.174C33.9253 240.174 22.6553 227.824 22.6553 212.588C22.6553 197.353 33.9253 185.002 47.8276 185.002C61.73 185.002 73 197.353 73 212.588C73 227.824 61.73 240.174 47.8276 240.174Z" fill="#8697CB"/>
<path id="Vector_2" d="M47.8276 233.276C37.4009 233.276 28.9484 224.013 28.9484 212.587C28.9484 201.16 37.4009 191.897 47.8276 191.897C58.2544 191.897 66.7069 201.16 66.7069 212.587C66.7069 224.013 58.2544 233.276 47.8276 233.276Z" fill="#D0E8F9"/>
<path id="Vector_3" d="M19.6977 244.793C20.0199 244.793 20.3421 244.658 20.5875 244.389L25.5955 238.901C26.0877 238.362 26.0877 237.49 25.5955 236.951C25.1033 236.411 24.3079 236.411 23.8159 236.951L18.8078 242.439C18.3157 242.978 18.3157 243.85 18.8078 244.389C19.0532 244.658 19.3754 244.793 19.6977 244.793Z" fill="#E6E7E8"/>
<path id="Vector_4" d="M27.0694 228.178C28.8264 230.981 31.0416 233.41 33.6003 235.335C31.7664 235.667 29.9101 236.792 28.343 238.138C27.248 239.08 25.6898 239.004 24.7056 237.926C23.7214 236.847 23.6534 235.141 24.5118 233.94C25.7403 232.224 26.7673 230.188 27.0694 228.178Z" fill="#687492"/>
<path id="Vector_5" d="M1.50177 263.355C3.50299 265.548 6.77913 265.548 8.78035 263.355L19.6975 251.391C21.6987 249.198 21.6987 245.607 19.6975 243.414C17.6963 241.221 14.4201 241.221 12.4189 243.414L1.50177 255.378C-0.500592 257.573 -0.500592 261.162 1.50177 263.355Z" fill="#E64C3C"/>
<path id="Vector_6" d="M11.5082 260.364L4.23016 252.388L9.68918 246.406L16.9672 254.382L11.5082 260.364Z" fill="#F0C419"/>
<path id="Vector_7" d="M66.7069 212.587C66.7069 214.915 66.3406 217.144 65.6938 219.232C64.7914 219.382 63.8737 219.483 62.931 219.483C53.1994 219.483 45.3104 211.147 45.3104 200.863C45.3104 197.62 46.0983 194.572 47.4778 191.916C47.5948 191.914 47.7093 191.897 47.8276 191.897C58.2541 191.897 66.7069 201.16 66.7069 212.587Z" fill="#E1F4FF"/>
<path id="Vector_8" d="M47.8276 226.38C54.7676 226.38 60.4138 220.192 60.4138 212.587C60.4138 204.981 54.7676 198.794 47.8276 198.794C40.8877 198.794 35.2415 204.981 35.2415 212.587C35.2415 213.348 35.8054 213.966 36.5001 213.966C37.1949 213.966 37.7588 213.348 37.7588 212.587C37.7588 206.503 42.276 201.552 47.8278 201.552C53.3796 201.552 57.8968 206.502 57.8968 212.587C57.8968 218.671 53.3796 223.621 47.8278 223.621C47.133 223.621 46.5691 224.239 46.5691 225C46.5691 225.762 47.1329 226.38 47.8276 226.38Z" fill="white"/>
</g>
<g id="compass 1">
<g clip-path="url(#clip0)">
<path id="Vector_9" d="M454.65 336.584L422.208 331.671L450.174 349.662L463.581 358.291L430.529 454.866L195.38 374.387L197.888 359.764L203.109 329.24L186.849 355.986L179.06 368.802L129.259 351.757L193.476 164.124L209.268 165.784L232.726 168.266L213.279 154.062L200.191 144.502L210.584 114.134L434.009 190.601L431.501 205.224L427.203 230.348L440.581 208.331L448.371 195.516L511.854 217.243L470.205 338.936L454.65 336.584Z" fill="#FFF5CB"/>
<g id="Group">
<path id="Vector_10" d="M454.651 336.587L422.209 331.667L450.175 349.665L463.582 358.289L430.53 454.862L279.895 403.308L361.218 165.692L434.007 190.603L431.502 205.22L427.205 230.352L440.58 208.327L448.373 195.52L511.853 217.246L470.206 338.935L454.651 336.587Z" fill="#FFED97"/>
<path id="Vector_11" d="M454.65 336.584L422.208 331.671L450.174 349.662L420.627 435.996L197.888 359.764L203.109 329.24L186.849 355.986L148.647 342.911L209.268 165.784L232.726 168.266L213.279 154.062L220.486 133.005L431.502 205.224L427.203 230.348L440.581 208.331L492.467 226.089L454.65 336.584Z" fill="#FFED97"/>
</g>
<path id="Vector_12" d="M454.651 336.587L422.209 331.667L450.175 349.665L420.627 435.999L284.636 389.457L356.478 179.543L431.502 205.22L427.205 230.352L440.58 208.327L492.469 226.086L454.651 336.587Z" fill="#FFE047"/>
<path id="Vector_13" d="M408.325 197.297L304.625 161.806L232.788 371.703L336.489 407.194L408.325 197.297Z" fill="#FFE670"/>
<path id="Vector_14" d="M408.325 197.297L356.475 179.552L284.638 389.448L336.489 407.194L408.325 197.297Z" fill="#FFD400"/>
<path id="Vector_15" d="M235.149 233.507L225.897 228.265C228.837 222.828 231.098 219.465 231.194 219.324L239.845 225.559L235.519 222.441L239.847 225.555C239.826 225.586 237.789 228.623 235.149 233.507Z" fill="#E67500"/>
<g id="Group_2">
<path id="Vector_16" d="M346.854 388.045L348.97 377.014C354.546 377.986 359.81 377.772 364.616 376.377L367.127 387.145C360.794 388.982 353.972 389.285 346.854 388.045Z" fill="#C06200"/>
<path id="Vector_17" d="M328.458 381.553C322.93 378.609 317.635 374.87 312.719 370.439L319.852 361.857C324.152 365.732 328.767 368.994 333.566 371.55L328.458 381.553Z" fill="#C06200"/>
</g>
<path id="Vector_18" d="M299.873 355.93C296.025 350.449 292.88 344.609 290.524 338.57L300.435 334.033C302.473 339.257 305.207 344.327 308.56 349.102L299.873 355.93Z" fill="#E67500"/>
<g id="Group_3">
<path id="Vector_19" d="M308.559 349.103C306.092 345.59 303.964 341.917 302.198 338.141L297.393 352.182C298.185 353.448 299.008 354.699 299.873 355.931L308.559 349.103Z" fill="#C06200"/>
<path id="Vector_20" d="M385.313 377.428L378.92 368.713C383.214 365.198 386.581 360.909 388.928 355.965L398.463 360.65C395.365 367.177 390.941 372.822 385.313 377.428Z" fill="#C06200"/>
</g>
<g id="Group_4">
<path id="Vector_21" d="M224.31 305.72C220.97 303.424 218.292 300.219 216.35 296.193C214.951 293.294 213.868 290.164 213.131 286.889L223.534 283.964C224.084 286.407 224.886 288.732 225.92 290.874C227.066 293.25 228.528 295.027 230.391 296.307L224.31 305.72Z" fill="#E67500"/>
<path id="Vector_22" d="M244.726 310.238L244.658 299.067C248.264 298.909 252.176 298.425 255.96 297.957C258.088 297.692 260.289 297.42 262.444 297.204L263.091 308.333C261.054 308.538 259.008 308.791 256.842 309.059C252.859 309.553 248.74 310.063 244.726 310.238Z" fill="#E67500"/>
<path id="Vector_23" d="M285.753 319.535C284.294 312.414 281.129 310.287 278.535 309.229L282.715 298.791C289.805 301.682 294.343 307.749 296.202 316.823L285.753 319.535Z" fill="#E67500"/>
</g>
<path id="Vector_24" d="M392.732 339.914C392.929 334.395 392.138 328.816 390.381 323.334L400.521 319.443C402.681 326.182 403.652 333.078 403.407 339.937L392.732 339.914Z" fill="#C06200"/>
<path id="Vector_25" d="M212.593 266.003C213.36 260.542 214.788 254.739 216.837 248.754C217.111 247.953 217.391 247.161 217.678 246.379L227.637 250.055C227.379 250.759 227.126 251.471 226.88 252.191C225.075 257.464 223.824 262.53 223.16 267.246L212.593 266.003Z" fill="#E67500"/>
<g id="Group_5">
<path id="Vector_26" d="M382.8 308.55C379.466 304.071 375.492 300.313 370.989 297.379L376.862 287.828C382.382 291.424 387.244 296.02 391.314 301.487L382.8 308.55Z" fill="#C06200"/>
<path id="Vector_27" d="M354.954 289.753C348.201 285.727 343.698 279.606 341.933 272.053L352.314 269.036C353.395 273.659 356.22 277.446 360.486 279.99L354.954 289.753Z" fill="#C06200"/>
<path id="Vector_28" d="M354.241 254.471L344.749 249.697C348.037 242.913 353.198 237.349 359.674 233.603L364.582 243.346C360.083 245.949 356.507 249.795 354.241 254.471Z" fill="#C06200"/>
<path id="Vector_29" d="M379.364 239.722L379.95 228.542C386.157 228.668 392.698 230.152 399.25 232.912L394.963 243.306C389.585 241.042 384.292 239.821 379.364 239.722Z" fill="#C06200"/>
<path id="Vector_30" d="M416.605 257.43C414.292 255.407 411.955 253.528 409.661 251.842L416.003 242.615C418.528 244.471 421.092 246.532 423.621 248.745L416.605 257.43Z" fill="#C06200"/>
</g>
<path id="Vector_31" d="M271.429 220.383L244.022 211.004L255.031 178.837C257.557 171.455 265.326 167.366 272.293 169.75L274.363 170.459C281.33 172.843 284.964 180.835 282.438 188.217L271.429 220.383V220.383Z" fill="#E67500"/>
<path id="Vector_32" d="M250.717 213.295L230.632 206.421L236.163 190.26C238.06 184.716 243.894 181.646 249.127 183.437L250.183 183.798C255.416 185.589 258.145 191.59 256.247 197.134L250.717 213.295Z" fill="#FF8900"/>
<path id="Vector_33" d="M466.693 257.007L462.026 246.743L446.061 255.147L438.593 238.723L428.616 243.975L436.083 260.399L420.119 268.801L424.786 279.066L440.751 270.663L448.219 287.085L458.196 281.833L450.728 265.411L466.693 257.007Z" fill="#FF0335"/>
<path id="Vector_34" d="M353.608 360.474C353.608 360.474 329.426 330.155 343.04 323.974C354.754 318.656 354.574 339.776 354.574 339.776C354.574 339.776 357.467 315.755 366.445 317.137C375.424 318.519 376.164 330.779 367.2 345.331C367.2 345.331 378.045 336.109 385.186 341.085C392.329 346.06 378.971 358.867 353.608 360.474Z" fill="#008C4A"/>
</g>
</g>
<path id="Scavanger Hunt" d="M39.28 279.273C38.4831 279.93 38.0378 281.102 37.9441 282.789C37.8972 284.43 38.1784 286.117 38.7878 287.852C39.4441 289.539 40.4284 291.039 41.7409 292.352C43.0534 293.664 44.6941 294.32 46.6628 294.32C47.9284 294.32 49.0066 294.016 49.8972 293.406C50.8347 292.797 51.5847 292.047 52.1472 291.156C52.7566 290.219 53.2019 289.188 53.4831 288.062C53.7644 286.938 53.905 285.836 53.905 284.758C53.905 283.211 53.6003 281.922 52.9909 280.891C52.4284 279.859 51.655 278.969 50.6706 278.219C49.7331 277.422 48.6316 276.766 47.3659 276.25C46.1472 275.688 44.905 275.125 43.6394 274.562C42.4675 274.094 41.0612 273.508 39.4206 272.805C37.78 272.055 36.2097 271.094 34.7097 269.922C33.2097 268.703 31.9206 267.227 30.8425 265.492C29.8112 263.711 29.2956 261.531 29.2956 258.953C29.2956 257.266 29.7409 255.555 30.6316 253.82C31.5222 252.086 32.7878 250.516 34.4284 249.109C36.0691 247.656 38.0378 246.484 40.3347 245.594C42.6784 244.703 45.3034 244.258 48.2097 244.258C51.0691 244.258 53.3894 244.516 55.1706 245.031C56.9519 245.547 58.3347 246.227 59.3191 247.07C60.3034 247.867 60.9597 248.758 61.2878 249.742C61.6628 250.68 61.8503 251.57 61.8503 252.414C61.8503 253.258 61.5925 254.125 61.0769 255.016C60.5612 255.859 59.9519 256.656 59.2487 257.406C58.5456 258.109 57.8191 258.742 57.0691 259.305C56.3191 259.82 55.7097 260.172 55.2409 260.359C55.4753 259.75 55.7097 258.906 55.9441 257.828C56.1784 256.75 56.1081 255.672 55.7331 254.594C55.405 253.516 54.5847 252.578 53.2722 251.781C52.0066 250.984 49.9441 250.586 47.0847 250.586C45.4441 250.586 43.8503 250.844 42.3034 251.359C40.7566 251.875 39.3737 252.555 38.155 253.398C36.9831 254.195 36.0456 255.109 35.3425 256.141C34.6394 257.172 34.2878 258.227 34.2878 259.305C34.2878 260.336 34.6394 261.297 35.3425 262.188C36.0925 263.031 37.0769 263.852 38.2956 264.648C39.5612 265.398 40.9909 266.148 42.5847 266.898C44.2253 267.648 45.9362 268.398 47.7175 269.148C49.4519 269.898 51.1628 270.719 52.8503 271.609C54.5378 272.453 56.0378 273.438 57.3503 274.562C58.7097 275.688 59.7878 276.953 60.5847 278.359C61.3816 279.766 61.78 281.383 61.78 283.211C61.78 285.18 61.405 287.078 60.655 288.906C59.9519 290.688 58.9206 292.258 57.5612 293.617C56.2487 294.977 54.6316 296.055 52.7097 296.852C50.7878 297.695 48.6081 298.117 46.1706 298.117C44.0144 298.117 41.9753 297.766 40.0534 297.062C38.1316 296.359 36.4441 295.445 34.9909 294.32C33.5847 293.195 32.4597 291.953 31.6159 290.594C30.7722 289.234 30.3503 287.898 30.3503 286.586C30.3503 285.18 30.655 283.984 31.2644 283C31.9206 282.016 32.7175 281.242 33.655 280.68C34.5925 280.07 35.5534 279.648 36.5378 279.414C37.5691 279.18 38.4831 279.133 39.28 279.273ZM86.9856 283.141C86.9856 283.656 86.7981 284.453 86.4231 285.531C86.095 286.562 85.5325 287.617 84.7356 288.695C83.9387 289.727 82.9075 290.641 81.6419 291.438C80.4231 292.234 78.9231 292.633 77.1419 292.633C74.6106 292.633 72.4778 291.953 70.7434 290.594C69.0559 289.188 67.8606 287.195 67.1575 284.617C66.595 282.461 66.4309 280.164 66.6653 277.727C66.9466 275.242 67.6262 272.945 68.7044 270.836C69.7825 268.727 71.2825 266.945 73.2044 265.492C75.1262 263.992 77.47 263.172 80.2356 263.031C81.6419 262.984 82.8137 263.242 83.7512 263.805C84.6887 264.367 85.4153 265.094 85.9309 265.984C86.4466 266.875 86.7512 267.859 86.845 268.938C86.9387 269.969 86.8216 270.953 86.4934 271.891C86.2122 272.828 85.7434 273.625 85.0872 274.281C84.4778 274.891 83.6809 275.219 82.6966 275.266C81.7122 275.359 80.8919 275.242 80.2356 274.914C79.6262 274.539 79.1341 274.094 78.7591 273.578C78.4309 273.062 78.1966 272.523 78.0559 271.961C77.9622 271.398 77.9622 270.906 78.0559 270.484C78.1966 269.875 78.4309 269.312 78.7591 268.797C79.0403 268.328 79.4387 267.859 79.9544 267.391C80.5169 266.922 81.2434 266.547 82.1341 266.266C81.9934 266.172 81.8528 266.125 81.7122 266.125C81.5716 266.125 81.4309 266.102 81.2903 266.055C81.1028 266.055 80.9622 266.031 80.8684 265.984C80.1184 265.984 79.2512 266.242 78.2669 266.758C77.3294 267.273 76.4153 268.094 75.5247 269.219C74.6809 270.344 73.9544 271.797 73.345 273.578C72.7825 275.312 72.5012 277.422 72.5012 279.906C72.5012 280.984 72.6184 282.062 72.8528 283.141C73.0872 284.172 73.4387 285.109 73.9075 285.953C74.4231 286.75 75.0325 287.406 75.7356 287.922C76.4856 288.391 77.3528 288.625 78.3372 288.625C79.4622 288.625 80.4466 288.391 81.2903 287.922C82.1809 287.406 82.9309 286.82 83.5403 286.164C84.1497 285.508 84.6184 284.852 84.9466 284.195C85.3216 283.539 85.5794 283.047 85.72 282.719C85.8606 282.438 86.095 282.297 86.4231 282.297C86.7981 282.297 86.9856 282.578 86.9856 283.141ZM112.824 288.414C112.918 288.742 113.058 289.047 113.246 289.328C113.387 289.562 113.574 289.797 113.808 290.031C114.09 290.219 114.418 290.336 114.793 290.383C114.465 291.039 114.137 291.484 113.808 291.719C113.621 291.859 113.457 291.953 113.316 292C112.894 292.141 112.262 292.211 111.418 292.211C110.574 292.211 109.754 291.953 108.957 291.438C108.676 291.203 108.418 290.852 108.183 290.383C107.949 290.008 107.738 289.492 107.551 288.836C107.41 288.133 107.293 287.242 107.199 286.164C106.543 287.57 105.793 288.695 104.949 289.539C104.152 290.336 103.355 290.922 102.558 291.297C101.668 291.812 100.754 292.117 99.8163 292.211C98.6444 292.305 97.5194 292.117 96.4413 291.648C95.41 291.133 94.5194 290.383 93.7694 289.398C93.0663 288.367 92.5272 287.125 92.1522 285.672C91.7772 284.219 91.66 282.578 91.8006 280.75C91.9413 278.828 92.3163 277.117 92.9256 275.617C93.535 274.117 94.2616 272.781 95.1053 271.609C95.9491 270.438 96.8397 269.453 97.7772 268.656C98.7147 267.812 99.6053 267.133 100.449 266.617C101.34 266.055 102.09 265.656 102.699 265.422C103.355 265.141 103.777 264.977 103.965 264.93C104.48 264.789 104.926 264.742 105.301 264.789C105.676 264.836 106.004 265.047 106.285 265.422C106.379 265.562 106.496 265.727 106.637 265.914C106.73 266.102 106.848 266.359 106.988 266.688C107.129 266.969 107.246 267.297 107.34 267.672C106.215 268.188 105.16 268.773 104.176 269.43C103.191 270.039 102.277 270.789 101.433 271.68C100.637 272.57 99.9334 273.648 99.3241 274.914C98.7147 276.18 98.2459 277.727 97.9178 279.555C97.4491 281.852 97.5663 283.703 98.2694 285.109C99.0194 286.516 100.027 287.102 101.293 286.867C102.043 286.633 102.769 286.188 103.473 285.531C104.082 284.969 104.715 284.125 105.371 283C106.074 281.875 106.73 280.328 107.34 278.359C107.574 275.547 107.762 273.344 107.902 271.75C108.09 270.109 108.254 268.867 108.394 268.023C108.582 267.039 108.723 266.383 108.816 266.055C108.957 265.82 109.238 265.609 109.66 265.422C110.082 265.188 110.551 265 111.066 264.859C111.582 264.719 112.051 264.648 112.473 264.648C112.894 264.602 113.176 264.602 113.316 264.648C113.41 264.695 113.457 265.281 113.457 266.406C113.457 267.484 113.41 268.867 113.316 270.555C113.269 272.195 113.199 274 113.105 275.969C113.012 277.891 112.918 279.719 112.824 281.453C112.777 283.188 112.73 284.711 112.683 286.023C112.683 287.289 112.73 288.086 112.824 288.414ZM129.381 288.344C129.803 288.344 130.366 287.594 131.069 286.094C131.772 284.594 132.428 282.789 133.037 280.68C133.694 278.57 134.209 276.391 134.584 274.141C135.006 271.891 135.123 269.992 134.936 268.445C134.842 267.93 134.702 267.508 134.514 267.18C134.373 266.852 134.186 266.5 133.952 266.125C134.233 265.75 134.584 265.469 135.006 265.281C135.428 265.047 135.827 264.883 136.202 264.789C136.67 264.648 137.139 264.555 137.608 264.508C138.733 264.461 139.553 264.648 140.069 265.07C140.35 265.352 140.491 266.008 140.491 267.039C140.491 268.07 140.373 269.289 140.139 270.695C139.952 272.055 139.67 273.508 139.295 275.055C138.967 276.555 138.592 277.938 138.17 279.203C137.748 280.422 137.233 281.758 136.623 283.211C136.014 284.617 135.381 285.977 134.725 287.289C134.069 288.555 133.412 289.656 132.756 290.594C132.1 291.484 131.537 292.023 131.069 292.211C130.084 292.586 129.1 292.773 128.116 292.773C127.178 292.773 126.592 292.656 126.358 292.422C126.264 292.328 126.053 292 125.725 291.438C125.397 290.875 125.022 290.148 124.6 289.258C124.225 288.367 123.803 287.336 123.334 286.164C122.912 284.945 122.537 283.656 122.209 282.297C121.881 280.938 121.647 279.461 121.506 277.867C121.366 276.273 121.202 274.727 121.014 273.227C120.873 271.68 120.662 270.25 120.381 268.938C120.1 267.625 119.678 266.547 119.116 265.703L122.42 264.367C122.702 264.227 123.03 264.109 123.405 264.016C123.78 263.875 124.155 263.828 124.53 263.875C124.905 263.922 125.233 264.109 125.514 264.438C125.842 264.719 126.053 265.234 126.147 265.984C126.241 266.828 126.311 267.836 126.358 269.008C126.452 270.18 126.522 271.398 126.569 272.664C126.662 273.93 126.756 275.195 126.85 276.461C126.944 277.68 127.037 278.781 127.131 279.766C127.225 280.797 127.342 281.828 127.483 282.859C127.67 283.891 127.858 284.805 128.045 285.602C128.28 286.398 128.491 287.055 128.678 287.57C128.912 288.086 129.147 288.344 129.381 288.344ZM165.274 288.414C165.368 288.742 165.509 289.047 165.696 289.328C165.837 289.562 166.024 289.797 166.259 290.031C166.54 290.219 166.868 290.336 167.243 290.383C166.915 291.039 166.587 291.484 166.259 291.719C166.071 291.859 165.907 291.953 165.767 292C165.345 292.141 164.712 292.211 163.868 292.211C163.024 292.211 162.204 291.953 161.407 291.438C161.126 291.203 160.868 290.852 160.634 290.383C160.399 290.008 160.188 289.492 160.001 288.836C159.86 288.133 159.743 287.242 159.649 286.164C158.993 287.57 158.243 288.695 157.399 289.539C156.603 290.336 155.806 290.922 155.009 291.297C154.118 291.812 153.204 292.117 152.267 292.211C151.095 292.305 149.97 292.117 148.892 291.648C147.86 291.133 146.97 290.383 146.22 289.398C145.517 288.367 144.978 287.125 144.603 285.672C144.228 284.219 144.11 282.578 144.251 280.75C144.392 278.828 144.767 277.117 145.376 275.617C145.985 274.117 146.712 272.781 147.556 271.609C148.399 270.438 149.29 269.453 150.228 268.656C151.165 267.812 152.056 267.133 152.899 266.617C153.79 266.055 154.54 265.656 155.149 265.422C155.806 265.141 156.228 264.977 156.415 264.93C156.931 264.789 157.376 264.742 157.751 264.789C158.126 264.836 158.454 265.047 158.735 265.422C158.829 265.562 158.946 265.727 159.087 265.914C159.181 266.102 159.298 266.359 159.438 266.688C159.579 266.969 159.696 267.297 159.79 267.672C158.665 268.188 157.61 268.773 156.626 269.43C155.642 270.039 154.728 270.789 153.884 271.68C153.087 272.57 152.384 273.648 151.774 274.914C151.165 276.18 150.696 277.727 150.368 279.555C149.899 281.852 150.017 283.703 150.72 285.109C151.47 286.516 152.478 287.102 153.743 286.867C154.493 286.633 155.22 286.188 155.923 285.531C156.532 284.969 157.165 284.125 157.821 283C158.524 281.875 159.181 280.328 159.79 278.359C160.024 275.547 160.212 273.344 160.353 271.75C160.54 270.109 160.704 268.867 160.845 268.023C161.032 267.039 161.173 266.383 161.267 266.055C161.407 265.82 161.688 265.609 162.11 265.422C162.532 265.188 163.001 265 163.517 264.859C164.032 264.719 164.501 264.648 164.923 264.648C165.345 264.602 165.626 264.602 165.767 264.648C165.86 264.695 165.907 265.281 165.907 266.406C165.907 267.484 165.86 268.867 165.767 270.555C165.72 272.195 165.649 274 165.556 275.969C165.462 277.891 165.368 279.719 165.274 281.453C165.228 283.188 165.181 284.711 165.134 286.023C165.134 287.289 165.181 288.086 165.274 288.414ZM180.074 290.102C180.027 290.383 179.769 290.688 179.3 291.016C178.878 291.297 178.363 291.555 177.753 291.789C177.191 292.023 176.652 292.164 176.136 292.211C175.621 292.305 175.269 292.258 175.082 292.07C174.894 291.883 174.589 291.531 174.167 291.016C173.746 290.5 173.488 289.656 173.394 288.484C173.3 287.266 173.253 285.742 173.253 283.914C173.253 282.039 173.23 279.977 173.183 277.727V274.914C173.183 274.07 173.16 273.086 173.113 271.961C173.113 270.836 173.089 269.664 173.042 268.445C173.464 268.211 173.886 268 174.308 267.812C174.777 267.578 175.199 267.391 175.574 267.25C175.996 267.062 176.394 266.922 176.769 266.828C177.753 266.547 178.503 266.383 179.019 266.336C179.535 266.289 179.839 266.453 179.933 266.828C179.98 267.109 179.957 267.789 179.863 268.867C179.769 269.805 179.652 271.234 179.511 273.156C179.371 275.031 179.136 277.656 178.808 281.031C179.417 279.531 179.91 278.242 180.285 277.164C180.707 276.086 181.058 275.219 181.339 274.562C181.621 273.766 181.878 273.133 182.113 272.664C182.347 272.055 182.652 271.375 183.027 270.625C183.402 269.875 183.777 269.172 184.152 268.516C184.574 267.859 184.949 267.273 185.277 266.758C185.652 266.242 185.933 265.938 186.121 265.844C186.261 265.75 186.683 265.75 187.386 265.844C188.089 265.938 188.839 266.172 189.636 266.547C190.433 266.875 191.207 267.367 191.957 268.023C192.707 268.633 193.199 269.383 193.433 270.273C193.714 271.305 193.808 272.664 193.714 274.352C193.667 276.039 193.55 277.773 193.363 279.555C193.222 281.336 193.105 283.023 193.011 284.617C192.917 286.211 193.011 287.43 193.292 288.273C193.386 288.742 193.527 289.164 193.714 289.539C193.808 289.914 193.925 290.266 194.066 290.594C194.253 290.875 194.441 291.086 194.628 291.227C193.503 291.742 192.589 292.117 191.886 292.352C191.183 292.586 190.644 292.75 190.269 292.844C189.8 292.984 189.472 293.031 189.285 292.984C188.863 292.844 188.488 292.492 188.16 291.93C187.878 291.367 187.621 290.477 187.386 289.258C187.292 288.883 187.246 288.273 187.246 287.43C187.292 286.539 187.363 285.555 187.457 284.477C187.55 283.352 187.644 282.203 187.738 281.031C187.878 279.812 187.972 278.688 188.019 277.656C188.113 276.578 188.183 275.664 188.23 274.914C188.277 274.117 188.277 273.578 188.23 273.297C187.996 272.453 187.667 271.867 187.246 271.539C186.824 271.164 186.496 271.117 186.261 271.398C185.652 272.102 184.996 273.25 184.292 274.844C183.636 276.391 183.003 278.102 182.394 279.977C181.785 281.805 181.269 283.633 180.847 285.461C180.425 287.289 180.167 288.836 180.074 290.102ZM207.881 292.633C206.897 292.633 205.889 292.375 204.857 291.859C203.826 291.344 202.865 290.57 201.975 289.539C201.084 288.461 200.357 287.148 199.795 285.602C199.232 284.008 198.951 282.156 198.951 280.047C198.951 276.953 199.35 274.398 200.147 272.383C200.943 270.32 201.904 268.68 203.029 267.461C204.201 266.195 205.467 265.305 206.826 264.789C208.186 264.273 209.428 264.016 210.553 264.016C211.725 264.016 212.686 264.227 213.436 264.648C214.232 265.023 214.889 265.469 215.404 265.984V264.648C215.686 264.414 215.99 264.203 216.318 264.016C216.693 263.828 217.068 263.688 217.443 263.594C217.818 263.453 218.217 263.383 218.639 263.383H219.693C219.975 263.43 220.256 263.477 220.537 263.523C220.865 263.57 221.1 263.688 221.24 263.875C220.959 270.016 220.725 274.984 220.537 278.781C220.35 282.578 220.209 285.531 220.115 287.641C219.975 290.125 219.881 291.93 219.834 293.055C219.74 295.023 219.482 296.969 219.061 298.891C218.639 300.859 217.982 302.617 217.092 304.164C216.201 305.711 215.029 306.953 213.576 307.891C212.123 308.828 210.342 309.297 208.232 309.297C206.404 309.297 204.928 308.945 203.803 308.242C202.725 307.539 201.881 306.672 201.272 305.641C200.709 304.609 200.334 303.508 200.147 302.336C199.959 301.211 199.865 300.18 199.865 299.242C199.865 299.008 199.982 298.656 200.217 298.188C200.498 297.719 200.873 297.227 201.342 296.711C201.857 296.242 202.49 295.82 203.24 295.445C203.99 295.07 204.834 294.836 205.772 294.742C205.35 296.008 205.092 297.156 204.998 298.188C204.904 298.75 204.881 299.312 204.928 299.875C204.928 301.422 205.232 302.711 205.842 303.742C206.451 304.773 207.389 305.289 208.654 305.289C210.014 305.289 211.115 304.703 211.959 303.531C212.803 302.406 213.436 301.023 213.857 299.383C214.326 297.789 214.631 296.102 214.772 294.32C214.959 292.586 215.053 291.109 215.053 289.891V287.852C214.772 288.367 214.42 288.906 213.998 289.469C213.623 290.031 213.154 290.547 212.592 291.016C212.029 291.484 211.35 291.859 210.553 292.141C209.803 292.469 208.912 292.633 207.881 292.633ZM210.764 268.023C209.967 268.023 209.193 268.375 208.443 269.078C207.74 269.781 207.107 270.719 206.545 271.891C205.982 273.016 205.537 274.305 205.209 275.758C204.881 277.211 204.717 278.664 204.717 280.117C204.717 281.055 204.764 282.016 204.857 283C204.998 283.984 205.232 284.898 205.561 285.742C205.936 286.539 206.404 287.195 206.967 287.711C207.529 288.227 208.279 288.484 209.217 288.484C209.92 288.438 210.576 288.156 211.186 287.641C211.701 287.219 212.217 286.539 212.732 285.602C213.295 284.664 213.74 283.328 214.068 281.594C214.443 281.969 214.725 282.32 214.912 282.648C215.147 282.977 215.334 283.281 215.475 283.562C215.522 283.188 215.545 282.742 215.545 282.227C215.592 281.711 215.615 281.125 215.615 280.469C215.615 279.203 215.545 277.844 215.404 276.391C215.264 274.891 215.006 273.531 214.631 272.312C214.303 271.094 213.811 270.086 213.154 269.289C212.545 268.445 211.748 268.023 210.764 268.023ZM236.462 292.773C233.18 292.773 230.649 291.672 228.868 289.469C227.087 287.266 226.196 284.383 226.196 280.82C226.196 278.336 226.548 276.016 227.251 273.859C228.001 271.656 228.985 269.758 230.204 268.164C231.423 266.57 232.829 265.328 234.423 264.438C236.063 263.5 237.774 263.031 239.555 263.031C241.29 263.031 242.766 263.664 243.985 264.93C245.204 266.148 245.813 267.906 245.813 270.203C245.813 271.703 245.485 273.203 244.829 274.703C244.173 276.156 243.305 277.469 242.227 278.641C241.196 279.766 240.048 280.68 238.782 281.383C237.516 282.086 236.298 282.438 235.126 282.438C234.376 282.438 233.743 282.344 233.227 282.156C232.712 281.969 232.243 281.688 231.821 281.312C231.962 283.984 232.548 285.859 233.579 286.938C234.61 287.969 235.946 288.484 237.587 288.484C238.712 288.484 239.696 288.25 240.54 287.781C241.43 287.312 242.18 286.773 242.79 286.164C243.399 285.555 243.891 284.945 244.266 284.336C244.641 283.68 244.899 283.188 245.04 282.859C245.18 282.578 245.415 282.438 245.743 282.438C246.118 282.438 246.305 282.719 246.305 283.281C246.305 283.797 246.118 284.594 245.743 285.672C245.415 286.703 244.852 287.758 244.055 288.836C243.258 289.867 242.227 290.781 240.962 291.578C239.743 292.375 238.243 292.773 236.462 292.773ZM239.696 266.055C239.415 266.055 238.876 266.359 238.079 266.969C237.329 267.531 236.508 268.375 235.618 269.5C234.774 270.625 233.977 271.984 233.227 273.578C232.524 275.125 232.079 276.883 231.891 278.852C234.704 278.195 236.93 277.164 238.571 275.758C240.212 274.352 241.032 272.289 241.032 269.57C241.032 268.211 240.868 267.297 240.54 266.828C240.212 266.312 239.93 266.055 239.696 266.055ZM270.878 270.414C270.878 271.07 270.691 271.75 270.316 272.453C269.988 273.109 269.566 273.742 269.05 274.352C268.534 274.961 267.948 275.5 267.292 275.969C266.683 276.391 266.097 276.648 265.534 276.742C265.909 275.289 266.027 274.164 265.886 273.367C265.745 272.57 265.511 271.984 265.183 271.609C264.808 271.188 264.339 270.953 263.777 270.906C262.933 270.906 262.113 271.398 261.316 272.383C260.566 273.32 259.909 274.492 259.347 275.898C258.784 277.258 258.339 278.734 258.011 280.328C257.683 281.875 257.519 283.281 257.519 284.547C257.472 285.438 257.495 286.305 257.589 287.148C257.636 287.852 257.706 288.578 257.8 289.328C257.941 290.078 258.128 290.664 258.363 291.086C258.081 291.32 257.613 291.602 256.956 291.93C256.347 292.258 255.691 292.469 254.988 292.562C254.331 292.656 253.722 292.539 253.159 292.211C252.644 291.883 252.363 291.18 252.316 290.102C252.222 289.07 252.152 287.922 252.105 286.656C252.105 285.344 252.105 284.055 252.105 282.789C252.152 281.477 252.198 280.188 252.245 278.922C252.292 277.656 252.363 276.484 252.456 275.406C252.55 273.344 252.597 271.75 252.597 270.625C252.597 269.5 252.573 268.422 252.527 267.391C252.527 267.203 252.831 266.945 253.441 266.617C254.097 266.242 254.8 265.914 255.55 265.633C256.347 265.352 257.073 265.188 257.73 265.141C258.386 265.094 258.714 265.234 258.714 265.562C258.714 266.078 258.644 267.109 258.503 268.656C258.409 270.156 258.269 271.727 258.081 273.367C258.409 272.477 258.831 271.516 259.347 270.484C259.909 269.453 260.542 268.492 261.245 267.602C261.948 266.711 262.745 265.984 263.636 265.422C264.527 264.812 265.511 264.508 266.589 264.508C267.433 264.508 268.113 264.766 268.628 265.281C269.191 265.797 269.636 266.383 269.964 267.039C270.292 267.695 270.527 268.352 270.667 269.008C270.808 269.664 270.878 270.133 270.878 270.414ZM294.008 276.742C293.446 276.93 292.86 276.906 292.25 276.672C291.688 276.391 291.172 275.969 290.703 275.406C290.235 274.844 289.86 274.188 289.578 273.438C289.344 272.688 289.227 271.891 289.227 271.047C289.836 270.953 290.492 270.859 291.196 270.766C291.899 270.625 292.555 270.508 293.164 270.414C293.867 270.32 294.547 270.227 295.203 270.133C295.25 267.414 295.297 264.836 295.344 262.398C295.438 259.914 295.508 257.711 295.555 255.789C295.649 253.82 295.719 252.18 295.766 250.867C295.86 249.508 295.93 248.594 295.977 248.125C295.977 247.891 296.094 247.656 296.328 247.422C296.703 247.141 297.242 246.742 297.946 246.227C298.696 245.711 299.539 245.242 300.477 244.82C301.274 244.492 301.789 244.609 302.024 245.172C302.305 245.688 302.446 246.695 302.446 248.195C302.352 250.305 302.258 253.141 302.164 256.703C302.071 260.266 301.977 264.461 301.883 269.289C302.633 269.195 303.36 269.125 304.063 269.078C304.766 269.031 305.516 268.984 306.313 268.938C308.469 268.844 310.555 268.727 312.571 268.586C314.633 268.445 316.438 268.445 317.985 268.586C318.219 261.883 318.289 256.867 318.196 253.539C318.102 250.164 318.055 248.172 318.055 247.562C318.055 247.281 318.36 246.953 318.969 246.578C319.578 246.203 320.235 245.875 320.938 245.594C321.688 245.266 322.367 245.055 322.977 244.961C323.586 244.82 323.914 244.844 323.961 245.031C324.008 245.359 324.008 246.18 323.961 247.492C323.961 248.805 323.938 250.656 323.891 253.047C323.891 255.391 323.891 258.32 323.891 261.836C323.938 265.352 324.032 269.453 324.172 274.141C324.078 276.297 324.032 278.547 324.032 280.891C324.032 282.906 324.078 285.156 324.172 287.641C324.266 290.125 324.477 292.633 324.805 295.164C324.196 295.68 323.539 296.078 322.836 296.359C322.133 296.641 321.453 296.875 320.797 297.062C320.047 297.25 319.297 297.391 318.547 297.484C318.125 297.531 317.774 297.438 317.492 297.203C317.258 297.016 317.094 296.758 317 296.43C316.907 296.148 316.836 295.844 316.789 295.516C316.789 295.188 316.789 294.883 316.789 294.602C316.789 293.992 316.789 293.406 316.789 292.844C316.836 292.328 316.883 291.906 316.93 291.578C317.024 289.562 317.141 287.125 317.282 284.266C317.422 281.406 317.563 278.219 317.703 274.703C317.375 274.656 317.071 274.633 316.789 274.633C316.508 274.586 316.18 274.539 315.805 274.492C313.696 274.352 311.399 274.352 308.914 274.492C306.477 274.633 304.086 274.867 301.742 275.195C301.696 277.492 301.696 279.672 301.742 281.734C301.789 283.75 301.836 285.602 301.883 287.289C301.977 288.93 302.071 290.359 302.164 291.578C302.258 292.75 302.352 293.617 302.446 294.18C302.492 294.648 302.422 294.977 302.235 295.164C302.047 295.398 301.766 295.703 301.391 296.078C301.063 296.453 300.617 296.805 300.055 297.133C299.539 297.508 298.907 297.812 298.157 298.047C297.407 298.328 296.539 298.469 295.555 298.469C295.086 298.469 294.852 298.258 294.852 297.836C294.852 297.227 294.852 296.266 294.852 294.953C294.899 293.641 294.922 292.047 294.922 290.172C294.969 288.297 294.992 286.211 294.992 283.914C295.039 281.57 295.086 279.086 295.133 276.461C294.899 276.508 294.688 276.555 294.5 276.602C294.36 276.648 294.196 276.695 294.008 276.742ZM348.042 265.844C348.042 265.328 348.347 264.953 348.956 264.719C349.612 264.438 350.292 264.297 350.995 264.297C351.745 264.297 352.425 264.438 353.034 264.719C353.643 264.953 353.925 265.281 353.878 265.703C353.831 266.031 353.784 266.688 353.737 267.672C353.69 268.609 353.62 269.734 353.526 271.047C353.479 272.359 353.409 273.766 353.315 275.266C353.222 276.766 353.128 278.242 353.034 279.695C352.987 281.102 352.94 282.414 352.893 283.633C352.893 284.852 352.893 285.789 352.893 286.445C352.893 287.289 352.94 288.062 353.034 288.766C353.128 289.375 353.245 289.984 353.386 290.594C353.526 291.156 353.737 291.555 354.018 291.789C353.643 291.93 353.245 292.023 352.823 292.07C352.448 292.117 352.097 292.164 351.768 292.211C351.393 292.258 351.018 292.281 350.643 292.281C349.847 292.281 349.167 292.117 348.604 291.789C348.089 291.461 347.831 290.781 347.831 289.75C347.831 289.234 347.854 288.484 347.901 287.5C347.995 286.516 348.089 285.461 348.182 284.336C347.854 285.32 347.456 286.328 346.987 287.359C346.518 288.391 345.932 289.305 345.229 290.102C344.573 290.898 343.823 291.555 342.979 292.07C342.136 292.586 341.175 292.844 340.097 292.844C338.878 292.844 337.753 292.586 336.722 292.07C335.737 291.555 334.87 290.828 334.12 289.891C333.37 288.906 332.807 287.711 332.432 286.305C332.057 284.898 331.917 283.281 332.011 281.453C332.011 280.047 332.034 278.547 332.081 276.953C332.128 275.594 332.198 274.023 332.292 272.242C332.386 270.461 332.55 268.609 332.784 266.688C332.831 266.5 333.159 266.266 333.768 265.984C334.378 265.703 335.057 265.469 335.807 265.281C336.557 265.094 337.284 265.023 337.987 265.07C338.69 265.117 339.206 265.398 339.534 265.914C339.3 266.758 339.065 267.766 338.831 268.938C338.597 270.062 338.386 271.234 338.198 272.453C338.011 273.672 337.87 274.867 337.776 276.039C337.682 277.211 337.636 278.289 337.636 279.273C337.636 280.164 337.682 281.148 337.776 282.227C337.87 283.258 338.034 284.242 338.268 285.18C338.55 286.07 338.925 286.82 339.393 287.43C339.909 288.039 340.565 288.344 341.362 288.344C342.253 288.344 343.026 287.969 343.682 287.219C344.386 286.422 344.972 285.414 345.44 284.195C345.909 282.977 346.307 281.594 346.636 280.047C346.964 278.453 347.222 276.883 347.409 275.336C347.643 273.789 347.784 272.312 347.831 270.906C347.925 269.453 347.995 268.234 348.042 267.25V265.844ZM367.552 290.102C367.505 290.383 367.247 290.688 366.779 291.016C366.357 291.297 365.841 291.555 365.232 291.789C364.669 292.023 364.13 292.164 363.615 292.211C363.099 292.305 362.747 292.258 362.56 292.07C362.372 291.883 362.068 291.531 361.646 291.016C361.224 290.5 360.966 289.656 360.872 288.484C360.779 287.266 360.732 285.742 360.732 283.914C360.732 282.039 360.708 279.977 360.662 277.727V274.914C360.662 274.07 360.638 273.086 360.591 271.961C360.591 270.836 360.568 269.664 360.521 268.445C360.943 268.211 361.365 268 361.787 267.812C362.255 267.578 362.677 267.391 363.052 267.25C363.474 267.062 363.872 266.922 364.247 266.828C365.232 266.547 365.982 266.383 366.497 266.336C367.013 266.289 367.318 266.453 367.412 266.828C367.458 267.109 367.435 267.789 367.341 268.867C367.247 269.805 367.13 271.234 366.99 273.156C366.849 275.031 366.615 277.656 366.287 281.031C366.896 279.531 367.388 278.242 367.763 277.164C368.185 276.086 368.537 275.219 368.818 274.562C369.099 273.766 369.357 273.133 369.591 272.664C369.826 272.055 370.13 271.375 370.505 270.625C370.88 269.875 371.255 269.172 371.63 268.516C372.052 267.859 372.427 267.273 372.755 266.758C373.13 266.242 373.412 265.938 373.599 265.844C373.74 265.75 374.162 265.75 374.865 265.844C375.568 265.938 376.318 266.172 377.115 266.547C377.912 266.875 378.685 267.367 379.435 268.023C380.185 268.633 380.677 269.383 380.912 270.273C381.193 271.305 381.287 272.664 381.193 274.352C381.146 276.039 381.029 277.773 380.841 279.555C380.701 281.336 380.583 283.023 380.49 284.617C380.396 286.211 380.49 287.43 380.771 288.273C380.865 288.742 381.005 289.164 381.193 289.539C381.287 289.914 381.404 290.266 381.544 290.594C381.732 290.875 381.919 291.086 382.107 291.227C380.982 291.742 380.068 292.117 379.365 292.352C378.662 292.586 378.122 292.75 377.747 292.844C377.279 292.984 376.951 293.031 376.763 292.984C376.341 292.844 375.966 292.492 375.638 291.93C375.357 291.367 375.099 290.477 374.865 289.258C374.771 288.883 374.724 288.273 374.724 287.43C374.771 286.539 374.841 285.555 374.935 284.477C375.029 283.352 375.122 282.203 375.216 281.031C375.357 279.812 375.451 278.688 375.497 277.656C375.591 276.578 375.662 275.664 375.708 274.914C375.755 274.117 375.755 273.578 375.708 273.297C375.474 272.453 375.146 271.867 374.724 271.539C374.302 271.164 373.974 271.117 373.74 271.398C373.13 272.102 372.474 273.25 371.771 274.844C371.115 276.391 370.482 278.102 369.872 279.977C369.263 281.805 368.747 283.633 368.326 285.461C367.904 287.289 367.646 288.836 367.552 290.102ZM414.062 260.711C413.547 260.617 412.844 260.523 411.953 260.43C411.109 260.336 410.242 260.266 409.352 260.219C408.32 260.172 407.219 260.148 406.047 260.148C404.875 260.055 403.398 260.055 401.617 260.148C399.883 260.195 398.055 260.219 396.133 260.219C396.086 261.438 395.992 262.68 395.852 263.945C395.758 265.211 395.664 266.453 395.57 267.672C395.336 269.922 395.125 272.219 394.938 274.562C394.797 276.906 394.727 279.133 394.727 281.242C394.727 283.352 394.844 285.273 395.078 287.008C395.359 288.695 395.852 290.031 396.555 291.016C395.992 291.438 395.383 291.766 394.727 292C394.07 292.188 393.484 292.328 392.969 292.422C392.359 292.562 391.75 292.633 391.141 292.633C390.578 292.633 390.109 292.445 389.734 292.07C389.359 291.695 389.148 291.039 389.102 290.102C389.008 288.508 388.984 286.914 389.031 285.32C389.125 283.68 389.219 281.969 389.312 280.188C389.453 278.406 389.594 276.508 389.734 274.492C389.875 272.43 390.016 270.18 390.156 267.742C390.297 265.211 390.367 262.75 390.367 260.359C388.586 260.406 387.086 260.43 385.867 260.43C384.648 260.43 383.969 260.406 383.828 260.359C383.688 260.266 383.523 260.055 383.336 259.727C383.148 259.445 382.914 259.023 382.633 258.461C382.305 257.898 381.906 257.102 381.438 256.07C382.328 256.07 383.312 256.07 384.391 256.07C385.422 256.07 386.383 256.047 387.273 256C388.305 255.953 389.336 255.906 390.367 255.859C390.32 255.109 390.297 254.312 390.297 253.469C390.25 252.812 390.227 252.086 390.227 251.289C390.227 250.445 390.203 249.672 390.156 248.969C390.156 248.688 390.484 248.359 391.141 247.984C391.844 247.562 392.594 247.188 393.391 246.859C394.188 246.531 394.914 246.32 395.57 246.227C396.273 246.133 396.625 246.297 396.625 246.719C396.625 247.141 396.602 248.172 396.555 249.812C396.555 251.406 396.508 253.352 396.414 255.648C396.883 255.648 397.234 255.625 397.469 255.578C399.953 255.484 401.945 255.391 403.445 255.297C404.992 255.156 406.258 255.133 407.242 255.227C408.227 255.32 409.094 255.555 409.844 255.93C410.594 256.305 411.438 256.914 412.375 257.758C412.703 258.039 412.984 258.344 413.219 258.672C413.453 258.953 413.641 259.281 413.781 259.656C413.969 259.984 414.062 260.336 414.062 260.711Z" fill="url(#paint0_linear)"/>
<defs>
<linearGradient id="paint0_linear" x1="202" y1="272" x2="202.5" y2="324" gradientUnits="userSpaceOnUse">
<stop stop-color="#264169"/>
<stop offset="0.25" stop-opacity="0.614583"/>
<stop offset="1" stop-color="#3F3D56" stop-opacity="0"/>
</linearGradient>
<clipPath id="clip0">
<rect x="191.191" width="429.037" height="454.565" transform="rotate(18.8933 191.191 0)" fill="white"/>
</clipPath>
</defs>
</svg>
