<svg viewBox="0 0 361 251" fill="none" xmlns="http://www.w3.org/2000/svg">
<!-- <rect width="361" height="251" fill="#E5E5E5"/> -->
<g id="treasure-box 1">
<g clip-path="url(#clip0)">
<g id="compass 1">
<g clip-path="url(#clip1)">
<path id="Vector" d="M295.989 178.03L275.491 173.907L293.468 184.163L302.086 189.082L283.47 234.372L133.892 182.626L135.142 175.636L137.742 161.043L128.12 173.207L123.512 179.035L91.8329 168.076L128.001 80.0837L137.963 81.7346L152.761 84.1942L140.222 76.2374L131.783 70.8816L137.637 56.6406L279.758 105.806L278.508 112.796L276.367 124.808L284.283 114.794L288.893 108.966L329.275 122.936L305.817 180.005L295.989 178.03Z" fill="#FFF5CB"/>
<g id="Group">
<path id="Vector_2" d="M295.989 178.031L275.491 173.905L293.468 184.165L302.087 189.081L283.471 234.37L187.652 201.222L233.455 89.7897L279.756 105.807L278.508 112.795L276.369 124.81L284.282 114.792L288.894 108.968L329.274 122.937L305.817 180.005L295.989 178.031Z" fill="#FFED97"/>
<path id="Vector_3" d="M295.989 178.03L275.491 173.907L293.468 184.163L276.826 224.65L135.142 175.636L137.742 161.043L128.12 173.207L103.82 164.8L137.963 81.7345L152.761 84.1941L140.222 76.2374L144.281 66.3621L278.508 112.796L276.367 124.808L284.283 114.794L317.288 126.212L295.989 178.03Z" fill="#FFED97"/>
</g>
<path id="Vector_4" d="M295.989 178.031L275.491 173.905L293.468 184.165L276.827 224.652L190.322 194.727L230.785 96.2854L278.508 112.795L276.369 124.81L284.282 114.792L317.289 126.211L295.989 178.031Z" fill="#FFE047"/>
<path id="Vector_5" d="M263.765 107.699L197.802 84.8797L157.342 183.313L223.306 206.132L263.765 107.699Z" fill="#FFE670"/>
<path id="Vector_6" d="M263.765 107.699L230.784 96.2894L190.324 194.723L223.306 206.132L263.765 107.699Z" fill="#FFD400"/>
<path id="Vector_7" d="M155.74 116.109L149.809 113.062C151.535 110.57 152.881 109.052 152.938 108.988L158.514 112.487L155.725 110.737L158.515 112.485C158.502 112.499 157.29 113.87 155.74 116.109Z" fill="#E67500"/>
<g id="Group_2">
<path id="Vector_8" d="M229.393 197.355L230.476 192.094C234.002 192.865 237.305 193.041 240.294 192.618L242.113 197.998C238.174 198.555 233.894 198.339 229.393 197.355Z" fill="#C06200"/>
<path id="Vector_9" d="M217.686 193.213C214.147 191.484 210.735 189.38 207.546 186.959L211.838 183.158C214.627 185.275 217.6 187.11 220.673 188.611L217.686 193.213Z" fill="#C06200"/>
</g>
<path id="Vector_10" d="M199.15 179.204C196.609 176.329 194.502 173.316 192.887 170.248L199.014 168.566C200.412 171.22 202.243 173.836 204.457 176.341L199.15 179.204Z" fill="#E67500"/>
<g id="Group_3">
<path id="Vector_11" d="M204.456 176.341C202.827 174.498 201.408 172.595 200.214 170.662L197.507 177.246C198.034 177.905 198.579 178.559 199.15 179.205L204.456 176.341Z" fill="#C06200"/>
<path id="Vector_12" d="M253.325 194.233L249.113 189.647C251.733 188.163 253.753 186.253 255.118 183.969L261.215 186.76C259.413 189.774 256.759 192.289 253.325 194.233Z" fill="#C06200"/>
</g>
<g id="Group_4">
<path id="Vector_13" d="M150.541 150.714C148.39 149.417 146.636 147.713 145.325 145.648C144.381 144.161 143.631 142.578 143.095 140.943L149.567 140.073C149.967 141.292 150.523 142.468 151.221 143.567C151.994 144.785 152.953 145.729 154.152 146.452L150.541 150.714Z" fill="#E67500"/>
<path id="Vector_14" d="M163.472 154.003L163.18 148.557C165.443 148.672 167.89 148.645 170.258 148.619C171.589 148.603 172.967 148.588 174.316 148.598L174.971 154.054C173.696 154.045 172.416 154.06 171.06 154.075C168.568 154.103 165.991 154.132 163.472 154.003Z" fill="#E67500"/>
<path id="Vector_15" d="M189.463 160.72C188.388 157.173 186.351 155.968 184.697 155.314L187.091 150.451C191.612 152.238 194.599 155.436 195.97 159.956L189.463 160.72Z" fill="#E67500"/>
</g>
<path id="Vector_16" d="M257.15 176.351C257.15 173.673 256.529 170.913 255.302 168.148L261.588 166.793C263.096 170.192 263.86 173.603 263.859 176.932L257.15 176.351Z" fill="#C06200"/>
<path id="Vector_17" d="M142.29 130.739C142.65 128.119 143.418 125.368 144.572 122.561C144.726 122.186 144.885 121.815 145.048 121.449L151.388 123.771C151.242 124.1 151.099 124.434 150.961 124.771C149.944 127.244 149.271 129.645 148.959 131.908L142.29 130.739Z" fill="#E67500"/>
<g id="Group_5">
<path id="Vector_18" d="M250.208 160.541C248.013 158.182 245.432 156.139 242.536 154.469L246.014 150.129C249.563 152.175 252.721 154.674 255.401 157.554L250.208 160.541Z" fill="#C06200"/>
<path id="Vector_19" d="M232.288 149.899C227.954 147.577 224.988 144.355 223.71 140.581L230.167 139.665C230.949 141.975 232.809 143.971 235.547 145.437L232.288 149.899Z" fill="#C06200"/>
<path id="Vector_20" d="M231.052 132.671L224.98 129.839C226.895 126.71 230.014 124.274 234.001 122.794L237.303 127.803C234.534 128.831 232.372 130.514 231.052 132.671Z" fill="#C06200"/>
<path id="Vector_21" d="M246.512 126.825L246.63 121.409C250.534 121.801 254.678 122.873 258.857 124.567L256.395 129.402C252.965 128.013 249.611 127.136 246.512 126.825Z" fill="#C06200"/>
<path id="Vector_22" d="M270.312 137.438C268.813 136.329 267.302 135.288 265.823 134.345L269.603 130.187C271.231 131.226 272.888 132.367 274.527 133.58L270.312 137.438Z" fill="#C06200"/>
</g>
<path id="Vector_23" d="M178.247 111.649L160.814 105.618L167.014 90.5334C168.437 87.0716 173.228 85.4935 177.66 87.0267L178.977 87.4822C183.409 89.0153 185.871 93.1026 184.448 96.5644L178.247 111.649V111.649Z" fill="#E67500"/>
<path id="Vector_24" d="M165.072 107.091L152.297 102.672L155.412 95.0931C156.48 92.4932 160.078 91.3081 163.407 92.4596L164.079 92.6921C167.407 93.8436 169.256 96.9129 168.187 99.5127L165.072 107.091Z" fill="#FF8900"/>
<path id="Vector_25" d="M301.78 139.902L298.618 134.652L288.772 137.895L283.713 129.496L277.559 131.523L282.619 139.922L272.774 143.165L275.936 148.415L285.782 145.172L290.842 153.571L296.995 151.544L291.935 143.145L301.78 139.902Z" fill="#FF0335"/>
<path id="Vector_26" d="M233.021 184.283C233.021 184.283 217.147 168.222 225.565 165.936C232.808 163.97 233.166 174.25 233.166 174.25C233.166 174.25 234.448 162.701 240.121 163.853C245.795 165.005 246.534 171.018 241.225 177.63C241.225 177.63 247.835 173.715 252.434 176.52C257.034 179.324 248.925 184.852 233.021 184.283Z" fill="#008C4A"/>
</g>
</g>
<path id="Vector_27" d="M120.497 251C185.182 251 237.62 242.641 237.62 232.331C237.62 222.02 185.182 213.661 120.497 213.661C55.8118 213.661 3.37418 222.02 3.37418 232.331C3.37418 242.641 55.8118 251 120.497 251Z" fill="#3F3D56"/>
<path id="Vector_28" d="M26.7434 227.836C26.7434 227.836 5.02711 223.062 0.929927 223.414C-3.16725 223.767 7.13701 207.04 13.9995 209.08C20.8619 211.12 30.0119 216.486 35.2422 208.907C40.4726 201.329 43.407 197.249 49.779 197.657C56.151 198.065 64.9753 194.397 71.3431 197.657C77.7108 200.918 82.1843 204.938 90.9791 204.766C99.7739 204.593 108.112 188.278 114.962 194.805C121.812 201.332 130.027 207.303 136.467 205.132C142.906 202.961 150.255 206.225 156.137 209.896C162.018 213.568 172.314 211.936 176.233 209.08C180.153 206.225 183.1 204.185 191.43 204.586C199.759 204.987 226.233 209.889 236.038 215.995C245.843 222.1 223.294 229.866 212.508 229.866C201.721 229.866 199.764 232.313 190.449 235.985C181.134 239.657 165.925 233.945 155.156 240.065C144.386 246.184 130.632 236.801 112.027 240.065C93.423 243.328 97.3215 247.812 86.5352 244.559C75.7489 241.306 79.6727 240.065 63.9859 239.256C48.2991 238.447 31.145 241.295 29.6736 235.992C28.2022 230.688 18.4095 229.464 12.5238 227.833C6.63807 226.201 26.7434 227.836 26.7434 227.836Z" fill="#3F3D56"/>
<path id="Vector_29" d="M193.641 231.487C193.641 231.487 179.007 228.32 176.251 228.552C173.494 228.783 180.432 217.717 185.054 219.065C189.675 220.413 195.844 223.967 199.367 218.951C202.889 213.934 204.863 211.234 209.163 211.504C213.464 211.773 219.4 209.343 223.692 211.504C227.983 213.665 230.994 216.323 236.922 216.209C242.85 216.095 248.461 205.294 253.082 209.613C257.704 213.931 263.23 217.889 267.568 216.451C271.906 215.013 276.87 217.174 280.824 219.604C284.777 222.035 291.72 220.956 294.354 219.065C296.988 217.174 298.98 215.825 304.595 216.095C310.21 216.365 328.041 219.604 334.645 223.656C341.25 227.708 326.058 232.835 318.794 232.835C311.529 232.835 310.206 234.457 303.931 236.887C297.657 239.318 287.42 235.535 280.156 239.587C272.892 243.639 263.644 237.427 251.095 239.587C238.546 241.748 241.188 244.718 233.92 242.557C226.651 240.396 229.298 239.587 218.732 239.048C208.166 238.509 196.605 240.396 195.612 236.887C194.618 233.378 188.001 232.566 184.056 231.487C180.111 230.408 193.641 231.487 193.641 231.487Z" fill="#3F3D56"/>
<path id="Vector_30" d="M314.84 194.155L309.174 208.354L308.929 208.973L299.445 232.745L283.209 241.717L204.364 214.608L211.836 189.903L212.233 188.603L216.233 175.379L216.241 175.347L240.512 172.865L314.84 194.155Z" fill="#F8CE6D"/>
<path id="Vector_31" opacity="0.1" d="M314.84 194.155L299.445 232.745L283.209 241.717L298.113 199.604L216.233 175.379L216.241 175.347L240.512 172.865L314.84 194.155Z" fill="black"/>
<path id="Vector_32" opacity="0.1" d="M233.924 178.027L232.617 177.377L245.717 176.253L301.834 192.475L300.253 193.152L244.892 177.19L233.924 178.027Z" fill="black"/>
<path id="Vector_33" opacity="0.1" d="M309.174 208.354L292.786 214.657L212.233 188.603L211.836 189.903L292.46 215.583L308.929 208.973" fill="black"/>
<path id="Vector_34" d="M221.962 184.706C222.424 183.49 221.497 182.173 219.891 181.766C218.285 181.358 216.609 182.013 216.147 183.23C215.685 184.446 216.612 185.763 218.218 186.17C219.824 186.578 221.5 185.922 221.962 184.706Z" fill="#3F3D56"/>
<path id="Vector_35" d="M292.959 207.183C293.421 205.967 292.493 204.651 290.888 204.243C289.282 203.835 287.606 204.491 287.144 205.707C286.682 206.923 287.609 208.24 289.215 208.648C290.821 209.055 292.497 208.4 292.959 207.183Z" fill="#3F3D56"/>
<path id="Vector_36" d="M281.739 235.099C282.201 233.883 281.273 232.567 279.668 232.159C278.062 231.751 276.386 232.407 275.924 233.623C275.462 234.839 276.389 236.156 277.995 236.563C279.601 236.971 281.277 236.316 281.739 235.099Z" fill="#3F3D56"/>
<path id="Vector_37" d="M213.276 211.677C213.738 210.461 212.81 209.144 211.205 208.737C209.599 208.329 207.923 208.984 207.461 210.201C206.999 211.417 207.926 212.734 209.532 213.141C211.138 213.549 212.814 212.893 213.276 211.677Z" fill="#3F3D56"/>
<path id="Vector_38" d="M225.835 176.799C225.666 177.249 224.309 176.799 222.584 176.357C220.859 175.914 219.514 175.43 219.683 174.974C219.852 174.518 221.476 174.282 223.201 174.722C224.926 175.161 226.009 176.35 225.835 176.799Z" fill="#3F3D56"/>
<path id="Vector_39" d="M234.521 175.18C234.691 174.731 233.56 174.045 231.995 173.648C230.429 173.25 229.022 173.292 228.852 173.74C228.681 174.189 229.812 174.875 231.378 175.272C232.943 175.67 234.351 175.628 234.521 175.18Z" fill="#3F3D56"/>
<path id="Vector_40" d="M262.351 187.731C262.181 188.181 260.486 187.766 258.841 187.348C257.196 186.929 255.915 186.463 256.084 186.013C256.253 185.564 257.814 185.322 259.467 185.726C261.12 186.131 262.528 187.275 262.351 187.731Z" fill="#3F3D56"/>
<path id="Vector_41" d="M297.428 198.031C297.238 198.536 295.437 198.096 293.69 197.654C291.944 197.211 290.587 196.703 290.777 196.198C290.967 195.694 292.638 195.386 294.384 195.828C296.13 196.271 297.623 197.526 297.428 198.031Z" fill="#3F3D56"/>
<path id="Vector_42" d="M307.686 196.821C307.491 197.325 305.694 196.886 303.948 196.444C302.202 196.001 300.84 195.493 301.035 194.988C301.229 194.483 302.895 194.176 304.642 194.618C306.388 195.061 307.876 196.316 307.686 196.821Z" fill="#3F3D56"/>
<path id="Vector_43" d="M312.743 194.356C312.548 194.86 311.052 194.501 309.622 194.134C308.193 193.768 307.085 193.325 307.259 192.82C307.432 192.316 308.874 191.942 310.316 192.309C311.758 192.675 312.933 193.851 312.743 194.356Z" fill="#3F3D56"/>
<path id="Vector_44" d="M278.87 184.253C278.718 184.654 277.179 184.284 275.716 183.908C274.253 183.531 273.082 183.109 273.238 182.708C273.395 182.307 274.79 182.075 276.27 182.449C277.75 182.822 279.018 183.849 278.87 184.253Z" fill="#3F3D56"/>
<path id="Vector_45" d="M245.95 174.776C246.121 174.327 245.163 173.685 243.812 173.342C242.46 172.999 241.227 173.084 241.056 173.533C240.886 173.982 241.843 174.623 243.195 174.967C244.546 175.31 245.78 175.224 245.95 174.776Z" fill="#3F3D56"/>
<path id="Vector_46" opacity="0.1" d="M261.26 201.301C261.44 200.826 261.417 200.315 261.194 199.853C260.971 199.39 260.561 199.004 260.033 198.757C260.285 198.523 260.474 198.248 260.587 197.951C260.725 197.59 260.745 197.207 260.647 196.837C260.548 196.468 260.334 196.126 260.026 195.845C259.717 195.563 259.325 195.352 258.887 195.231C258.449 195.111 257.98 195.086 257.526 195.158C257.704 194.656 257.657 194.118 257.392 193.643C257.127 193.167 256.663 192.785 256.083 192.565C255.503 192.346 254.846 192.304 254.231 192.446C253.616 192.589 253.084 192.907 252.731 193.343C252.388 193.139 251.989 193.006 251.57 192.953C251.151 192.901 250.722 192.931 250.32 193.041C249.917 193.15 249.552 193.337 249.256 193.585C248.959 193.833 248.739 194.135 248.613 194.466C248.613 194.515 248.583 194.56 248.571 194.605L248.478 194.643C248.181 194.424 247.828 194.263 247.445 194.17C247.062 194.078 246.658 194.057 246.264 194.109C245.869 194.161 245.494 194.285 245.166 194.471C244.838 194.657 244.565 194.901 244.367 195.185C244.17 195.469 244.052 195.785 244.024 196.111C243.996 196.437 244.057 196.764 244.203 197.068C244.35 197.371 244.578 197.645 244.87 197.867C245.163 198.089 245.513 198.255 245.894 198.352C246.032 198.388 246.174 198.413 246.317 198.428L246.351 199.23L259.146 203.507L259.061 202.816C259.566 202.76 260.04 202.588 260.43 202.32C260.819 202.052 261.107 201.698 261.26 201.301V201.301Z" fill="black"/>
<path id="Vector_47" opacity="0.1" d="M258.27 208.168C257.997 208.612 257.546 208.967 256.992 209.173C256.439 209.38 255.816 209.427 255.226 209.305C255.212 209.616 255.115 209.92 254.943 210.197C254.785 210.454 254.567 210.682 254.302 210.87C254.036 211.058 253.727 211.201 253.394 211.291C253.061 211.381 252.709 211.417 252.359 211.396C252.008 211.375 251.667 211.298 251.353 211.168C250.961 211.006 250.623 210.769 250.368 210.477C250.069 210.937 249.578 211.295 248.985 211.485C248.392 211.676 247.735 211.687 247.133 211.516C246.531 211.345 246.023 211.004 245.701 210.555C245.38 210.105 245.265 209.576 245.378 209.063C245.084 209.03 244.798 208.957 244.533 208.849C243.9 208.588 243.419 208.134 243.197 207.584C242.974 207.034 243.027 206.434 243.345 205.917L243.429 205.789L243.395 205.709C243.008 205.7 242.629 205.621 242.283 205.478C241.648 205.215 241.167 204.756 240.945 204.202C240.723 203.649 240.78 203.046 241.101 202.527C241.423 202.007 241.984 201.614 242.661 201.433C243.338 201.251 244.075 201.297 244.71 201.561C244.835 201.612 244.955 201.671 245.07 201.737L245.772 201.18L258.642 205.388L257.995 205.837C258.307 206.164 258.498 206.557 258.547 206.97C258.595 207.382 258.5 207.798 258.27 208.168Z" fill="black"/>
<path id="Vector_48" opacity="0.1" d="M250.414 196.596L247.306 204.831C247.077 205.435 247.139 206.088 247.479 206.655C247.82 207.223 248.413 207.663 249.137 207.884V207.884C249.522 208.001 249.933 208.053 250.343 208.036C250.754 208.019 251.156 207.934 251.524 207.786C251.893 207.637 252.221 207.429 252.488 207.174C252.755 206.919 252.956 206.621 253.078 206.301L256.186 198.062C256.305 197.742 256.343 197.406 256.298 197.074C256.254 196.742 256.127 196.421 255.927 196.13C255.726 195.839 255.455 195.585 255.13 195.382C254.805 195.179 254.434 195.032 254.038 194.95C253.291 194.795 252.5 194.878 251.826 195.184C251.152 195.49 250.647 195.995 250.414 196.596V196.596Z" fill="black"/>
<path id="Vector_49" d="M250.549 197.097L247.729 204.482C247.523 205.023 247.578 205.609 247.884 206.118C248.19 206.627 248.724 207.02 249.374 207.217C249.719 207.321 250.087 207.367 250.455 207.352C250.823 207.337 251.183 207.26 251.513 207.127C251.843 206.994 252.137 206.807 252.377 206.579C252.616 206.35 252.795 206.083 252.905 205.796L255.708 198.407C255.817 198.12 255.853 197.817 255.814 197.517C255.775 197.218 255.662 196.928 255.481 196.665C255.301 196.403 255.057 196.173 254.765 195.99C254.472 195.806 254.137 195.674 253.78 195.6V195.6C253.11 195.467 252.403 195.548 251.803 195.826C251.203 196.104 250.755 196.559 250.549 197.097V197.097Z" fill="#3F3D56"/>
<path id="Vector_50" d="M213.785 235.266C213.785 235.266 199.151 232.099 196.394 232.334C193.637 232.569 200.576 221.495 205.197 222.847C209.819 224.199 215.988 227.746 219.51 222.73C223.032 217.713 225.007 215.016 229.307 215.286C233.607 215.556 239.543 213.125 243.835 215.286C248.127 217.447 251.137 220.102 257.065 219.988C262.993 219.874 268.604 209.073 273.23 213.395C277.856 217.717 283.378 221.668 287.716 220.234C292.054 218.799 297.018 220.956 300.967 223.387C304.916 225.817 311.868 224.735 314.498 222.847C317.128 220.96 319.119 219.604 324.734 219.874C330.349 220.144 348.18 223.387 354.785 227.435C361.389 231.484 346.201 236.618 338.933 236.618C331.664 236.618 330.349 238.236 324.075 240.666C317.8 243.097 307.559 239.318 300.295 243.366C293.031 247.415 283.784 241.209 271.234 243.366C258.685 245.524 261.327 248.497 254.063 246.34C246.799 244.182 249.437 243.366 238.871 242.827C228.305 242.288 216.745 244.179 215.755 240.666C214.766 237.154 208.165 236.348 204.199 235.266C200.233 234.184 213.785 235.266 213.785 235.266Z" fill="#3F3D56"/>
<path id="Vector_51" d="M209.079 239.703C209.079 239.703 194.445 236.536 191.688 236.771C188.931 237.006 195.87 225.933 200.491 227.284C205.113 228.636 211.282 232.183 214.804 227.167C218.326 222.15 220.3 219.454 224.601 219.723C228.901 219.993 234.837 217.563 239.129 219.723C243.421 221.884 246.431 224.539 252.359 224.425C258.287 224.311 263.898 213.511 268.524 217.832C273.149 222.154 278.672 226.106 283.01 224.671C287.348 223.236 292.312 225.393 296.261 227.824C300.21 230.254 307.162 229.172 309.792 227.284C312.421 225.397 314.413 224.041 320.028 224.311C325.643 224.581 343.474 227.824 350.078 231.872C356.683 235.921 341.495 241.055 334.227 241.055C326.958 241.055 325.643 242.673 319.369 245.103C313.094 247.534 302.853 243.755 295.589 247.804C288.325 251.852 279.077 245.646 266.528 247.804C253.979 249.961 256.621 252.934 249.357 250.777C242.093 248.619 244.731 247.804 234.165 247.264C223.599 246.725 212.038 248.616 211.049 245.103C210.06 241.591 203.459 240.785 199.493 239.703C195.527 238.621 209.079 239.703 209.079 239.703Z" fill="#3F3D56"/>
<path id="Vector_52" opacity="0.2" d="M344.556 228.68C339.267 228.714 332.269 227.988 330.861 227.297C329.787 226.761 329.36 224.845 329.216 223.96H329.06C329.06 223.96 329.356 227.051 330.751 227.763C332.146 228.476 339.157 229.171 344.446 229.146C345.973 229.146 346.497 228.693 346.472 228.037C346.248 228.424 345.681 228.669 344.556 228.68Z" fill="black"/>
<g id="rope 1">
<path id="Vector_53" d="M58.4714 197.384C51.0432 197.384 45 191.532 45 184.338C45 177.144 51.0432 171.291 58.4714 171.291C65.8996 171.291 71.9428 177.144 71.9428 184.338C71.9428 191.532 65.8998 197.384 58.4714 197.384ZM58.4714 174.19C52.6939 174.19 47.9937 178.743 47.9937 184.338C47.9937 189.933 52.6939 194.485 58.4714 194.485C64.2489 194.485 68.9492 189.933 68.9492 184.338C68.9494 178.743 64.2491 174.19 58.4714 174.19Z" fill="#C27749"/>
<path id="Vector_54" d="M58.4714 191.586C52.6939 191.586 47.9937 187.034 47.9937 181.439C47.9937 175.843 52.6939 171.291 58.4714 171.291C64.2489 171.291 68.9492 175.843 68.9492 181.439C68.9494 187.034 64.2491 191.586 58.4714 191.586ZM58.4714 174.19C54.3446 174.19 50.9874 177.442 50.9874 181.438C50.9874 185.435 54.3446 188.686 58.4714 188.686C62.5982 188.686 65.9555 185.435 65.9555 181.438C65.9555 177.442 62.5984 174.19 58.4714 174.19Z" fill="#E18F4E"/>
<path id="Vector_55" d="M76.4334 153.896C65.7038 153.896 56.9747 162.349 56.9747 172.741C56.9747 173.542 57.6449 174.19 58.4714 174.19C59.2979 174.19 59.9681 173.541 59.9681 172.741C59.9681 163.948 67.3543 156.795 76.4332 156.795H88.4079V153.896H76.4334V153.896Z" fill="#A45E43"/>
<path id="Vector_56" d="M115.351 148.097H112.357C111.531 148.097 110.861 148.746 110.861 149.547C110.861 150.348 111.531 150.996 112.357 150.996H115.351C116.177 150.996 116.848 151.647 116.848 152.446C116.848 153.245 116.177 153.896 115.351 153.896H88.4081V156.795H115.351C117.827 156.795 119.842 154.844 119.842 152.446C119.842 150.048 117.827 148.097 115.351 148.097Z" fill="#85453D"/>
<path id="Vector_57" d="M95.8924 176.536H92.8987V203.08L95.8924 206.946V176.536Z" fill="#A45E43"/>
<path id="Vector_58" d="M103.85 214.267L100.383 213.148V203.08H92.8987V212.744C92.8987 213.368 93.3111 213.922 93.9221 214.119L102.903 217.018C103.687 217.271 104.535 216.861 104.796 216.101C105.058 215.342 104.634 214.521 103.85 214.267Z" fill="#60312C"/>
<path id="Vector_59" d="M80.924 176.536H83.9177V203.08L80.924 206.946V176.536Z" fill="#C27749"/>
<path id="Vector_60" d="M72.967 214.267L76.4334 213.148V203.08H83.9175V212.744C83.9175 213.368 83.5051 213.922 82.8941 214.119L73.9135 217.018C73.1296 217.271 72.2815 216.861 72.0201 216.101C71.7588 215.342 72.1828 214.521 72.967 214.267Z" fill="#85453D"/>
<path id="Vector_61" d="M85.4145 165.976L88.4081 183.371C93.3682 183.371 97.3891 179.477 97.3891 174.674L85.4145 165.976Z" fill="#A45E43"/>
<path id="Vector_62" d="M79.4271 174.674C79.4271 179.477 83.4481 183.371 88.4081 183.371V165.976L79.4271 174.674Z" fill="#C27749"/>
<path id="Vector_63" d="M88.4081 174.674H97.3891V168.875L85.4145 163.077L88.4081 174.674Z" fill="#60312C"/>
<path id="Vector_64" d="M88.4081 174.674H79.4271V168.875L88.4081 163.077V174.674Z" fill="#85453D"/>
<path id="Vector_65" d="M94.3955 151.479L88.4081 151.477L82.4208 160.175L88.4081 168.871L94.3955 168.873L97.3891 160.176L94.3955 151.479Z" fill="#FFE2A8"/>
<path id="Vector_66" d="M88.4081 151.477L82.4208 151.479L79.4271 160.176L82.4208 168.873L88.4081 168.871V151.477Z" fill="#FAFAFA"/>
<path id="Vector_67" d="M80.4263 151.48C78.2218 151.48 76.4348 153.21 76.4348 155.345L76.4336 181.155H82.421V151.48H80.4263Z" fill="#A45E43"/>
<path id="Vector_68" d="M96.3913 151.48H94.3955V181.155H100.383V155.345C100.383 153.211 98.5958 151.48 96.3913 151.48Z" fill="#85453D"/>
<path id="Vector_69" d="M88.4081 128.284V145.679C93.3682 145.679 97.3892 141.785 97.3892 136.981C97.3892 132.178 93.3684 128.284 88.4081 128.284Z" fill="#FFB4A9"/>
<path id="Vector_70" d="M91.4018 136.981C91.4018 132.178 90.0614 128.284 88.4081 128.284C83.4481 128.284 79.4271 132.178 79.4271 136.981C79.4271 141.785 83.4481 145.679 88.4081 145.679C90.0616 145.679 91.4018 141.785 91.4018 136.981Z" fill="#FFD9D4"/>
<path id="Vector_71" d="M93.3977 126.149H89.8707L86.4044 130.015L90.8907 133.881H95.8771L93.3977 126.149Z" fill="#85453D"/>
<path id="Vector_72" d="M83.4188 124.418L80.9396 132.15H90.8907L89.8706 124.418H83.4188Z" fill="#A45E43"/>
<path id="Vector_73" d="M103.376 133.599H73.4398C72.613 133.599 71.943 132.95 71.943 132.149C71.943 131.349 72.6132 130.7 73.4398 130.7H103.376C104.203 130.7 104.873 131.349 104.873 132.149C104.873 132.95 104.203 133.599 103.376 133.599Z" fill="#85453D"/>
<g id="money 1">
<g clip-path="url(#clip2)">
<path id="Vector_74" d="M115.558 135.135C115.853 134.927 117.181 132.812 117.181 132.158C116.451 132.277 115.534 132.385 114.476 132.376C113.526 132.367 112.432 132.272 111.77 132.158C112.582 133.248 111.996 134.603 111.77 135.135C112.942 135.135 114.385 135.135 115.558 135.135Z" fill="#985441"/>
<g id="Group_6">
<path id="Vector_75" d="M119.346 140.584C118.729 137.934 115.829 137.134 115.558 135.353C115.51 135.037 115.558 135.135 115.558 135.135H114.205C114.1 134.906 113.393 133.902 113.393 133.03C112.04 133.248 110.417 133.248 109.335 132.812C109.605 134.12 110.237 134.699 110.688 135.135C110.688 135.135 110.735 135.037 110.688 135.353C110.417 137.134 107.516 137.934 106.899 140.584C106.088 144.072 109.686 145.597 113.123 145.597C116.56 145.597 120.158 144.072 119.346 140.584Z" fill="#FFED97"/>
<path id="Vector_76" d="M115.538 135.135H115.559C115.559 135.135 115.543 135.103 115.538 135.135Z" fill="#FFED97"/>
</g>
<g id="Group_7">
<path id="Vector_77" d="M110.688 135.135H110.709C110.704 135.103 110.688 135.135 110.688 135.135Z" fill="#985441"/>
<path id="Vector_78" d="M108.136 140.291C108.499 138.735 109.649 137.816 110.591 136.963C110.797 136.776 111.091 136.67 111.401 136.67H116.286C115.911 136.266 115.633 135.847 115.558 135.353C115.538 135.218 115.535 135.158 115.538 135.135H114.205H111.911C111.916 135.11 112.057 134.958 112.057 134.958C111.684 134.596 111.054 134.021 110.74 133.13C110.224 133.078 109.741 132.975 109.335 132.812C109.605 134.12 110.237 134.699 110.688 135.135C110.688 135.135 110.735 135.037 110.688 135.353C110.417 137.134 107.516 137.934 106.899 140.584C106.088 144.072 109.686 145.597 113.123 145.597C114.175 145.597 115.243 145.454 116.195 145.155C115.595 145.255 114.975 145.305 114.36 145.305C110.923 145.305 107.325 143.779 108.136 140.291Z" fill="#985441"/>
</g>
<path id="Vector_79" d="M119.607 134.797C119.526 134.566 119.228 134.43 118.94 134.495L115.047 135.373L115.449 136.187L119.232 135.335C119.52 135.27 119.688 135.029 119.607 134.797Z" fill="#FD8E61"/>
<path id="Vector_80" d="M119.83 136.046L116.085 135.353L115.832 136.2L119.588 136.896C119.879 136.949 120.169 136.803 120.236 136.568C120.303 136.334 120.121 136.1 119.83 136.046Z" fill="#FD7239"/>
<path id="Vector_81" d="M115.829 136.007H110.146C109.847 136.007 109.605 135.811 109.605 135.571C109.605 135.33 109.847 135.135 110.146 135.135H115.829C116.127 135.135 116.37 135.33 116.37 135.571C116.37 135.811 116.127 136.007 115.829 136.007Z" fill="#FD8E61"/>
<path id="Vector_82" d="M114.746 140.148C114.97 140.148 115.152 140.002 115.152 139.821V139.494C115.152 138.773 114.424 138.186 113.529 138.186V137.641C113.529 137.461 113.347 137.314 113.123 137.314C112.899 137.314 112.717 137.461 112.717 137.641V138.196C111.805 138.277 111.093 138.902 111.093 139.658C111.093 140.469 111.913 141.129 112.92 141.129H113.326C113.885 141.129 114.34 141.496 114.34 141.946C114.34 142.397 113.885 142.764 113.326 142.764H112.717C112.269 142.764 111.905 142.47 111.905 142.11C111.905 141.929 111.723 141.783 111.499 141.783C111.275 141.783 111.093 141.929 111.093 142.11C111.093 142.831 111.822 143.418 112.717 143.418V143.963C112.717 144.143 112.899 144.29 113.123 144.29C113.347 144.29 113.529 144.143 113.529 143.963V143.408C114.44 143.327 115.152 142.702 115.152 141.946C115.152 141.135 114.333 140.475 113.326 140.475H112.92C112.36 140.475 111.905 140.108 111.905 139.658C111.905 139.207 112.36 138.84 112.92 138.84H113.529C113.976 138.84 114.34 139.134 114.34 139.494V139.821C114.34 140.002 114.522 140.148 114.746 140.148Z" fill="white"/>
<path id="Vector_83" d="M115.829 136.442C115.53 136.442 115.287 136.247 115.287 136.007V135.135C115.287 134.894 115.53 134.699 115.829 134.699C116.127 134.699 116.37 134.894 116.37 135.135V136.007C116.37 136.247 116.127 136.442 115.829 136.442Z" fill="#FD8E61"/>
<path id="Vector_84" d="M120.382 136.131C120.27 135.986 120.094 135.885 119.887 135.847L118.797 135.645L119.3 135.531C119.717 135.438 119.968 135.079 119.851 134.742C119.735 134.406 119.289 134.204 118.872 134.298L116.526 134.827C116.465 134.738 116.378 134.661 116.273 134.604C116.749 133.89 117.435 132.679 117.435 132.158C117.435 132.031 117.286 131.932 117.131 131.958C116.2 132.109 115.332 132.179 114.478 132.171C113.601 132.164 112.509 132.076 111.823 131.958C111.611 131.922 111.44 132.113 111.552 132.263C111.72 132.487 111.822 132.725 111.878 132.964C111.017 132.985 110.124 132.901 109.448 132.629C109.266 132.556 109.051 132.684 109.084 132.845C109.297 133.873 109.726 134.475 110.156 134.93H110.146C109.708 134.93 109.352 135.218 109.352 135.571C109.352 135.895 109.653 136.164 110.043 136.205C109.759 136.588 109.353 136.952 108.928 137.333C108.022 138.144 106.995 139.063 106.65 140.546C106.485 141.256 106.49 141.921 106.666 142.521C106.831 143.081 107.144 143.588 107.597 144.028C108.199 144.612 109.026 145.066 110.054 145.375C110.981 145.654 112.042 145.802 113.123 145.802C114.204 145.802 115.265 145.654 116.191 145.375C117.22 145.066 118.046 144.612 118.648 144.028C119.101 143.588 119.415 143.081 119.579 142.521C119.755 141.921 119.761 141.256 119.595 140.546C119.25 139.063 118.224 138.144 117.318 137.333C117.011 137.058 116.718 136.795 116.473 136.529L119.531 137.095C119.855 137.155 120.2 137.041 120.379 136.815C120.543 136.609 120.544 136.338 120.382 136.131ZM119.008 134.692C119.159 134.658 119.321 134.731 119.363 134.852C119.405 134.974 119.314 135.104 119.163 135.138L117.8 135.445C117.789 135.448 117.779 135.451 117.768 135.455L116.623 135.243V135.23L119.008 134.692ZM115.829 134.903C115.987 134.903 116.116 135.007 116.116 135.135V136.007C116.116 136.134 115.987 136.238 115.829 136.238C115.67 136.238 115.541 136.134 115.541 136.007V135.135C115.541 135.007 115.67 134.903 115.829 134.903ZM112.215 132.43C112.897 132.515 113.756 132.574 114.473 132.58C115.254 132.587 116.044 132.532 116.879 132.412C116.726 132.916 116.235 133.813 115.768 134.496C115.445 134.516 115.175 134.692 115.075 134.93H114.371C114.355 134.903 114.338 134.872 114.318 134.839C114.1 134.466 113.647 133.69 113.647 133.03C113.647 132.903 113.498 132.804 113.344 132.829C113.048 132.877 112.724 132.915 112.386 132.94C112.35 132.769 112.295 132.598 112.215 132.43ZM111.588 134.93H110.803C110.798 134.923 110.792 134.916 110.785 134.909C110.36 134.498 109.93 134.023 109.676 133.146C110.31 133.321 111.09 133.398 111.933 133.374L112.435 133.349C112.672 133.331 112.913 133.306 113.155 133.273C113.235 133.905 113.593 134.555 113.811 134.93H112.122H111.588ZM119.097 140.622C119.39 141.883 119.108 142.942 118.258 143.767C117.209 144.785 115.289 145.393 113.123 145.393C110.956 145.393 109.037 144.785 107.988 143.767C107.137 142.942 106.855 141.883 107.149 140.622C107.468 139.251 108.444 138.377 109.305 137.606C109.82 137.145 110.306 136.709 110.618 136.211H111.237C111.377 136.211 111.491 136.119 111.491 136.007C111.491 135.894 111.377 135.802 111.237 135.802H110.146C109.988 135.802 109.859 135.698 109.859 135.571C109.859 135.443 109.988 135.339 110.146 135.339H115.034V135.802H112.446C112.306 135.802 112.193 135.894 112.193 136.007C112.193 136.119 112.306 136.211 112.446 136.211H115.075C115.182 136.464 115.479 136.647 115.829 136.647C115.869 136.647 115.909 136.644 115.947 136.64C116.23 136.97 116.576 137.279 116.941 137.606C117.802 138.377 118.778 139.251 119.097 140.622ZM119.989 136.523C119.953 136.647 119.799 136.725 119.644 136.696L116.607 136.134C116.618 136.093 116.623 136.05 116.623 136.007V135.662L119.773 136.245C119.926 136.273 120.024 136.399 119.989 136.523Z" fill="black"/>
<path id="Vector_85" d="M113.782 137.996V137.641C113.782 137.348 113.486 137.11 113.123 137.11C112.759 137.11 112.463 137.348 112.463 137.641V138.023C111.523 138.192 110.84 138.865 110.84 139.658C110.84 140.582 111.773 141.333 112.92 141.333H113.326C113.745 141.333 114.087 141.608 114.087 141.946C114.087 142.284 113.745 142.559 113.326 142.559H112.717C112.409 142.559 112.159 142.358 112.159 142.11C112.159 141.817 111.863 141.578 111.499 141.578C111.136 141.578 110.84 141.817 110.84 142.11C110.84 142.874 111.548 143.508 112.463 143.608V143.963C112.463 144.256 112.759 144.494 113.123 144.494C113.486 144.494 113.782 144.256 113.782 143.963V143.581C114.722 143.412 115.406 142.739 115.406 141.946C115.406 141.022 114.473 140.271 113.326 140.271H112.92C112.5 140.271 112.159 139.996 112.159 139.658C112.159 139.32 112.5 139.045 112.92 139.045H113.529C113.836 139.045 114.087 139.246 114.087 139.494V139.821C114.087 140.114 114.383 140.352 114.746 140.352C115.11 140.352 115.406 140.114 115.406 139.821V139.494C115.406 138.73 114.698 138.096 113.782 137.996ZM114.898 139.821C114.898 139.889 114.83 139.944 114.746 139.944C114.662 139.944 114.594 139.889 114.594 139.821V139.494C114.594 139.021 114.116 138.636 113.529 138.636H112.92C112.22 138.636 111.651 139.094 111.651 139.658C111.651 140.221 112.22 140.679 112.92 140.679H113.326C114.193 140.679 114.898 141.248 114.898 141.946C114.898 142.593 114.297 143.134 113.501 143.205C113.372 143.217 113.275 143.304 113.275 143.408V143.963C113.275 144.03 113.207 144.085 113.123 144.085C113.039 144.085 112.971 144.03 112.971 143.963V143.418C112.971 143.305 112.857 143.213 112.717 143.213C111.962 143.213 111.347 142.718 111.347 142.11C111.347 142.042 111.415 141.987 111.499 141.987C111.583 141.987 111.651 142.042 111.651 142.11C111.651 142.583 112.129 142.968 112.717 142.968H113.326C114.025 142.968 114.594 142.51 114.594 141.946C114.594 141.383 114.025 140.925 113.326 140.925H112.92C112.053 140.925 111.347 140.356 111.347 139.658C111.347 139.011 111.948 138.47 112.745 138.399C112.873 138.387 112.971 138.3 112.971 138.196V137.641C112.971 137.574 113.039 137.519 113.123 137.519C113.207 137.519 113.275 137.574 113.275 137.641V138.186C113.275 138.299 113.389 138.391 113.529 138.391C114.284 138.391 114.898 138.886 114.898 139.494V139.821Z" fill="black"/>
</g>
</g>
</g>
<g id="Scavanger Hunt" filter="url(#filter0_d)">
<path d="M137.078 162.984C137.102 163.156 137.113 163.324 137.113 163.488C137.121 163.652 137.125 163.812 137.125 163.969C137.125 164.789 136.996 165.559 136.738 166.277C136.488 166.996 136.141 167.656 135.695 168.258C135.25 168.859 134.723 169.398 134.113 169.875C133.512 170.352 132.855 170.754 132.145 171.082C131.434 171.41 130.688 171.66 129.906 171.832C129.133 172.012 128.355 172.102 127.574 172.102C126.84 172.102 126.133 172.07 125.453 172.008C124.773 171.945 124.129 171.914 123.52 171.914C123.051 171.914 122.609 171.945 122.195 172.008C121.781 172.078 121.398 172.215 121.047 172.418C120.758 171.348 120.449 170.379 120.121 169.512C119.801 168.637 119.504 167.891 119.23 167.273C118.91 166.555 118.59 165.91 118.27 165.34C119.199 165.824 120.129 166.207 121.059 166.488C121.996 166.77 122.887 166.988 123.73 167.145C124.574 167.293 125.344 167.391 126.039 167.438C126.734 167.477 127.312 167.496 127.773 167.496C128.289 167.496 128.809 167.465 129.332 167.402C129.855 167.34 130.383 167.242 130.914 167.109C130.781 166.93 130.645 166.77 130.504 166.629C130.363 166.488 130.234 166.375 130.117 166.289C129.977 166.188 129.84 166.102 129.707 166.031C129.48 165.922 129.172 165.816 128.781 165.715C128.398 165.605 127.969 165.488 127.492 165.363C127.023 165.238 126.52 165.102 125.98 164.953C125.449 164.805 124.918 164.633 124.387 164.438C123.863 164.242 123.359 164.02 122.875 163.77C122.398 163.52 121.973 163.234 121.598 162.914C121.301 162.656 121.055 162.379 120.859 162.082C120.664 161.777 120.508 161.469 120.391 161.156C120.281 160.836 120.199 160.52 120.145 160.207C120.098 159.887 120.07 159.582 120.062 159.293C119.789 159.402 119.543 159.508 119.324 159.609C119.105 159.711 118.918 159.797 118.762 159.867L118.293 160.102C118.574 159.258 118.965 158.512 119.465 157.863C119.973 157.215 120.539 156.652 121.164 156.176C121.797 155.699 122.469 155.297 123.18 154.969C123.898 154.641 124.609 154.371 125.312 154.16C126.953 153.668 128.73 153.387 130.645 153.316C131.238 153.316 131.871 153.293 132.543 153.246C133.121 153.207 133.781 153.148 134.523 153.07C135.266 152.984 136.047 152.863 136.867 152.707C136.617 153.082 136.414 153.488 136.258 153.926C136.109 154.363 135.992 154.805 135.906 155.25C135.82 155.695 135.762 156.137 135.73 156.574C135.699 157.004 135.684 157.398 135.684 157.758C135.684 158 135.688 158.219 135.695 158.414C135.703 158.609 135.715 158.777 135.73 158.918C135.746 159.082 135.766 159.23 135.789 159.363C134.422 158.746 133.09 158.316 131.793 158.074C130.496 157.824 129.242 157.699 128.031 157.699C127.617 157.699 127.223 157.715 126.848 157.746C126.473 157.77 126.098 157.805 125.723 157.852C125.809 158.227 125.961 158.539 126.18 158.789C126.406 159.039 126.633 159.242 126.859 159.398C127.125 159.578 127.41 159.719 127.715 159.82C128.309 160.008 128.953 160.238 129.648 160.512C130.344 160.777 131.039 161.109 131.734 161.508C132.43 161.906 133.098 162.375 133.738 162.914C134.379 163.453 134.941 164.078 135.426 164.789C135.723 164.539 136.012 164.266 136.293 163.969C136.574 163.664 136.836 163.336 137.078 162.984ZM155.16 166.371C155.074 167.004 154.891 167.582 154.609 168.105C154.328 168.621 153.98 169.086 153.566 169.5C153.152 169.906 152.691 170.262 152.184 170.566C151.676 170.871 151.148 171.121 150.602 171.316C150.055 171.52 149.504 171.668 148.949 171.762C148.402 171.863 147.883 171.914 147.391 171.914C146.125 171.914 144.965 171.75 143.91 171.422C142.855 171.102 141.922 170.617 141.109 169.969C140.305 169.32 139.633 168.512 139.094 167.543C138.555 166.566 138.168 165.43 137.934 164.133C138.113 164.195 138.289 164.25 138.461 164.297C138.641 164.344 138.816 164.387 138.988 164.426C139.129 163.168 139.508 162.062 140.125 161.109C140.75 160.156 141.555 159.363 142.539 158.73C143.523 158.09 144.66 157.609 145.949 157.289C147.238 156.961 148.629 156.797 150.121 156.797C150.809 156.797 151.543 156.828 152.324 156.891C153.105 156.953 153.973 157.055 154.926 157.195C154.73 157.758 154.59 158.324 154.504 158.895C154.418 159.457 154.375 160.027 154.375 160.605C154.375 160.895 154.387 161.207 154.41 161.543C154.441 161.879 154.5 162.27 154.586 162.715C154.086 162.379 153.609 162.098 153.156 161.871C152.703 161.645 152.27 161.465 151.855 161.332C151.449 161.199 151.062 161.105 150.695 161.051C150.328 160.996 149.984 160.969 149.664 160.969C149.062 160.969 148.441 161.047 147.801 161.203C147.168 161.352 146.562 161.574 145.984 161.871C145.414 162.168 144.898 162.531 144.438 162.961C143.984 163.391 143.641 163.887 143.406 164.449C143.656 164.41 143.91 164.363 144.168 164.309C144.434 164.246 144.699 164.172 144.965 164.086C144.926 164.258 144.898 164.418 144.883 164.566C144.875 164.715 144.871 164.844 144.871 164.953C144.871 165.539 144.977 166.062 145.188 166.523C145.406 166.984 145.699 167.371 146.066 167.684C146.441 167.996 146.879 168.234 147.379 168.398C147.887 168.562 148.434 168.645 149.02 168.645C149.355 168.645 149.742 168.617 150.18 168.562C150.617 168.508 151.094 168.398 151.609 168.234C152.133 168.07 152.691 167.84 153.285 167.543C153.879 167.246 154.504 166.855 155.16 166.371ZM174.812 166.582C174.484 166.738 174.16 166.891 173.84 167.039C173.52 167.18 173.195 167.316 172.867 167.449C173.586 168.746 174.379 169.969 175.246 171.117C174.035 171.117 172.879 171.234 171.777 171.469C170.676 171.711 169.559 172.082 168.426 172.582C168.512 172.379 168.562 172.168 168.578 171.949C168.602 171.738 168.613 171.52 168.613 171.293C168.613 170.918 168.578 170.508 168.508 170.062C168.438 169.609 168.332 169.137 168.191 168.645C167.863 168.691 167.535 168.727 167.207 168.75C166.879 168.766 166.559 168.773 166.246 168.773C165.691 168.773 165.145 168.742 164.605 168.68C164.074 168.609 163.562 168.496 163.07 168.34C162.938 168.918 162.816 169.512 162.707 170.121C162.598 170.723 162.488 171.344 162.379 171.984C161.98 171.781 161.543 171.598 161.066 171.434C160.66 171.301 160.188 171.176 159.648 171.059C159.117 170.941 158.555 170.883 157.961 170.883C157.453 170.883 156.914 170.926 156.344 171.012C155.773 171.098 155.145 171.238 154.457 171.434C154.988 170.91 155.484 170.379 155.945 169.84C156.414 169.293 156.84 168.77 157.223 168.27C157.613 167.762 157.957 167.289 158.254 166.852C158.559 166.406 158.812 166.02 159.016 165.691C158.789 165.418 158.578 165.125 158.383 164.812C158.195 164.5 158.016 164.164 157.844 163.805C158.156 163.961 158.465 164.105 158.77 164.238C159.074 164.363 159.375 164.48 159.672 164.59C160.031 163.957 160.41 163.32 160.809 162.68C161.207 162.039 161.633 161.414 162.086 160.805C161.992 160.578 161.871 160.32 161.723 160.031C161.582 159.742 161.426 159.445 161.254 159.141C161.09 158.828 160.914 158.52 160.727 158.215C160.539 157.91 160.355 157.629 160.176 157.371C160.926 157.574 161.676 157.734 162.426 157.852C163.184 157.969 163.938 158.047 164.688 158.086C165.117 157.734 165.566 157.414 166.035 157.125C166.504 156.828 166.996 156.566 167.512 156.34C167.348 156.613 167.188 156.895 167.031 157.184C166.875 157.473 166.723 157.766 166.574 158.062C166.965 158.023 167.359 157.98 167.758 157.934C168.156 157.879 168.57 157.809 169 157.723C169.289 158.777 169.605 159.805 169.949 160.805C170.293 161.805 170.664 162.789 171.062 163.758C171.406 163.562 171.746 163.363 172.082 163.16C172.426 162.949 172.766 162.723 173.102 162.48C173.344 163.301 173.605 164.055 173.887 164.742C174.168 165.43 174.477 166.043 174.812 166.582ZM166.961 165.34C166.688 164.73 166.387 164.117 166.059 163.5C165.738 162.875 165.391 162.246 165.016 161.613C164.555 162.848 164.133 164.16 163.75 165.551C163.891 165.566 164.027 165.574 164.16 165.574C164.301 165.574 164.441 165.574 164.582 165.574C164.98 165.574 165.375 165.559 165.766 165.527C166.164 165.488 166.562 165.426 166.961 165.34ZM193.281 157.699C191.773 159.621 190.5 161.676 189.461 163.863C188.43 166.051 187.695 168.359 187.258 170.789C186.852 170.734 186.473 170.699 186.121 170.684C185.77 170.668 185.43 170.66 185.102 170.66C184.469 170.66 183.801 170.711 183.098 170.812C182.402 170.906 181.68 171.047 180.93 171.234C180.672 170.164 180.344 169.043 179.945 167.871C179.547 166.699 179.082 165.539 178.551 164.391C178.027 163.234 177.441 162.113 176.793 161.027C176.145 159.941 175.441 158.945 174.684 158.039C175.129 158.086 175.562 158.121 175.984 158.145C176.414 158.168 176.82 158.18 177.203 158.18C178.031 158.18 178.867 158.109 179.711 157.969C180.562 157.82 181.391 157.562 182.195 157.195C182.266 157.984 182.344 158.754 182.43 159.504C182.523 160.254 182.641 160.988 182.781 161.707C182.922 162.418 183.09 163.117 183.285 163.805C183.488 164.484 183.727 165.156 184 165.82C184.281 165.195 184.535 164.539 184.762 163.852C184.988 163.164 185.184 162.465 185.348 161.754C185.512 161.043 185.637 160.332 185.723 159.621C185.809 158.91 185.852 158.223 185.852 157.559C186.602 157.668 187.312 157.754 187.984 157.816C188.656 157.871 189.297 157.898 189.906 157.898C190.422 157.898 190.953 157.879 191.5 157.84C192.055 157.801 192.648 157.754 193.281 157.699ZM211.375 166.582C211.047 166.738 210.723 166.891 210.402 167.039C210.082 167.18 209.758 167.316 209.43 167.449C210.148 168.746 210.941 169.969 211.809 171.117C210.598 171.117 209.441 171.234 208.34 171.469C207.238 171.711 206.121 172.082 204.988 172.582C205.074 172.379 205.125 172.168 205.141 171.949C205.164 171.738 205.176 171.52 205.176 171.293C205.176 170.918 205.141 170.508 205.07 170.062C205 169.609 204.895 169.137 204.754 168.645C204.426 168.691 204.098 168.727 203.77 168.75C203.441 168.766 203.121 168.773 202.809 168.773C202.254 168.773 201.707 168.742 201.168 168.68C200.637 168.609 200.125 168.496 199.633 168.34C199.5 168.918 199.379 169.512 199.27 170.121C199.16 170.723 199.051 171.344 198.941 171.984C198.543 171.781 198.105 171.598 197.629 171.434C197.223 171.301 196.75 171.176 196.211 171.059C195.68 170.941 195.117 170.883 194.523 170.883C194.016 170.883 193.477 170.926 192.906 171.012C192.336 171.098 191.707 171.238 191.02 171.434C191.551 170.91 192.047 170.379 192.508 169.84C192.977 169.293 193.402 168.77 193.785 168.27C194.176 167.762 194.52 167.289 194.816 166.852C195.121 166.406 195.375 166.02 195.578 165.691C195.352 165.418 195.141 165.125 194.945 164.812C194.758 164.5 194.578 164.164 194.406 163.805C194.719 163.961 195.027 164.105 195.332 164.238C195.637 164.363 195.938 164.48 196.234 164.59C196.594 163.957 196.973 163.32 197.371 162.68C197.77 162.039 198.195 161.414 198.648 160.805C198.555 160.578 198.434 160.32 198.285 160.031C198.145 159.742 197.988 159.445 197.816 159.141C197.652 158.828 197.477 158.52 197.289 158.215C197.102 157.91 196.918 157.629 196.738 157.371C197.488 157.574 198.238 157.734 198.988 157.852C199.746 157.969 200.5 158.047 201.25 158.086C201.68 157.734 202.129 157.414 202.598 157.125C203.066 156.828 203.559 156.566 204.074 156.34C203.91 156.613 203.75 156.895 203.594 157.184C203.438 157.473 203.285 157.766 203.137 158.062C203.527 158.023 203.922 157.98 204.32 157.934C204.719 157.879 205.133 157.809 205.562 157.723C205.852 158.777 206.168 159.805 206.512 160.805C206.855 161.805 207.227 162.789 207.625 163.758C207.969 163.562 208.309 163.363 208.645 163.16C208.988 162.949 209.328 162.723 209.664 162.48C209.906 163.301 210.168 164.055 210.449 164.742C210.73 165.43 211.039 166.043 211.375 166.582ZM203.523 165.34C203.25 164.73 202.949 164.117 202.621 163.5C202.301 162.875 201.953 162.246 201.578 161.613C201.117 162.848 200.695 164.16 200.312 165.551C200.453 165.566 200.59 165.574 200.723 165.574C200.863 165.574 201.004 165.574 201.145 165.574C201.543 165.574 201.938 165.559 202.328 165.527C202.727 165.488 203.125 165.426 203.523 165.34ZM232.117 158.086C231.148 159.188 230.414 160.379 229.914 161.66C229.414 162.934 229.164 164.312 229.164 165.797C229.164 166.578 229.23 167.367 229.363 168.164C229.496 168.961 229.703 169.77 229.984 170.59C229.391 170.605 228.773 170.66 228.133 170.754C227.586 170.84 226.98 170.965 226.316 171.129C225.652 171.301 225 171.539 224.359 171.844C223.867 170.562 223.262 169.34 222.543 168.176C221.824 167.012 221.008 165.906 220.094 164.859C220.188 167.07 219.922 169.355 219.297 171.715C217.875 171.27 216.57 171.047 215.383 171.047C215 171.047 214.582 171.07 214.129 171.117C213.676 171.164 213.191 171.23 212.676 171.316C213.652 170.215 214.395 169.023 214.902 167.742C215.418 166.461 215.676 165.059 215.676 163.535C215.676 163.043 215.645 162.535 215.582 162.012C215.52 161.48 215.422 160.926 215.289 160.348C214.805 159.98 214.316 159.629 213.824 159.293C213.34 158.949 212.844 158.613 212.336 158.285C213.055 158.348 213.715 158.367 214.316 158.344C214.926 158.32 215.516 158.254 216.086 158.145C216.664 158.027 217.246 157.867 217.832 157.664C218.426 157.453 219.074 157.188 219.777 156.867L224.746 164.977C224.699 164.602 224.668 164.227 224.652 163.852C224.637 163.477 224.629 163.105 224.629 162.738C224.629 161.598 224.762 160.48 225.027 159.387C225.293 158.285 225.727 157.195 226.328 156.117C227.234 156.711 228.16 157.172 229.105 157.5C230.051 157.82 231.055 158.016 232.117 158.086ZM249.332 166.371C249.246 166.957 249.109 167.484 248.922 167.953C248.742 168.422 248.52 168.844 248.254 169.219C248.254 169.609 248.258 170.031 248.266 170.484C248.281 170.93 248.309 171.316 248.348 171.645L245.547 172.031L245.16 171.387C244.551 171.59 243.938 171.727 243.32 171.797C242.703 171.875 242.117 171.914 241.562 171.914C240.297 171.914 239.137 171.75 238.082 171.422C237.027 171.102 236.094 170.617 235.281 169.969C234.477 169.32 233.805 168.512 233.266 167.543C232.727 166.566 232.34 165.43 232.105 164.133C232.285 164.195 232.461 164.25 232.633 164.297C232.812 164.344 232.988 164.387 233.16 164.426C233.301 163.168 233.68 162.062 234.297 161.109C234.922 160.156 235.727 159.363 236.711 158.73C237.695 158.09 238.832 157.609 240.121 157.289C241.41 156.961 242.801 156.797 244.293 156.797C244.98 156.797 245.715 156.828 246.496 156.891C247.277 156.953 248.145 157.055 249.098 157.195C248.902 157.758 248.762 158.324 248.676 158.895C248.59 159.457 248.547 160.027 248.547 160.605C248.547 160.895 248.559 161.207 248.582 161.543C248.613 161.879 248.672 162.27 248.758 162.715C248.258 162.379 247.781 162.098 247.328 161.871C246.875 161.645 246.441 161.465 246.027 161.332C245.621 161.199 245.234 161.105 244.867 161.051C244.5 160.996 244.156 160.969 243.836 160.969C243.219 160.969 242.59 161.047 241.949 161.203C241.309 161.352 240.703 161.574 240.133 161.871C239.562 162.168 239.051 162.531 238.598 162.961C238.152 163.391 237.812 163.887 237.578 164.449C237.828 164.41 238.082 164.363 238.34 164.309C238.605 164.246 238.871 164.172 239.137 164.086C239.098 164.258 239.07 164.418 239.055 164.566C239.047 164.715 239.043 164.844 239.043 164.953C239.043 165.578 239.152 166.121 239.371 166.582C239.598 167.043 239.906 167.426 240.297 167.73C240.695 168.035 241.16 168.266 241.691 168.422C242.223 168.57 242.793 168.645 243.402 168.645H243.859C243.57 167.926 243.332 167.207 243.145 166.488C242.965 165.77 242.812 165 242.688 164.18C243.102 164.258 243.488 164.32 243.848 164.367C244.207 164.406 244.531 164.426 244.82 164.426C245.484 164.426 246.156 164.348 246.836 164.191C247.523 164.027 248.254 163.809 249.027 163.535C248.855 164.137 248.711 164.727 248.594 165.305C248.477 165.883 248.387 166.453 248.324 167.016L249.332 166.371ZM258.109 170.953C257.305 170.953 256.582 170.957 255.941 170.965C255.301 170.965 254.703 170.98 254.148 171.012C253.602 171.051 253.078 171.105 252.578 171.176C252.086 171.254 251.578 171.363 251.055 171.504C251.539 170.027 251.902 168.57 252.145 167.133C252.395 165.688 252.52 164.242 252.52 162.797C252.52 161.492 252.414 160.172 252.203 158.836C251.719 158.766 251.238 158.707 250.762 158.66H250.715L252.109 158.309L251.863 157.125C252.324 157.258 252.777 157.379 253.223 157.488C253.668 157.598 254.121 157.695 254.582 157.781C255.895 157.539 257.215 157.355 258.543 157.23C259.879 157.098 261.23 157.031 262.598 157.031C263.199 157.031 263.801 157.047 264.402 157.078C265.012 157.109 265.664 157.148 266.359 157.195C266.195 157.781 266.07 158.367 265.984 158.953C265.898 159.539 265.855 160.141 265.855 160.758C265.855 160.945 265.859 161.164 265.867 161.414C265.883 161.656 265.91 161.922 265.949 162.211C264.613 161.703 263.277 161.25 261.941 160.852C260.605 160.445 259.246 160.094 257.863 159.797C257.801 160.328 257.75 160.855 257.711 161.379C257.68 161.902 257.652 162.43 257.629 162.961C258.293 162.836 258.969 162.746 259.656 162.691C260.352 162.629 261.074 162.59 261.824 162.574C261.754 162.863 261.695 163.152 261.648 163.441C261.609 163.73 261.59 164.027 261.59 164.332C261.59 164.785 261.66 165.297 261.801 165.867C261.098 165.578 260.402 165.312 259.715 165.07C259.027 164.82 258.332 164.598 257.629 164.402C257.629 165.035 257.641 165.695 257.664 166.383C257.688 167.062 257.73 167.746 257.793 168.434C259.129 168.254 260.473 168.016 261.824 167.719C263.176 167.414 264.551 167.043 265.949 166.605C265.855 167.113 265.781 167.609 265.727 168.094C265.672 168.57 265.645 169.027 265.645 169.465C265.645 170.293 265.738 171.141 265.926 172.008C264.598 171.711 263.285 171.457 261.988 171.246C260.699 171.035 259.391 170.863 258.062 170.73L258.109 170.953ZM286.07 170.379C284.93 170.465 283.82 170.664 282.742 170.977C281.672 171.281 280.582 171.703 279.473 172.242C279.301 170.562 278.891 169.012 278.242 167.59C277.93 167.66 277.613 167.715 277.293 167.754C276.973 167.793 276.641 167.812 276.297 167.812C276.164 167.812 276.031 167.812 275.898 167.812C275.773 167.812 275.645 167.805 275.512 167.789C275.535 169 275.582 170.207 275.652 171.41C275.402 171.371 275.152 171.344 274.902 171.328C274.652 171.32 274.414 171.316 274.188 171.316C273.414 171.316 272.566 171.402 271.645 171.574C270.723 171.754 269.73 172.02 268.668 172.371C269.066 171.293 269.406 170.223 269.688 169.16C269.977 168.098 270.203 167.023 270.367 165.938C269.836 165.586 269.379 165.242 268.996 164.906C268.621 164.57 268.336 164.289 268.141 164.062C268.523 164.172 268.918 164.273 269.324 164.367C269.738 164.461 270.152 164.543 270.566 164.613C270.66 163.723 270.707 162.82 270.707 161.906V161.473C270.285 161.605 269.867 161.746 269.453 161.895C269.039 162.043 268.625 162.207 268.211 162.387C268.453 161.605 268.574 160.883 268.574 160.219C268.574 159.664 268.504 159.141 268.363 158.648C268.223 158.148 268.02 157.68 267.754 157.242C269.434 157.008 270.918 156.852 272.207 156.773C273.504 156.688 274.66 156.645 275.676 156.645C276.145 156.645 276.684 156.656 277.293 156.68C277.902 156.695 278.527 156.742 279.168 156.82C279.809 156.898 280.445 157.012 281.078 157.16C281.719 157.309 282.305 157.512 282.836 157.77C283.367 158.027 283.82 158.352 284.195 158.742C284.578 159.133 284.836 159.602 284.969 160.148C285.148 160.062 285.324 159.977 285.496 159.891C285.668 159.805 285.844 159.707 286.023 159.598C285.93 160.16 285.773 160.723 285.555 161.285C285.336 161.84 285.062 162.379 284.734 162.902C284.414 163.426 284.039 163.922 283.609 164.391C283.188 164.859 282.727 165.293 282.227 165.691C283.352 167.473 284.633 169.035 286.07 170.379ZM278.125 160.219C277.812 160.219 277.441 160.238 277.012 160.277C276.582 160.309 276.113 160.348 275.605 160.395C275.582 161.145 275.559 161.895 275.535 162.645C275.52 163.387 275.512 164.125 275.512 164.859C275.98 164.789 276.422 164.676 276.836 164.52C277.25 164.355 277.617 164.145 277.938 163.887C278.258 163.629 278.52 163.316 278.723 162.949C278.934 162.574 279.07 162.137 279.133 161.637C279.43 161.59 279.73 161.543 280.035 161.496C280.348 161.449 280.664 161.395 280.984 161.332C280.969 161.332 280.961 161.328 280.961 161.32V161.309H280.984C280.828 161.137 280.664 160.984 280.492 160.852C280.328 160.711 280.137 160.594 279.918 160.5C279.699 160.406 279.445 160.336 279.156 160.289C278.867 160.242 278.523 160.219 278.125 160.219ZM125.828 203.434C125.188 203.277 124.562 203.16 123.953 203.082C123.352 203.012 122.742 202.977 122.125 202.977C121.523 202.977 120.914 203.012 120.297 203.082C119.688 203.16 119.051 203.277 118.387 203.434C119.059 201.73 119.574 200.004 119.934 198.254C120.293 196.496 120.473 194.688 120.473 192.828C120.473 191.703 120.402 190.574 120.262 189.441C120.129 188.301 119.918 187.133 119.629 185.938C120.145 186.086 120.648 186.223 121.141 186.348C121.641 186.465 122.141 186.57 122.641 186.664C123.148 186.75 123.664 186.816 124.188 186.863C124.711 186.91 125.258 186.938 125.828 186.945C125.875 188.211 125.91 189.465 125.934 190.707C125.957 191.949 125.977 193.199 125.992 194.457C126.766 194.387 127.523 194.305 128.266 194.211C129.008 194.109 129.754 194 130.504 193.883C130.598 192.445 130.75 191.012 130.961 189.582C131.172 188.145 131.461 186.688 131.828 185.211C132.273 185.398 132.703 185.559 133.117 185.691C133.539 185.824 133.965 185.938 134.395 186.031C134.824 186.117 135.27 186.18 135.73 186.219C136.191 186.258 136.688 186.277 137.219 186.277C137.328 186.277 137.441 186.273 137.559 186.266C137.676 186.25 137.797 186.242 137.922 186.242C137.406 187.32 136.977 188.406 136.633 189.5C136.289 190.594 136.047 191.711 135.906 192.852C136.305 192.766 136.703 192.672 137.102 192.57C137.508 192.461 137.918 192.352 138.332 192.242C138.246 192.805 138.184 193.355 138.145 193.895C138.105 194.434 138.086 194.98 138.086 195.535C138.086 196.09 138.105 196.648 138.145 197.211C138.184 197.766 138.246 198.32 138.332 198.875C137.91 198.859 137.5 198.84 137.102 198.816C136.703 198.793 136.305 198.762 135.906 198.723C136 199.449 136.125 200.172 136.281 200.891C136.445 201.609 136.648 202.344 136.891 203.094C136.602 203.07 136.328 203.051 136.07 203.035C135.812 203.027 135.559 203.023 135.309 203.023C134.895 203.023 134.496 203.039 134.113 203.07C133.73 203.109 133.352 203.16 132.977 203.223C132.602 203.293 132.223 203.375 131.84 203.469C131.465 203.57 131.074 203.688 130.668 203.82C130.574 202.805 130.504 201.801 130.457 200.809C130.41 199.809 130.387 198.797 130.387 197.773C129.637 197.578 128.898 197.363 128.172 197.129C127.445 196.887 126.719 196.629 125.992 196.355C125.977 197.535 125.957 198.715 125.934 199.895C125.91 201.066 125.875 202.246 125.828 203.434ZM157.785 189.078C157.785 191.469 157.555 193.574 157.094 195.395C156.641 197.207 155.961 198.727 155.055 199.953C154.156 201.172 153.039 202.094 151.703 202.719C150.367 203.336 148.82 203.645 147.062 203.645C146.602 203.645 146.133 203.617 145.656 203.562C145.18 203.508 144.695 203.426 144.203 203.316C144.297 203.27 144.398 203.207 144.508 203.129C144.602 203.066 144.707 202.992 144.824 202.906C144.949 202.812 145.078 202.707 145.211 202.59C144.391 202.332 143.664 201.918 143.031 201.348C142.398 200.77 141.867 200.07 141.438 199.25C141.016 198.422 140.695 197.488 140.477 196.449C140.258 195.402 140.148 194.281 140.148 193.086C140.148 192.797 140.152 192.535 140.16 192.301C140.176 192.066 140.195 191.832 140.219 191.598C140.242 191.363 140.27 191.121 140.301 190.871C140.34 190.613 140.383 190.32 140.43 189.992C140.617 190.008 140.816 190.023 141.027 190.039C141.207 190.055 141.414 190.066 141.648 190.074C141.883 190.082 142.125 190.086 142.375 190.086C142.703 190.086 143.062 190.074 143.453 190.051C143.844 190.027 144.254 189.988 144.684 189.934C145.121 189.871 145.57 189.785 146.031 189.676C146.5 189.566 146.973 189.422 147.449 189.242C147.16 189.906 146.906 190.516 146.688 191.07C146.469 191.617 146.285 192.141 146.137 192.641C145.996 193.133 145.891 193.613 145.82 194.082C145.75 194.543 145.715 195.012 145.715 195.488C145.715 196.293 145.812 197.043 146.008 197.738C146.203 198.426 146.504 199.059 146.91 199.637L146.969 199.285C147.516 199.426 147.945 199.496 148.258 199.496C148.727 199.496 149.145 199.41 149.512 199.238C149.879 199.066 150.199 198.84 150.473 198.559C150.746 198.27 150.98 197.938 151.176 197.562C151.371 197.188 151.527 196.797 151.645 196.391C151.762 195.984 151.848 195.578 151.902 195.172C151.957 194.758 151.984 194.367 151.984 194C151.984 193.68 151.941 193.316 151.855 192.91C151.777 192.496 151.668 192.066 151.527 191.621C151.387 191.168 151.223 190.715 151.035 190.262C150.855 189.801 150.66 189.359 150.449 188.938C150.77 189.031 151.121 189.117 151.504 189.195C151.887 189.273 152.277 189.344 152.676 189.406C153.074 189.461 153.473 189.504 153.871 189.535C154.277 189.566 154.664 189.582 155.031 189.582C155.492 189.582 155.953 189.547 156.414 189.477C156.883 189.406 157.34 189.273 157.785 189.078ZM178.445 190.086C177.477 191.188 176.742 192.379 176.242 193.66C175.742 194.934 175.492 196.312 175.492 197.797C175.492 198.578 175.559 199.367 175.691 200.164C175.824 200.961 176.031 201.77 176.312 202.59C175.719 202.605 175.102 202.66 174.461 202.754C173.914 202.84 173.309 202.965 172.645 203.129C171.98 203.301 171.328 203.539 170.688 203.844C170.195 202.562 169.59 201.34 168.871 200.176C168.152 199.012 167.336 197.906 166.422 196.859C166.516 199.07 166.25 201.355 165.625 203.715C164.203 203.27 162.898 203.047 161.711 203.047C161.328 203.047 160.91 203.07 160.457 203.117C160.004 203.164 159.52 203.23 159.004 203.316C159.98 202.215 160.723 201.023 161.23 199.742C161.746 198.461 162.004 197.059 162.004 195.535C162.004 195.043 161.973 194.535 161.91 194.012C161.848 193.48 161.75 192.926 161.617 192.348C161.133 191.98 160.645 191.629 160.152 191.293C159.668 190.949 159.172 190.613 158.664 190.285C159.383 190.348 160.043 190.367 160.645 190.344C161.254 190.32 161.844 190.254 162.414 190.145C162.992 190.027 163.574 189.867 164.16 189.664C164.754 189.453 165.402 189.188 166.105 188.867L171.074 196.977C171.027 196.602 170.996 196.227 170.98 195.852C170.965 195.477 170.957 195.105 170.957 194.738C170.957 193.598 171.09 192.48 171.355 191.387C171.621 190.285 172.055 189.195 172.656 188.117C173.562 188.711 174.488 189.172 175.434 189.5C176.379 189.82 177.383 190.016 178.445 190.086ZM189.988 202.953C189.801 202.953 189.645 202.953 189.52 202.953C189.402 202.945 189.305 202.941 189.227 202.941C189.156 202.941 189.102 202.941 189.062 202.941C189.023 202.934 188.988 202.93 188.957 202.93C188.082 202.93 187.199 202.992 186.309 203.117C185.418 203.242 184.512 203.449 183.59 203.738C183.574 203.559 183.566 203.359 183.566 203.141C183.566 202.922 183.566 202.723 183.566 202.543C183.566 200.777 183.703 199.082 183.977 197.457C184.25 195.824 184.711 194.23 185.359 192.676C184.242 192.801 183.113 193 181.973 193.273C180.832 193.539 179.707 193.895 178.598 194.34C178.738 193.777 178.844 193.246 178.914 192.746C178.992 192.246 179.031 191.762 179.031 191.293C179.031 190.855 179 190.414 178.938 189.969C178.883 189.516 178.801 189.059 178.691 188.598C180.051 188.863 181.418 189.086 182.793 189.266C184.176 189.445 185.559 189.559 186.941 189.605C187.16 189.27 187.383 188.93 187.609 188.586C187.844 188.242 188.094 187.902 188.359 187.566C188.32 187.918 188.289 188.262 188.266 188.598C188.25 188.934 188.234 189.277 188.219 189.629H188.289C189.172 189.629 190.059 189.598 190.949 189.535C191.848 189.473 192.809 189.367 193.832 189.219C193.676 189.492 193.543 189.781 193.434 190.086C193.332 190.391 193.281 190.766 193.281 191.211C193.281 191.461 193.305 191.742 193.352 192.055C193.406 192.359 193.496 192.711 193.621 193.109C192.762 192.914 191.875 192.766 190.961 192.664C190.047 192.562 189.125 192.512 188.195 192.512C188.242 194.285 188.406 196.039 188.688 197.773C188.977 199.5 189.41 201.227 189.988 202.953Z" fill="#3F3D56"/>
</g>
</g>
</g>
<defs>
<filter id="filter0_d" x="114.27" y="152.707" width="175.801" height="59.1367" filterUnits="userSpaceOnUse" color-interpolation-filters="sRGB">
<feFlood flood-opacity="0" result="BackgroundImageFix"/>
<feColorMatrix in="SourceAlpha" type="matrix" values="0 0 0 0 0 0 0 0 0 0 0 0 0 0 0 0 0 0 127 0"/>
<feOffset dy="4"/>
<feGaussianBlur stdDeviation="2"/>
<feColorMatrix type="matrix" values="0 0 0 0 0 0 0 0 0 0 0 0 0 0 0 0 0 0 0.25 0"/>
<feBlend mode="normal" in2="BackgroundImageFix" result="effect1_dropShadow"/>
<feBlend mode="normal" in="SourceGraphic" in2="effect1_dropShadow" result="shape"/>
</filter>
<clipPath id="clip0">
<rect width="361" height="251" fill="white"/>
</clipPath>
<clipPath id="clip1">
<rect width="273.22" height="218.061" transform="matrix(0.945048 0.32693 -0.380173 0.924915 122.901 0)" fill="white"/>
</clipPath>
<clipPath id="clip2">
<rect x="104.921" y="131.953" width="17.1905" height="13.8483" fill="white"/>
</clipPath>
</defs>
</svg>
