<svg width="209" height="256" viewBox="0 0 209 256" fill="none" xmlns="http://www.w3.org/2000/svg">
<rect width="209" height="256" fill="#E5E5E5"/>
<g id="walking2 1">
<g clip-path="url(#clip0)">
<path id="Vector" d="M70.2834 115.055C70.2834 115.055 79.9559 117.962 78.7672 114.294C77.5784 110.626 71.2488 106.961 70.0879 107.726C68.927 108.492 70.2834 115.055 70.2834 115.055Z" fill="#FFC1C7"/>
<path id="Vector_2" opacity="0.1" d="M70.2834 115.055C70.2834 115.055 79.9559 117.962 78.7672 114.294C77.5784 110.626 71.2488 106.961 70.0879 107.726C68.927 108.492 70.2834 115.055 70.2834 115.055Z" fill="black"/>
<path id="backhand" d="M59.1906 74.0362C59.1906 74.0362 65.4388 77.2246 62.5433 87.3695C62.5433 87.3695 57.8191 105.051 59.8002 106.21C61.7813 107.369 70.9251 106.79 70.9251 106.79C70.9251 106.79 73.0586 116.645 71.9918 116.935C70.9251 117.224 53.8568 123.891 52.028 117.514C50.1993 111.138 52.028 83.6014 52.028 83.6014C52.028 83.6014 54.6188 69.9783 59.1906 74.0362Z" fill="#6C63FF"/>
<g id="neck">
<path id="Vector_3" d="M64.8292 58.0942C64.8292 58.0942 59.9525 68.8188 58.7334 69.1086C57.5142 69.3985 62.6956 81.8622 62.6956 81.8622C62.6956 81.8622 65.5911 72.5869 67.5723 71.7173C69.5534 70.8477 64.8292 58.0942 64.8292 58.0942Z" fill="#FFC1C7"/>
</g>
<path id="Vector_4" d="M57.8192 68.8188L58.5812 66.7898C58.5812 66.7898 63.8318 75.6927 64.0258 78.0528C64.1566 79.3772 64.0072 80.7462 63.6102 81.8622L60.5623 79.2535L59.0384 73.4564L57.8192 68.8188Z" fill="#3F3D56"/>
<path id="Vector_5" d="M66.9628 140.703C66.9628 140.703 68.182 147.659 67.2676 147.369C66.3532 147.079 66.3532 143.311 65.2865 143.311C64.2197 143.311 63.6101 140.123 63.6101 140.123L66.9628 140.703Z" fill="#3F3D56"/>
<path id="Vector_6" d="M59.1907 141.282C59.1907 141.282 55.6856 155.775 51.2662 154.326L50.4032 153.622C50.0426 153.329 49.7483 152.802 49.5723 152.136C49.3962 151.469 49.3499 150.706 49.4413 149.98C49.8624 146.642 50.6366 141.282 51.2662 141.282H59.1907Z" fill="#3F3D56"/>
<g id="face">
<path id="Vector_7" d="M68.7914 74.9058C65.4248 74.9058 62.6956 69.7149 62.6956 63.3116C62.6956 56.9083 65.4248 51.7174 68.7914 51.7174C72.158 51.7174 74.8872 56.9083 74.8872 63.3116C74.8872 69.7149 72.158 74.9058 68.7914 74.9058Z" fill="#FFC1C7"/>
<path id="Vector_8" d="M74.8743 64.0393C74.8743 64.0393 74.2779 60.4131 72.2967 61.8624C70.3156 63.3116 68.6392 66.5 68.1821 64.1812C67.7249 61.8624 66.5549 59.7292 65.7683 61.5204C64.9818 63.3117 61.4005 66.645 61.5529 64.9058C61.7053 63.1667 59.6479 52.8769 63.6102 49.1088C67.5725 45.3407 69.706 42.4421 71.6871 45.3407C73.6683 48.2392 78.5449 53.7465 77.783 57.2247C77.021 60.703 77.3258 62.4421 76.1066 63.3117C74.8874 64.1812 74.8743 64.0393 74.8743 64.0393Z" fill="#2F2E41"/>
</g>
<path id="shirt" d="M56.4889 72.113C56.4889 72.113 56.6413 69.5043 58.0128 70.0841C59.3844 70.6638 63.0419 82.2579 63.0419 82.2579C63.6388 85.9597 64.0972 89.7373 64.4135 93.5622C65.023 100.519 66.2422 126.026 67.4614 130.374C68.6805 134.722 66.3946 144.866 66.3946 144.866C66.3946 144.866 65.023 141.968 60.6036 143.707C56.1841 145.446 50.3931 147.185 49.9359 146.316C49.4787 145.446 50.3931 143.127 49.1739 140.229C47.9547 137.33 46.2784 82.5478 52.3742 76.4609C52.3742 76.4609 55.2697 72.113 56.4889 72.113Z" fill="#6C63FF"/>
<g id="mobile">
<path id="Vector_9" d="M85.245 110.649L75.1161 121.231C75.0574 121.305 74.9909 121.354 74.9212 121.374C74.8515 121.394 74.7803 121.385 74.7127 121.347C74.6451 121.309 74.5827 121.243 74.5298 121.155C74.477 121.066 74.435 120.956 74.4069 120.833L71.9256 110.969C71.8786 110.688 71.8863 110.384 71.9472 110.112C72.0081 109.841 72.1182 109.62 72.2575 109.49L80.667 101.246C80.7706 101.127 80.8935 101.085 81.0122 101.129C81.1309 101.172 81.2371 101.297 81.3104 101.48L85.5111 109.007C85.5524 109.147 85.5783 109.301 85.5873 109.461C85.5963 109.621 85.5881 109.783 85.5632 109.936C85.5383 110.09 85.4972 110.232 85.4426 110.355C85.3879 110.478 85.3206 110.578 85.245 110.649V110.649Z" fill="#2F2E41"/>
<path id="Vector_10" d="M84.5691 109.192L75.0732 119.515L72.5465 110.853L80.6925 102.427L84.5691 109.192Z" fill="#3F3D56"/>
<path id="Vector_11" d="M76.4231 106.265C76.3729 106.185 76.3719 106.03 76.421 105.918C76.47 105.806 76.5505 105.78 76.6007 105.86C76.6509 105.939 76.6519 106.095 76.6028 106.207C76.5538 106.318 76.4733 106.344 76.4231 106.265Z" fill="#F2F2F2"/>
<path id="Vector_12" d="M79.9787 115.06C79.9456 115.008 79.9453 114.905 79.9779 114.831C80.0105 114.756 80.0638 114.738 80.0969 114.791C80.1299 114.843 80.1303 114.946 80.0976 115.021C80.065 115.095 80.0117 115.113 79.9787 115.06Z" fill="#F2F2F2"/>
</g>
<path id="frontpalm" d="M70.142 119.448C70.142 119.448 79.9105 120.75 78.5592 117.292C77.2079 113.833 70.7351 111.225 69.6134 112.178C68.4918 113.132 70.142 119.448 70.142 119.448Z" fill="#FFC1C7"/>
<g id="backleg">
<path id="backlegupper" d="M68.4415 145.217C68.4415 145.217 73.991 171.031 73.0661 181.191C73.0661 181.191 74.7309 182.648 73.066 193.083C71.4011 203.518 73.6124 186.911 73.9824 187.461C74.3524 188.01 68.8152 201.107 64.0056 196.439C63.0807 200.558 63.0807 195.066 64.0056 196.439C64.0056 193.083 54.1978 164.44 54.1978 164.44C54.1978 164.44 48.0933 145.767 50.3131 141.648C52.5329 137.529 50.3131 140 50.3131 140L67.1466 141.648L68.4415 145.217Z" fill="#2F2E41"/>
<path id="backleglower" d="M73.5 188C73.5 188 76.1424 192.849 74.3948 203.76C72.6471 214.671 74.5889 242.809 74.9773 243.384C75.3657 243.958 70.7053 249.988 65.6564 245.106C65.6564 245.106 65.4623 238.215 64.4913 236.78C63.5204 235.344 63.5204 205.196 64.4913 200.889C65.4623 196.582 62 192 62 192C62 192 71.1698 192.307 73.5 188Z" fill="#2F2E41"/>
<path id="shoebackleg" d="M73.6536 238C73.6536 238 82.0313 245.8 86.4407 245.549C90.85 245.297 91.5114 250.581 86.4407 251.336C81.3699 252.091 66.1577 252.343 64.8349 251.336C63.5121 250.33 63.953 239.761 64.8349 239.51C65.7167 239.258 73.6536 238 73.6536 238Z" fill="#3F3D56"/>
</g>
<g id="frontleg">
<path id="frontlegupper" d="M67.0563 148.532C67.0563 148.532 67.4261 175.072 64.6164 184.958C64.6164 184.958 65.9219 186.699 62.3568 196.723C58.7917 206.747 64.0487 190.716 64.296 191.326C64.5433 191.936 56.7921 203.895 53.1079 198.409C51.4462 202.318 52.4897 196.884 53.1079 198.409C53.7455 195.089 49.8662 164 49.8662 164C49.8662 164 46.4998 142.5 49.8662 140L66.5039 144.767L67.0563 148.532Z" fill="#2F2E41"/>
<path id="frontleglower" d="M63.5 185.5C63.5 185.5 65.203 196.195 61.5376 206.666C57.8721 217.138 54.3128 245.262 54.5589 245.897C54.805 246.531 49.4028 251.677 45.714 245.981C45.714 245.981 46.8429 239.142 46.2277 237.556C45.6125 235.97 50.2963 205.085 52 201C53.7038 196.915 53.0312 188 53.0312 188C53.0312 188 60.554 189.349 63.5 185.5Z" fill="#2F2E41"/>
<path id="shoefrontleg" d="M54.9159 241.011C54.9159 241.011 63.5071 249.227 68.0319 248.959C72.5567 248.691 73.2317 254.26 68.0278 255.059C62.824 255.858 47.2139 256.134 45.8572 255.074C44.5005 254.014 44.9605 242.874 45.8656 242.608C46.7707 242.343 54.9159 241.011 54.9159 241.011Z" fill="#3F3D56"/>
</g>
<path id="fronthand" d="M56.9753 77.755C56.9753 77.755 63.2235 80.9434 60.328 91.0883C60.328 91.0883 55.6037 108.769 57.5849 109.929C59.566 111.088 68.7097 110.508 68.7097 110.508C68.7097 110.508 70.8433 120.364 69.7765 120.653C68.7097 120.943 51.6415 127.61 49.8127 121.233C47.984 114.856 49.8127 87.3202 49.8127 87.3202C49.8127 87.3202 52.4034 73.697 56.9753 77.755Z" fill="#6C63FF"/>
</g>
</g>
<defs>
<clipPath id="clip0">
<rect width="209" height="256" transform="matrix(-1 0 0 1 209 0)" fill="white"/>
</clipPath>
</defs>
</svg>
