<svg width="18540" height="28184" viewBox="0 0 18540 28184" fill="none" xmlns="http://www.w3.org/2000/svg">
<g id="Frame 1">
<g clip-path="url(#clip0)">
<rect x="18539.6" y="64.7485" width="28119" height="18441" transform="rotate(90.2012 18539.6 64.7485)" fill="#2A6F31" fill-opacity="0.4"/>
<path id="parksign" d="M6298.48 17329.4L6691.58 17630L6836.19 17440.9L6653.96 17301.5L7141.26 16664.2L7092.12 16626.7L6604.82 17264L6443.1 17140.3L6298.48 17329.4Z" fill="#3F3D56"/>
<g id="clouds">
<path id="cloud4" d="M9495 7997.17C9502.15 7873.87 9541.57 7757.58 9606.24 7669.02C9670.92 7580.47 9756.63 7525.41 9848.1 7513.66C9939.57 7501.91 10030.9 7534.24 10105.7 7604.88C10180.5 7675.52 10234 7779.88 10256.6 7899.36C10261.3 7899.2 10266 7899.03 10270.8 7899.1C10354.4 7900.46 10435.3 7938.25 10501.2 8006.83C10567.1 8075.41 10614.5 8171.1 10636.4 8279.56C10692.3 8247.64 10754.4 8241.52 10812.9 8262.14C10871.3 8282.76 10922.9 8328.96 10959.4 8393.51L9751.32 8374.24C9716.07 8373.81 9681.32 8363.81 9649.15 8344.84C9616.97 8325.87 9588.03 8298.31 9564.06 8263.82C9540.09 8229.34 9521.59 8188.63 9509.65 8144.13C9497.72 8099.63 9492.6 8052.26 9494.6 8004.86C9494.72 8002.3 9494.85 7999.74 9495 7997.17Z" fill="#E6E6E6"/>
<path id="cloud3" d="M7428.85 8101.56C7432.1 8060.38 7451.49 8021.62 7483.56 7992.2C7515.64 7962.78 7558.32 7944.61 7603.99 7940.93C7649.66 7937.24 7695.35 7948.29 7732.92 7972.09C7770.49 7995.89 7797.49 8030.9 7809.12 8070.88C7811.46 8070.85 7813.81 8070.8 7816.17 8070.84C7857.98 8071.51 7898.47 8084.35 7931.58 8107.44C7964.69 8130.53 7988.64 8162.63 7999.85 8198.93C8027.73 8188.41 8058.73 8186.53 8087.99 8193.57C8117.25 8200.62 8143.12 8216.19 8161.55 8237.86L7557.91 8228.23C7540.3 8227.99 7522.91 8224.56 7506.78 8218.14C7490.66 8211.71 7476.13 8202.43 7464.06 8190.84C7451.99 8179.25 7442.64 8165.6 7436.56 8150.7C7430.48 8135.8 7427.8 8119.96 7428.67 8104.13C7428.72 8103.27 7428.78 8102.41 7428.85 8101.56Z" fill="#E6E6E6"/>
<path id="cloud2" d="M8901.5 8129.8C8903.64 8090.17 8915.19 8052.77 8934.1 8024.28C8953 7995.79 8978.02 7978.06 9004.7 7974.24C9031.39 7970.42 9057.99 7980.76 9079.78 8003.43C9101.57 8026.1 9117.12 8059.61 9123.67 8098C9125.04 8097.95 9126.41 8097.89 9127.79 8097.91C9152.19 8098.31 9175.75 8110.41 9194.94 8132.42C9214.13 8154.43 9227.91 8185.16 9234.24 8220.01C9250.58 8209.72 9268.68 8207.73 9285.72 8214.32C9302.76 8220.92 9317.77 8235.75 9328.4 8256.48L8976.07 8250.86C8965.79 8250.73 8955.66 8247.54 8946.29 8241.46C8936.91 8235.37 8928.49 8226.53 8921.51 8215.46C8914.54 8204.39 8909.16 8191.31 8905.7 8177.02C8902.24 8162.72 8900.77 8147.5 8901.38 8132.27C8901.41 8131.44 8901.45 8130.62 8901.5 8129.8Z" fill="#E6E6E6"/>
<path id="cloud1" d="M7819.35 7325.33C7824.52 7216.55 7851.01 7113.84 7894.1 7035.5C7937.19 6957.17 7994.08 6908.3 8054.63 6897.62C8115.18 6886.93 8175.46 6915.13 8224.7 6977.17C8273.95 7039.21 8308.97 7131.07 8323.53 7236.37C8326.63 7236.22 8329.74 7236.05 8332.87 7236.1C8388.21 7237 8441.56 7270.05 8484.91 7330.31C8528.27 7390.57 8559.31 7474.8 8573.4 7570.39C8610.53 7542.04 8651.62 7536.42 8690.21 7554.4C8728.81 7572.38 8762.74 7612.95 8786.69 7669.76L7987.59 7657.01C7964.27 7656.76 7941.32 7648.06 7920.1 7631.44C7898.88 7614.82 7879.84 7590.62 7864.1 7560.28C7848.37 7529.95 7836.27 7494.1 7828.53 7454.9C7820.79 7415.69 7817.57 7373.93 7819.06 7332.11C7819.15 7329.86 7819.25 7327.6 7819.35 7325.33Z" fill="#E6E6E6"/>
</g>
<g id="mountain">
<path id="Vector" d="M9788.6 10339.6L7532.09 10232.8C7529.26 10232.7 7526.45 10232.2 7523.7 10231.3L8724.3 7465.13C8731.64 7447.9 8741.79 7433.75 8753.69 7424.14C8765.6 7414.53 8778.84 7409.79 8792.07 7410.42C8805.3 7411.04 8818.04 7417.01 8828.98 7427.7C8839.93 7438.4 8848.69 7453.44 8854.37 7471.29L9481.12 9395.46L9511.15 9487.53L9788.6 10339.6Z" fill="#3F3D56"/>
<path id="Vector_2" opacity="0.2" d="M9788.61 10339.6L9018.18 10303.1L9436.02 9483.97L9466.09 9424.96L9481.13 9395.47L9511.16 9487.53L9788.61 10339.6Z" fill="black"/>
<path id="Vector_3" d="M11045 10399.1L9093.31 10306.7L9511.15 9487.53L9541.22 9428.52L10085.7 8361.01C10121.4 8291.04 10199.3 8290.27 10234.4 8354.53C10236.7 8358.91 10238.9 8363.53 10240.8 8368.35L11045 10399.1Z" fill="#3F3D56"/>
</g>
<path id="sun" d="M14551.7 11666.8C14550 12143.9 14952.7 12532.2 15451.2 12534C15949.6 12535.7 16355.1 12150.4 16356.8 11673.2C16358.5 11196.1 15955.8 10807.8 15457.3 10806.1C14958.8 10804.3 14553.4 11189.6 14551.7 11666.8Z" fill="#FF6584"/>
<g id="tree">
<path id="Vector_4" d="M14254.4 15673.1L14274.4 15661.7L14201.2 15509.3L14181.1 15520.6L14254.4 15673.1Z" fill="#3F3D56"/>
<path id="Vector_5" d="M14430.9 15475.8L14448.2 15492.1L14538.6 15352.1L14521.3 15335.8L14430.9 15475.8Z" fill="#3F3D56"/>
<path id="tree_2" d="M15384.4 15492.5L15384.4 15497.9L12043.9 15583.5L12044.6 15377.5L15384.4 15492.5Z" fill="#3F3D56"/>
<g id="flower">
<path id="Vector_6" d="M12520.7 12043.3C12520.7 12043.3 12660.9 12050.5 12644.1 12189.1Z" fill="#3F3D56"/>
<path id="Vector_7" d="M12654.3 12004.5C12654.2 12042.9 12684.8 12074.1 12722.7 12074.2C12760.7 12074.3 12791.5 12043.4 12791.7 12005C12791.8 11966.7 12761.2 11935.5 12723.2 11935.4C12685.3 11935.3 12654.4 11966.2 12654.3 12004.5Z" fill="#6C63FF"/>
<path id="Vector_8" d="M12607.3 12012.7L12607.4 11993.1L12471.7 11992.6L12471.6 12012.2L12607.3 12012.7Z" fill="#3F3D56"/>
</g>
<g id="flower_2">
<path id="Vector_9" d="M12360.7 11597C12360.7 11597 12501 11589.8 12498.5 11729.4Z" fill="#3F3D56"/>
<path id="Vector_10" d="M12489.6 11544.8C12493.4 11582.9 12527.1 11610.8 12564.9 11607C12602.6 11603.2 12630.1 11569.2 12626.3 11531.1C12622.5 11492.9 12588.8 11465.1 12551 11468.9C12513.3 11472.6 12485.8 11506.6 12489.6 11544.8Z" fill="#6C63FF"/>
<path id="Vector_11" d="M12443.7 11557.7L12441.8 11538.2L12306.8 11551.7L12308.7 11571.2L12443.7 11557.7Z" fill="#3F3D56"/>
</g>
<g id="flower_3">
<path id="Vector_12" d="M12584.5 14603.2C12584.5 14603.2 12718.7 14644.3 12668.7 14774.7Z" fill="#3F3D56"/>
<path id="Vector_13" d="M12723.5 14598.1C12714 14635.3 12736.2 14673 12772.9 14682.3C12809.7 14691.7 12847.1 14669.1 12856.6 14632C12866 14594.8 12843.9 14557.1 12807.1 14547.8C12770.4 14538.5 12732.9 14561 12723.5 14598.1Z" fill="#6C63FF"/>
<path id="Vector_14" d="M12675.9 14594.6L12680.7 14575.6L12549.2 14542.2L12544.4 14561.2L12675.9 14594.6Z" fill="#3F3D56"/>
</g>
</g>
<path id="bush3" d="M5282.3 12131.3C5280.15 12144.3 5282.69 12157.7 5289.56 12169.6C5194.12 12182.9 5127.58 12218.9 5117.57 12271.6C5107.56 12324.4 5156.29 12382.3 5240.21 12429.6C5229.47 12438.2 5222.19 12449.7 5219.45 12462.6C5208.08 12522.5 5312.25 12592.6 5452.13 12619.1L5556.16 12070.9C5416.28 12044.3 5293.67 12071.4 5282.3 12131.3Z" fill="#D0CDE1"/>
<g id="treesineast">
<path id="tree-2" d="M10163.6 17290.8L9602.04 17964.1L10156.4 17224.3L10149 17154.8C10194 17150.6 10238.6 17147.2 10282.8 17144.5L10331.6 18042.1L10333.1 18048.9L10332 18050.4L10336.6 18135.2L11070.4 18736.8L10343 18198.4L10339 18180.7L10375.9 18858.9L11019.8 19493L10384.8 18977.8L10515.1 20378.1L10515.5 20382.7L10514.9 20378.2L10378.3 19277.6L9886.66 19773.2L10368.1 19182.6L10302.9 18578.9L9866.23 19212.5L10293.2 18490.1L10256.9 18154.4L9618.7 19039.7L10244.4 18037.3L10163.6 17290.8Z" fill="#3F3D56"/>
<path id="tree-2_2" d="M7826.74 17162L7164.71 17736.9L7830.3 17095.3L7834.05 17025.5C7879.13 17028.5 7923.72 17032.3 7967.81 17036.7L7872.42 17930.6L7872.76 17937.5L7871.53 17938.8L7862.48 18023.2L8490.55 18734.5L7858.7 18086.7L7857.59 18068.6L7785.53 18744L8319.73 19472.9L7775.27 18862.8L7679.98 20265.8L7679.63 20270.5L7679.76 20265.9L7720.92 19157.6L7156.35 19568.2L7726.06 19062.3L7758.23 18455.9L7225.85 19011.5L7762.86 18366.7L7780.74 18029.5L7009.15 18801.3L7787.07 17911.9L7826.74 17162Z" fill="#3F3D56"/>
</g>
<g id="moontree">
<path id="Vector_15" d="M4181.9 12178.4C4186.03 11819.3 3858.44 11524.4 3450.2 11519.7C3041.96 11515 2707.66 11802.3 2703.53 12161.4C2699.39 12520.5 3026.98 12815.4 3435.22 12820.1C3843.46 12824.8 4177.76 12537.5 4181.9 12178.4Z" fill="#D0CDE1"/>
<path id="Vector_16" d="M5558.69 12215.2L5559.11 12178.5L3528.92 12155.2C3471.79 12154.5 3414.8 12160 3359.23 12171.6C3414.52 12184.4 3471.37 12191.2 3528.5 12191.9L5558.69 12215.2Z" fill="#3F3D56"/>
<path id="Vector_17" d="M4071.3 12181.8L4036.05 12162.1L3841.6 12431.4C3828.11 12450.1 3821.02 12471.8 3821.18 12494V12494C3844.03 12484.7 3863.36 12469.9 3876.85 12451.2L4071.3 12181.8Z" fill="#3F3D56"/>
<path id="Vector_18" d="M3878.62 12166.8L3842.93 12185.7L3713.42 11997.3C3703.15 11982.4 3699.62 11964.6 3703.54 11947.5C3722.58 11952.4 3738.84 11963.5 3749.11 11978.4L3878.62 12166.8Z" fill="#3F3D56"/>
<path id="Vector_19" d="M4689.34 12176.1L4653.64 12195.1L4524.13 12006.7C4513.86 11991.7 4510.34 11973.9 4514.25 11956.9V11956.9C4533.29 11961.8 4549.56 11972.8 4559.83 11987.7L4689.34 12176.1Z" fill="#3F3D56"/>
</g>
<g id="treebehindhouse">
<path id="Vector_20" d="M13795.3 12191.9C13813.8 12573.6 14127.6 12868.5 14496.2 12850.6C14864.8 12832.7 15148.6 12508.8 15130.1 12127.1C15111.5 11745.4 14797.7 11450.5 14429.1 11468.4C14060.5 11486.3 13776.7 11810.3 13795.3 12191.9Z" fill="#6C63FF"/>
<path id="Vector_21" d="M12455.6 12323.7L12448.7 12182.2L14562.7 12144.2L12455.6 12323.7Z" fill="#3F3D56"/>
<path id="Vector_22" d="M14163.2 12176.1L14373.6 12318.2L14112.9 12176.5L14140.2 12158.5L14163.2 12176.1Z" fill="#3F3D56"/>
<path id="Vector_23" d="M13957.4 12169.4L14153 12007.6L13907.2 12174L13936.2 12189.2L13957.4 12169.4Z" fill="#3F3D56"/>
</g>
<g id="moontree-1">
<path id="Vector_24" d="M4733.59 15243.8C4732.53 14944.4 4458.73 14702.6 4122.05 14703.8C3785.37 14705 3513.3 14948.7 3514.36 15248.1C3515.43 15547.6 3789.23 15789.3 4125.91 15788.1C4462.59 15786.9 4734.66 15543.2 4733.59 15243.8Z" fill="#D0CDE1"/>
<path id="Vector_25" d="M5869.31 15257.3L5869.2 15226.6L4194.88 15232.6C4147.76 15232.8 4100.84 15238.1 4055.16 15248.4C4100.91 15258.4 4147.87 15263.4 4194.99 15263.2L5869.31 15257.3Z" fill="#3F3D56"/>
<path id="Vector_26" d="M4642.44 15248L4613.13 15232L4456.15 15459C4445.26 15474.8 4439.68 15493 4440.09 15511.4V15511.4C4458.82 15503.4 4474.57 15490.8 4485.46 15475L4642.44 15248Z" fill="#3F3D56"/>
<path id="Vector_27" d="M4483.38 15237.9L4454.18 15254.2L4345.04 15098.7C4336.39 15086.4 4333.26 15071.6 4336.28 15057.3C4352.03 15061.2 4365.58 15070.2 4374.24 15082.5L4483.38 15237.9Z" fill="#3F3D56"/>
<path id="Vector_28" d="M5151.99 15235.6L5122.79 15251.8L5013.65 15096.3C5005 15084 5001.87 15069.2 5004.89 15054.9V15054.9C5020.64 15058.8 5034.19 15067.8 5042.85 15080.1L5151.99 15235.6Z" fill="#3F3D56"/>
</g>
<g id="flower_4">
<path id="Vector_29" d="M12003.6 15782C12003.6 15782 12138.2 15822.1 12089.2 15952.9Z" fill="#3F3D56"/>
<path id="Vector_30" d="M12142.6 15775.9C12133.4 15813.1 12155.8 15850.6 12192.7 15859.7C12229.5 15868.8 12266.8 15845.9 12275.9 15808.7C12285.1 15771.5 12262.7 15734 12225.9 15724.9C12189 15715.9 12151.7 15738.7 12142.6 15775.9Z" fill="#6C63FF"/>
<path id="Vector_31" d="M12095 15772.7L12099.7 15753.7L11967.9 15721.2L11963.2 15740.3L12095 15772.7Z" fill="#3F3D56"/>
</g>
<g id="land">
<ellipse id="innerland" cx="9031.71" cy="13406.2" rx="3939.57" ry="3703.76" transform="rotate(90.2046 9031.71 13406.2)" fill="url(#paint0_linear)"/>
<ellipse id="outerland" cx="9031.68" cy="13415" rx="3702.67" ry="3474.07" transform="rotate(90.2046 9031.68 13415)" fill="#323036" fill-opacity="0.96"/>
</g>
<g id="bird2">
<path id="wing" d="M14940.6 11263.3L15219 11459C15245.3 11307.8 15079.8 11245.1 14978.9 11219.3C15055.2 11101.4 14940.6 11263.3 14940.6 11263.3L15219 11459C15300.2 11439.6 14888.3 11307.9 14940.6 11263.3Z" fill="#3F3D56"/>
<path id="Vector_32" d="M14985.9 11299.3C15086.8 11325.1 15012.2 11148.1 14985.9 11299.3C15062.2 11181.4 15001.4 11008.4 15001.4 11008.4L14781.3 11397.2C14862.5 11377.8 14933.5 11343.8 14985.9 11299.3Z" fill="#3F3D56"/>
</g>
<g id="bird2_2">
<path id="wing_2" d="M16062.4 13026.3L16340.8 13221.9C16367.1 13070.8 16201.6 13008.1 16100.7 12982.3C16177 12864.4 16062.4 13026.3 16062.4 13026.3L16340.8 13221.9C16422.1 13202.6 16010.1 13070.9 16062.4 13026.3Z" fill="#3F3D56"/>
<path id="Vector_33" d="M16107.7 13062.2C16208.6 13088 16134 12911.1 16107.7 13062.2C16184 12944.3 16123.2 12771.3 16123.2 12771.3L15903.1 13160.1C15984.3 13140.8 16055.3 13106.8 16107.7 13062.2Z" fill="#3F3D56"/>
</g>
<g id="bird2_3">
<path id="wing_3" d="M15607.7 14650.7L15886.1 14846.4C15912.4 14695.2 15746.9 14632.5 15646 14606.7C15722.3 14488.8 15607.7 14650.7 15607.7 14650.7L15886.1 14846.4C15967.3 14827 15555.4 14695.3 15607.7 14650.7Z" fill="#3F3D56"/>
<path id="Vector_34" d="M15653 14686.6C15753.9 14712.4 15679.3 14535.5 15653 14686.6C15729.3 14568.7 15668.5 14395.8 15668.5 14395.8L15448.4 14784.5C15529.6 14765.2 15600.6 14731.2 15653 14686.6Z" fill="#3F3D56"/>
</g>
<g id="house">
<path id="Vector_35" d="M12891.1 12577.4C12849.5 12588.3 12808.7 12601 12768.9 12615.3L12768.8 12615.3C12736.4 12626.8 12704.9 12639.4 12674.1 12653.1L12668.5 14254.2L12664.3 14254.1C12696.3 14268.8 12729.2 14282.2 12763.1 14294.5C12802.8 14309.1 12843.4 14322.1 12885 14333.2L12891.1 12577.4ZM12770.2 12617.4L12789.9 12617.4L12784 14292.8L12764.3 14292.7L12770.2 12617.4ZM12508.1 12741.2L12503.1 14166.7C12549 14196.1 12597.7 14223 12648.8 14247L12654.4 12662C12603.1 12685.7 12554.2 12712.2 12508.1 12741.2V12741.2Z" fill="#3F3D56"/>
<path id="Vector_36" d="M12995.5 14358.7C12964.7 14352.8 12934.4 14346 12904.7 14338.4L12910.9 12572.4C12940.7 12565 12971 12558.4 13001.9 12552.8L12995.5 14358.7Z" fill="#3F3D56"/>
<path id="Vector_37" d="M13001.3 14359.8L13015.2 14359.8L13021.6 12551.7L13007.7 12551.7C13042 12545.5 13077 12540.4 13112.5 12536.3L13106.1 14375.9C13070.6 14371.7 13035.7 14366.3 13001.3 14359.8Z" fill="#3F3D56"/>
<path id="Vector_38" d="M13242.9 12533.5L13223.2 12533.5L13216.7 14385.3C13186 14383.7 13155.8 14381.4 13125.8 14378.1L13132.3 12534.3C13162.1 12531.2 13192.2 12529 13222.8 12527.8C13248.7 12526.6 13274.7 12526 13301 12526.1C13318.8 12526.2 13336.4 12526.6 13354 12527.1L13354.2 12527.1C13391.5 12528.5 13428.4 12531.1 13464.8 12534.8L13464.9 12534.8C13495.3 12538.1 13525.4 12542.1 13555.1 12546.8L13548.8 14365.5L13566.7 14365.6C13531 14371.6 13494.7 14376.3 13457.8 14379.8L13464.3 12538.1L13444.5 12538L13438.1 14381.6C13410.6 14383.9 13382.8 14385.6 13354.8 14386.5L13347.1 14386.7L13353.6 12535.9L13333.9 12535.8L13327.4 14387.1C13316.5 14387.4 13305.5 14387.4 13294.5 14387.4C13275 14387.3 13255.6 14386.9 13236.4 14386.2L13242.9 12533.5Z" fill="#3F3D56"/>
<path id="Vector_39" d="M13568.5 14365.3L13574.9 12550.2C13605.6 12555.6 13635.9 12561.8 13665.7 12568.9L13659.5 14346.9L13660.5 14346.9C13630.4 14354 13599.7 14360 13568.5 14365.3Z" fill="#3F3D56"/>
<path id="Vector_40" d="M13679.2 14342.5L13685.4 12573.7C13722.8 12583.1 13759.4 12593.8 13795.1 12605.8L13776.3 12605.7L13770.3 14311.2L13789.1 14311.3C13753.3 14323 13716.7 14333.4 13679.2 14342.5Z" fill="#3F3D56"/>
<path id="Vector_41" d="M13790 14310.9L13796 12606.1C13827 12616.4 13857.2 12627.8 13886.8 12640.1L13881.1 14275.5L13886 14275.6C13854.8 14288.4 13822.8 14300.2 13790 14310.9Z" fill="#3F3D56"/>
<path id="Vector_42" d="M13900.8 14269.4L13906.5 12648.4C14096.4 12730.1 14254.1 12848.5 14363.7 12991.3C14473.3 13134 14530.7 13296.2 14530.1 13461.1C14529.5 13626 14471 13787.7 14360.4 13929.7C14249.8 14071.7 14091.2 14188.9 13900.8 14269.4V14269.4Z" fill="#3F3D56"/>
<path id="Vector_43" opacity="0.5" d="M13007.7 12551.7C13005.7 12552 13003.8 12552.4 13001.8 12552.8L13001.8 12551.7L13007.7 12551.7Z" fill="black"/>
<path id="Vector_44" opacity="0.5" d="M13001.3 14359.8L12995.5 14359.8L12995.5 14358.7C12997.4 14359.1 12999.4 14359.5 13001.3 14359.8V14359.8Z" fill="black"/>
<path id="Vector_45" opacity="0.5" d="M13236.4 14387.2L13216.7 14387.1L13216.7 14385.3C13219.2 14385.4 13221.6 14385.6 13224.1 14385.7C13228.2 14385.8 13232.3 14386 13236.4 14386.2L13236.4 14387.2Z" fill="black"/>
<path id="Vector_46" opacity="0.5" d="M13347.1 14387.6L13327.4 14387.5L13327.4 14387.2C13334 14387.1 13340.5 14386.9 13347.1 14386.7L13347.1 14387.6Z" fill="black"/>
<path id="Vector_47" opacity="0.5" d="M13568.5 14365.6L13566.7 14365.6C13567.3 14365.5 13567.9 14365.4 13568.5 14365.3L13568.5 14365.6Z" fill="black"/>
<path id="Vector_48" opacity="0.5" d="M13796 12605.8L13796 12606.1C13795.7 12606 13795.4 12605.9 13795.1 12605.8L13796 12605.8Z" fill="black"/>
<path id="Vector_49" opacity="0.5" d="M13790 14311.3L13789.1 14311.3C13789.4 14311.2 13789.7 14311 13790 14310.9L13790 14311.3Z" fill="black"/>
<path id="Vector_50" opacity="0.5" d="M14011.7 14217.1L14017 12701.5L13997.3 12701.4L13991.9 14217L14011.7 14217.1Z" fill="black"/>
<path id="Vector_51" opacity="0.5" d="M14122.5 14158.6L14127.4 12764.5L14107.7 12764.5L14102.8 14158.5L14122.5 14158.6Z" fill="black"/>
<path id="Vector_52" opacity="0.5" d="M14233.5 14069.7L14237.8 12850.4L14218.1 12850.3L14213.8 14069.7L14233.5 14069.7Z" fill="black"/>
<path id="Vector_53" opacity="0.5" d="M14344.6 13958L14345.6 12943.8L14325.8 12943.8L14324.9 13958L14344.6 13958Z" fill="black"/>
<path id="Vector_54" d="M13945.8 13324.1L13947.3 12879.7L12643.3 12875.1L12641.7 13319.5L13945.8 13324.1Z" fill="#E6E6E6"/>
<path id="Vector_55" d="M13823.8 13082.6L13823.8 13101.4C13823.7 13129.1 13809 13155.6 13782.9 13175.2C13756.9 13194.7 13721.7 13205.6 13684.9 13205.4L13488.9 13204.7L13489.7 12976.8L13685.7 12977.5C13722.5 12977.7 13757.6 12988.8 13783.5 13008.5C13809.4 13028.2 13823.9 13054.8 13823.8 13082.6V13082.6Z" fill="#3F3D56"/>
<path id="Vector_56" d="M13955.2 13895.9C13955 13926.1 13939 13955.1 13910.7 13976.3C13882.3 13997.6 13843.9 14009.5 13803.9 14009.3L13557.4 14008.5L13558.2 13780.6L13804.7 13781.4C13844.7 13781.6 13883 13793.7 13911.2 13815.2C13939.5 13836.6 13955.3 13865.7 13955.2 13895.9Z" fill="#E6E6E6"/>
<path id="Vector_57" d="M13450.6 14327.2C13438.9 14327.1 13427.1 14326.6 13415.4 14325.6L13418.5 13457.2L13483.9 13457.4L13480.8 14326.2C13470.8 14326.9 13460.7 14327.2 13450.6 14327.2Z" fill="#E6E6E6"/>
<path id="Vector_58" d="M13674 13582.7L13691.2 13591.2C13700.4 13588.7 13709.4 13585.9 13718.1 13582.6L13712.3 13577.2L13721.1 13581.5C13731.9 13577.4 13738.6 13574.2 13738.6 13574.2C13716.2 13563.7 13691.7 13556 13666 13551.4L13643.8 13562.1L13656.7 13550.2C13652.3 13549.7 13647.9 13549.5 13643.5 13549.5C13599.2 13549.3 13563.3 13560.1 13563.2 13573.6C13563.2 13587.1 13599 13598.1 13643.3 13598.3C13657.4 13598.1 13671.4 13596.3 13684.8 13592.9L13674 13582.7Z" fill="#6C63FF"/>
<path id="Vector_59" d="M13635.4 13642.3L13639.6 13657.5C13648.4 13660.7 13657.5 13663.5 13666.7 13665.8L13667.7 13658.9L13669.9 13666.7C13681.3 13669.5 13689.1 13670.9 13689.1 13670.9C13683 13651.5 13672.9 13632.9 13659.1 13615.9L13633.2 13611.7L13653.6 13610.1C13650.9 13607.5 13648 13605 13644.9 13602.6C13613.7 13578.8 13578.1 13567.3 13565.4 13576.8C13552.8 13586.2 13567.8 13613.2 13599.1 13637C13609.3 13644.3 13620.9 13650.5 13633.5 13655.2L13635.4 13642.3Z" fill="#6C63FF"/>
<path id="Vector_60" d="M13463.9 13647.3C13461.1 13612 13464.4 13573.7 13464.3 13532.8L13588.2 13533.2C13581 13571.2 13580.9 13609.7 13587.8 13647.7L13463.9 13647.3Z" fill="#E6E6E6"/>
<path id="Vector_61" d="M13672 14156.3L13689.2 14164.8C13698.4 14162.3 13707.4 14159.5 13716.1 14156.2L13710.3 14150.7L13719.1 14155.1C13729.9 14151 13736.6 14147.8 13736.6 14147.8C13714.2 14137.3 13689.6 14129.6 13664 14125L13641.8 14135.7L13654.6 14123.8C13650.3 14123.3 13645.9 14123.1 13641.5 14123.1C13597.2 14122.9 13561.3 14133.7 13561.2 14147.2C13561.2 14160.7 13597 14171.7 13641.3 14171.9C13655.4 14171.7 13669.4 14169.8 13682.7 14166.4L13672 14156.3Z" fill="#6C63FF"/>
<path id="Vector_62" d="M13633.4 14215.9L13637.6 14231.1C13646.4 14234.3 13655.5 14237 13664.7 14239.4L13665.7 14232.4L13667.9 14240.2C13679.3 14243.1 13687.1 14244.4 13687.1 14244.4C13681 14225.1 13670.9 14206.5 13657 14189.5L13631.2 14185.3L13651.5 14183.7C13648.9 14181.1 13646 14178.6 13642.9 14176.2C13611.6 14152.4 13576.1 14140.8 13563.4 14150.3C13550.8 14159.8 13565.8 14186.8 13597.1 14210.5C13607.2 14217.9 13618.9 14224.1 13631.5 14228.8L13633.4 14215.9Z" fill="#6C63FF"/>
<path id="Vector_63" d="M13461.9 14220.8C13459.1 14185.6 13462.4 14147.2 13462.3 14106.4L13586.2 14106.8C13579 14144.8 13578.8 14183.3 13585.8 14221.3L13461.9 14220.8Z" fill="#E6E6E6"/>
<path id="Vector_64" d="M13206.2 12930.3C13206.1 12955.4 13228.8 12975.9 13256.9 12976C13284.9 12976.1 13307.7 12955.8 13307.8 12930.6C13307.9 12905.4 13285.2 12885 13257.2 12884.9C13229.1 12884.8 13206.3 12905.1 13206.2 12930.3Z" fill="#3F3D56"/>
<path id="Vector_65" opacity="0.2" d="M13281.4 14380.2C13122.8 14379.8 12965.9 14354.6 12820.7 14306.1L13850.8 12765.6L13928.4 12648.5L13939.4 12807.6L14034.3 14187.1C13831.9 14317.7 13568.8 14381.2 13281.4 14380.2Z" fill="black"/>
<path id="Vector_66" d="M13921.7 14568.6L13929.5 12349.6L14166.1 12350.5L14773.6 13454.7L14158.3 14569.5L13921.7 14568.6Z" fill="#3F3D56"/>
</g>
<path id="moon" opacity="0.2" d="M2934.1 14556.7C3152.94 14825.5 3285.54 15141.8 3308.21 15449C3330.88 15756.3 3242.14 16034.6 3057.85 16234.1C2873.56 16433.6 2605.72 16541.4 2302.2 16538.2C1998.68 16535 1679.26 16421 1401.01 16216.6C1534.71 16380.8 1696.35 16522 1874.75 16630.4C2053.15 16738.9 2244.04 16811.9 2434.19 16844.6C2624.34 16877.2 2809.21 16868.7 2975.99 16819.5C3142.77 16770.4 3287.46 16681.8 3400.06 16559.9C3512.65 16438 3590.44 16285.7 3628.05 16113.6C3665.66 15941.4 3662.18 15753.6 3617.86 15563.1C3573.54 15372.5 3489.43 15183.8 3371.37 15010.1C3253.3 14836.3 3104.1 14681.6 2934.1 14556.7V14556.7Z" fill="#D2CDED"/>
<g id="birdwithface">
<path id="Vector_67" d="M10667.3 19239.9C10583.5 19234.5 10510.3 19310.6 10504 19409.8C10497.6 19509 10560.5 19593.8 10644.3 19599.1C10728.2 19604.5 10801.3 19528.4 10807.7 19429.2C10814 19330 10751.2 19245.3 10667.3 19239.9Z" fill="#3F3D56"/>
<path id="Vector_68" d="M10752.3 19411.2C10748.2 19416.3 10743.2 19420.3 10737.7 19422.9C10732.2 19425.5 10726.3 19426.7 10720.4 19426.3C10714.5 19425.9 10708.8 19424 10703.7 19420.7C10698.5 19417.5 10694.1 19412.9 10690.7 19407.3C10683.7 19414.1 10678.7 19423.3 10676.1 19433.5C10673.6 19443.6 10673.7 19454.4 10676.3 19464.5C10679 19474.5 10684.2 19483.2 10691.2 19489.6C10698.2 19496 10706.8 19499.7 10715.7 19500.3C10724.6 19500.9 10733.5 19498.3 10741.3 19492.8C10749 19487.4 10755.3 19479.3 10759.3 19469.8C10763.2 19460.2 10764.6 19449.5 10763.4 19439C10762.2 19428.6 10758.3 19418.9 10752.3 19411.2V19411.2Z" fill="white"/>
<path id="Vector_69" d="M10631.8 19403.5C10627.6 19408.6 10622.7 19412.6 10617.1 19415.2C10611.6 19417.8 10605.7 19419 10599.8 19418.6C10593.9 19418.2 10588.2 19416.3 10583.1 19413C10578 19409.7 10573.5 19405.1 10570.1 19399.6C10563.2 19406.4 10558.1 19415.6 10555.6 19425.7C10553 19435.9 10553.1 19446.7 10555.8 19456.7C10558.5 19466.7 10563.6 19475.5 10570.7 19481.9C10577.7 19488.3 10586.2 19492 10595.1 19492.6C10604 19493.1 10612.9 19490.5 10620.7 19485.1C10628.5 19479.7 10634.7 19471.6 10638.7 19462C10642.6 19452.5 10644.1 19441.8 10642.8 19431.3C10641.6 19420.9 10637.7 19411.2 10631.8 19403.5Z" fill="white"/>
<path id="Vector_70" d="M10734.3 19448.2C10725.8 19447.7 10718.4 19455.4 10717.8 19465.4C10717.1 19475.5 10723.5 19484.1 10732 19484.6C10740.5 19485.1 10747.9 19477.4 10748.5 19467.4C10749.1 19457.4 10742.8 19448.8 10734.3 19448.2Z" fill="#3F3D56"/>
<path id="Vector_71" d="M10613.7 19440.5C10605.2 19440 10597.8 19447.7 10597.2 19457.7C10596.6 19467.8 10602.9 19476.3 10611.4 19476.9C10619.9 19477.4 10627.3 19469.7 10627.9 19459.7C10628.6 19449.7 10622.2 19441.1 10613.7 19440.5Z" fill="#3F3D56"/>
<path id="Vector_72" d="M10769.5 19360.5C10759.6 19359.9 10751 19368.8 10750.2 19380.5C10749.5 19392.1 10756.9 19402.1 10766.8 19402.7C10776.6 19403.4 10785.2 19394.4 10786 19382.8C10786.7 19371.1 10779.3 19361.1 10769.5 19360.5Z" fill="#FF6584"/>
<path id="Vector_73" d="M10564 19347.3C10554.2 19346.7 10545.6 19355.7 10544.8 19367.3C10544.1 19379 10551.5 19389 10561.3 19389.6C10571.2 19390.2 10579.8 19381.3 10580.5 19369.6C10581.3 19357.9 10573.9 19348 10564 19347.3Z" fill="#FF6584"/>
<path id="Vector_74" d="M10662.7 19417.3L10680.5 19349.5L10656.5 19374.5L10662.7 19417.3Z" fill="#FF6584"/>
<path id="Vector_75" d="M10610.8 19148.8L10625 19164.8L10625.6 19149.7L10630.3 19150L10629.7 19166L10651.2 19151.3L10659.8 19151.9L10629.4 19172.6L10627.5 19220L10626.1 19255.8L10621.3 19255.6L10622.8 19219.7L10624.7 19172.3L10603.4 19148.3L10610.8 19148.8Z" fill="#3F3D56"/>
<path id="Vector_76" d="M10682.2 19153.3L10696.5 19169.4L10697.1 19154.3L10701.8 19154.6L10701.1 19170.6L10722.7 19155.9L10731.3 19156.5L10700.9 19177.1L10699 19224.5L10697.5 19260.3L10692.8 19260.2L10694.2 19224.2L10696.1 19176.9L10674.9 19152.9L10682.2 19153.3Z" fill="#3F3D56"/>
<path id="Vector_77" d="M10641.2 19612.2C10645.4 19612.5 10649.3 19608.9 10652.2 19603.2C10653.8 19612.1 10657.9 19618.6 10663.2 19618.9C10663.6 19618.9 10664 19618.8 10664.3 19618.8C10665.8 19628.3 10670.1 19635.3 10675.6 19635.6C10683 19636.1 10689.8 19624.7 10690.7 19610.1C10691.6 19595.5 10686.4 19583.3 10679 19582.8C10678.6 19582.8 10678.3 19582.9 10677.9 19582.9C10676.5 19573.4 10672.2 19566.4 10666.6 19566.1C10662.5 19565.8 10658.5 19569.4 10655.7 19575.1C10654.1 19566.2 10649.9 19559.7 10644.6 19559.4C10637.2 19558.9 10630.5 19570.3 10629.5 19584.9C10628.6 19599.5 10633.8 19611.7 10641.2 19612.2Z" fill="#3F3D56"/>
</g>
<g id="plant">
<path id="Vector_78" d="M10728.2 16894.8C10723.6 16926.2 10758.8 16939.9 10792.5 16944.8C10826.3 16949.8 10865.4 16952.5 10879.3 16976.7C10899.1 17011.3 10856.1 17065 10823 17109.9C10798.4 17143.2 10777.9 17177.4 10761.9 17211.9C10754.8 17225.7 10750.4 17239.6 10749 17253C10748 17271.8 10757.4 17286.9 10766.8 17301.1C10798.3 17348.6 10831.5 17395 10866.5 17440.3" stroke="#3F3D56" stroke-width="4" stroke-miterlimit="10"/>
<path id="Vector_79" d="M10784.2 17493.9C10790.2 17502.4 10799.5 17508.6 10811.2 17512C10822.9 17515.3 10836.6 17515.6 10851.1 17512.9L10855 17478.3L10871.7 17507.2C10881.4 17503.6 10890.9 17498.8 10899.8 17493C10915.4 17482.8 10928.6 17469.9 10937.7 17455.8C10946.7 17441.8 10951.2 17427.3 10950.6 17414.1C10950 17401 10944.4 17389.8 10934.3 17382C10924.3 17374.1 10910.3 17370 10894.2 17370.2C10878.1 17370.3 10860.6 17374.6 10843.8 17382.7C10827.1 17390.7 10811.8 17402 10800.1 17415.3C10788.3 17428.5 10780.5 17443.1 10777.6 17457C10774.8 17471 10777.1 17483.9 10784.1 17493.9L10784.2 17493.9Z" fill="#57B793"/>
<path id="Vector_80" d="M10710.2 17046C10712.1 17030 10720.9 17013 10734.9 16997.8C10748.9 16982.6 10767.4 16970.1 10787.3 16962.5C10807.1 16954.8 10827.1 16952.5 10843.9 16955.8C10860.8 16959.1 10873.4 16967.9 10879.6 16980.8C10885.9 16993.6 10885.4 17009.6 10878.3 17026.2C10871.3 17042.8 10858 17058.9 10840.7 17071.9C10823.4 17084.8 10803.2 17093.8 10783.5 17097.3C10763.8 17100.9 10745.7 17098.7 10732.3 17091.2L10766.5 17033.3L10715.8 17075.6C10710.8 17067.2 10708.9 17057 10710.2 17046V17046Z" fill="#57B793"/>
<path id="Vector_81" d="M10813 17124.9C10832.6 17111.8 10855 17103.7 10875.8 17102.3C10896.7 17100.9 10914.4 17106.3 10925.5 17117.5C10936.7 17128.6 10940.5 17144.6 10936.1 17162.4C10931.8 17180.2 10919.6 17198.5 10902 17213.7L10889.1 17191.5L10885.3 17226.5C10874.9 17233.3 10863.6 17238.8 10852.1 17242.5C10840.6 17246.3 10829.2 17248.2 10818.4 17248.3C10807.6 17248.4 10797.8 17246.6 10789.4 17243.1C10781 17239.5 10774.3 17234.2 10769.6 17227.5C10765.4 17221.6 10762.8 17214.8 10762 17207.2C10760.5 17193.8 10764.6 17178.6 10773.8 17163.9C10782.9 17149.2 10796.6 17135.6 10813 17124.9V17124.9Z" fill="#57B793"/>
<path id="Vector_82" d="M10668.3 17330.5C10680.5 17322.6 10693.9 17316.7 10707.3 17313.1C10720.7 17309.6 10733.8 17308.5 10745.5 17310C10757.3 17311.5 10767.4 17315.6 10775 17321.8C10782.7 17328.1 10787.7 17336.4 10789.6 17346C10791.6 17355.7 10790.5 17366.6 10786.3 17377.7C10782.2 17388.8 10775.2 17399.9 10765.8 17410.2C10756.4 17420.4 10745 17429.5 10732.3 17436.7C10719.7 17443.9 10706.2 17449.1 10692.8 17451.8L10691.5 17417.4L10673.3 17453.8C10651.8 17453.9 10634.3 17446.5 10624.8 17433C10621.4 17428.3 10619.1 17423 10617.9 17417.1C10615.1 17403.4 10618.5 17387.5 10627.6 17371.9C10636.7 17356.2 10650.9 17341.7 10668.3 17330.5V17330.5Z" fill="#57B793"/>
<path id="Vector_83" opacity="0.1" d="M10786.5 17473.1C10804.4 17460.4 10820.3 17445.5 10838.6 17433.3C10857 17421.1 10879.4 17411.5 10897.1 17413.9C10906.6 17415.2 10913.8 17419.7 10922.6 17422.1C10930.9 17424.2 10940.6 17424.3 10950.7 17422.3C10951.6 17412.6 10949.8 17403.7 10945.6 17396C10941.4 17388.4 10934.8 17382.3 10926.3 17378C10917.8 17373.8 10907.6 17371.5 10896.2 17371.4C10884.9 17371.3 10872.7 17373.3 10860.5 17377.3C10848.3 17381.3 10836.4 17387.2 10825.4 17394.7C10814.5 17402.1 10804.7 17410.9 10796.9 17420.5C10789.1 17430.1 10783.3 17440.3 10780 17450.4C10776.7 17460.5 10775.9 17470.3 10777.6 17479.1C10780.6 17477.2 10783.6 17475.2 10786.5 17473.1Z" fill="black"/>
<path id="Vector_84" opacity="0.1" d="M10668.2 17330.5C10681.9 17321.6 10697 17315.1 10712 17311.7C10727 17308.3 10741.4 17308 10753.8 17310.9C10766.2 17313.8 10776.1 17319.8 10782.7 17328.3C10789.3 17336.8 10792.3 17347.5 10791.4 17359.4C10783.3 17360.5 10775.5 17360.3 10768.6 17358.8C10759.3 17356.6 10751.8 17352.1 10741.8 17351C10723.3 17348.9 10699.8 17358.9 10680.5 17371.3C10661.3 17383.8 10644.6 17399 10626 17411.9C10623.3 17413.5 10620.4 17415.6 10618 17417.2C10615.1 17403.5 10618.5 17387.6 10627.6 17371.9C10636.6 17356.3 10650.9 17341.7 10668.2 17330.5Z" fill="black"/>
<path id="Vector_85" opacity="0.1" d="M10813 17124.9C10826.6 17116.1 10841.5 17109.6 10856.4 17106.1C10871.3 17102.6 10885.6 17102.2 10898 17105C10910.3 17107.8 10920.4 17113.6 10927 17122C10933.7 17130.3 10936.9 17140.9 10936.2 17152.6C10927.7 17153.8 10919.6 17153.8 10912.3 17152.4C10902.4 17150.3 10894.4 17146 10884 17144.9C10864.3 17143.3 10839.1 17153.7 10818.6 17166.6C10798 17179.6 10781.3 17194.1 10762 17207.3C10760.5 17193.8 10764.6 17178.7 10773.7 17163.9C10782.9 17149.2 10796.6 17135.6 10813 17124.9V17124.9Z" fill="black"/>
<path id="Vector_86" opacity="0.1" d="M10710.2 17046C10711.2 17027.8 10721.3 17007.9 10738.3 16990.7C10755.3 16973.5 10777.9 16960.4 10801 16954.2C10824.1 16948 10845.9 16949.4 10861.5 16957.9C10877.2 16966.4 10885.4 16981.4 10884.5 16999.6C10876 17000.7 10867.9 17000.8 10860.4 16999.9C10848.9 16998.5 10839.5 16994.6 10827.1 16994.2C10804 16993.6 10774.6 17005.4 10750.5 17019.5C10736.7 17027.8 10723.3 17036.7 10710.2 17046V17046Z" fill="black"/>
<path id="Vector_87" d="M10865.2 16844.5C10865.2 16844.5 10801.9 16884.7 10788.1 16905.4C10774.3 16926.2 10701.8 16984.9 10688 16973.5C10674.2 16962.1 10548.1 16959.9 10620.2 16915.8C10692.3 16871.7 10792.7 16821.1 10816.7 16817.2C10840.7 16813.3 10865.2 16844.5 10865.2 16844.5Z" fill="#656380"/>
<path id="Vector_88" opacity="0.2" d="M10621.8 16921.7C10693.9 16877.4 10794.4 16827.2 10818.3 16823.1C10836.5 16820.1 10855.1 16837.5 10863 16846L10865.1 16844.7C10865.1 16844.7 10840.5 16813.3 10816.7 16817.1C10792.9 16820.9 10692.4 16871.5 10620.2 16915.7C10599.3 16928.3 10595.2 16937.7 10599.9 16944.7C10600.4 16938.5 10606.5 16931.1 10621.8 16921.7Z" fill="black"/>
</g>
<g id="plant_2">
<path id="Vector_89" d="M5452.95 13180C5440.2 13171.2 5424.16 13180.6 5412.44 13191.4C5400.71 13202.2 5388.52 13215.4 5373.78 13214.9C5352.69 13214 5340.77 13186.6 5329.99 13164.7C5322.01 13148.4 5312.45 13133.4 5301.52 13119.9C5297.33 13114.2 5292.34 13109.5 5286.78 13106C5278.62 13101.3 5269.24 13101.3 5260.21 13101.4C5230.09 13101.7 5199.98 13102.9 5169.88 13105" stroke="#3F3D56" stroke-width="4" stroke-miterlimit="10"/>
<path id="Vector_90" d="M5169.04 13063.7C5163.52 13063.9 5158.12 13065.8 5153.34 13069.2C5148.56 13072.6 5144.56 13077.4 5141.69 13083.1L5156.1 13092.3L5138.45 13091.7C5137.34 13096 5136.81 13100.4 5136.88 13104.8C5137.05 13112.7 5139.14 13120.3 5142.87 13126.7C5146.61 13133.1 5151.83 13138 5157.88 13140.8C5163.93 13143.5 5170.54 13144.1 5176.87 13142.3C5183.2 13140.5 5188.96 13136.5 5193.44 13130.8C5197.92 13125.1 5200.91 13117.9 5202.03 13110.1C5203.16 13102.3 5202.36 13094.4 5199.75 13087.2C5197.14 13080 5192.83 13074 5187.36 13069.8C5181.9 13065.6 5175.52 13063.5 5169.04 13063.7L5169.04 13063.7Z" fill="#57B793"/>
<path id="Vector_91" d="M5390.33 13139.2C5396.93 13143.6 5402.1 13150.5 5404.96 13158.9C5407.82 13167.4 5408.2 13176.7 5406.03 13185.5C5403.86 13194.3 5399.29 13201.9 5393.06 13207.1C5386.84 13212.3 5379.35 13214.7 5371.84 13214C5364.34 13213.4 5357.28 13209.5 5351.85 13203.3C5346.42 13197 5342.95 13188.6 5342.02 13179.6C5341.08 13170.5 5342.74 13161.3 5346.72 13153.5C5350.7 13145.8 5356.76 13139.8 5363.88 13136.8L5380.2 13162.1L5375.5 13134.5C5380.69 13134.6 5385.77 13136.3 5390.33 13139.2V13139.2Z" fill="#57B793"/>
<path id="Vector_92" d="M5326.06 13157.7C5326.44 13167.6 5323.74 13177.4 5318.5 13185.1C5313.26 13192.8 5305.85 13197.8 5297.73 13199.3C5289.61 13200.7 5281.37 13198.4 5274.63 13192.8C5267.88 13187.2 5263.12 13178.8 5261.28 13169.1L5274.83 13169.6L5260.26 13160.3C5260.14 13155 5260.88 13149.8 5262.43 13144.9C5263.99 13139.9 5266.32 13135.4 5269.31 13131.6C5272.3 13127.8 5275.87 13124.7 5279.83 13122.5C5283.8 13120.4 5288.06 13119.2 5292.39 13119.1C5296.19 13118.9 5299.98 13119.5 5303.59 13121C5310.02 13123.5 5315.63 13128.4 5319.66 13135C5323.68 13141.6 5325.92 13149.5 5326.06 13157.7V13157.7Z" fill="#57B793"/>
<path id="Vector_93" d="M5274.81 13059.8C5274.88 13065.9 5273.77 13072 5271.59 13077.6C5269.41 13083.1 5266.2 13088 5262.22 13091.8C5258.24 13095.6 5253.59 13098.3 5248.64 13099.6C5243.69 13100.9 5238.57 13100.7 5233.68 13099.2C5228.79 13097.7 5224.26 13094.9 5220.45 13090.9C5216.63 13086.9 5213.63 13081.9 5211.69 13076.2C5209.74 13070.6 5208.9 13064.5 5209.23 13058.4C5209.55 13052.2 5211.04 13046.3 5213.57 13040.9L5229.37 13048.3L5218.17 13033.6C5224.19 13025.9 5232.45 13021.4 5241.14 13021.1C5244.19 13021 5247.24 13021.4 5250.19 13022.3C5257.12 13024.4 5263.28 13029.2 5267.73 13036C5272.17 13042.8 5274.66 13051.1 5274.81 13059.8V13059.8Z" fill="#57B793"/>
<path id="Vector_94" opacity="0.1" d="M5177.7 13069.3C5178.34 13078.5 5180.54 13087.5 5180.83 13096.8C5181.11 13106 5179.11 13116.1 5173.07 13121.9C5169.82 13124.9 5165.76 13126.5 5162.21 13129C5158.92 13131.5 5156.17 13134.9 5154.21 13139C5158.31 13141.4 5162.81 13142.9 5167.4 13143.1C5172 13143.3 5176.59 13142.4 5180.88 13140.4C5185.17 13138.3 5189.07 13135.2 5192.32 13131.2C5195.57 13127.2 5198.1 13122.5 5199.74 13117.2C5201.38 13112 5202.1 13106.4 5201.85 13100.9C5201.6 13095.3 5200.39 13089.9 5198.3 13084.9C5196.2 13080 5193.27 13075.6 5189.69 13072.1C5186.1 13068.7 5181.96 13066.1 5177.51 13064.8C5177.53 13066.3 5177.59 13067.8 5177.7 13069.3Z" fill="black"/>
<path id="Vector_95" opacity="0.1" d="M5274.81 13059.8C5274.93 13066.7 5273.58 13073.5 5270.9 13079.6C5268.22 13085.6 5264.3 13090.8 5259.51 13094.5C5254.72 13098.2 5249.23 13100.4 5243.57 13100.8C5237.9 13101.2 5232.26 13099.9 5227.19 13096.8C5228.98 13093.7 5231.25 13091 5233.88 13088.9C5237.48 13086.1 5241.62 13084.5 5244.92 13081.2C5251.06 13075.1 5253.24 13064.5 5253.07 13054.9C5252.91 13045.2 5250.82 13035.9 5250.27 13026.4C5250.3 13025 5250.17 13023.5 5250.17 13022.3C5257.1 13024.4 5263.26 13029.2 5267.71 13036C5272.16 13042.7 5274.65 13051.1 5274.81 13059.8Z" fill="black"/>
<path id="Vector_96" opacity="0.1" d="M5326.06 13157.7C5326.21 13164.5 5324.9 13171.3 5322.28 13177.4C5319.65 13183.4 5315.79 13188.6 5311.06 13192.3C5306.34 13196.1 5300.91 13198.3 5295.29 13198.8C5289.68 13199.2 5284.07 13198 5279 13195C5280.84 13191.8 5283.16 13188.9 5285.85 13186.6C5289.52 13183.6 5293.73 13181.8 5297.12 13178.3C5303.42 13171.7 5305.82 13160.4 5305.83 13150.2C5305.84 13140 5304.03 13130.8 5303.59 13121C5310.02 13123.5 5315.64 13128.4 5319.67 13135C5323.69 13141.6 5325.93 13149.5 5326.06 13157.7V13157.7Z" fill="black"/>
<path id="Vector_97" opacity="0.1" d="M5390.33 13139.3C5398.2 13143.7 5404.25 13151.8 5407.17 13161.8C5410.08 13171.7 5409.61 13182.7 5405.87 13192.2C5402.12 13201.8 5395.4 13209.2 5387.19 13212.8C5378.97 13216.4 5369.94 13216 5362.07 13211.5C5363.92 13208.2 5366.15 13205.3 5368.69 13202.9C5372.56 13199.1 5376.95 13196.7 5380.62 13192.4C5387.39 13184.4 5390.41 13171.3 5390.85 13159.5C5391.01 13152.8 5390.83 13146 5390.33 13139.3V13139.3Z" fill="black"/>
<path id="Vector_98" d="M5436.89 13239.9C5436.89 13239.9 5436.7 13208.4 5431.31 13198.8C5425.92 13189.1 5420.04 13150.2 5429.02 13147.9C5438 13145.6 5474.48 13101.4 5473.93 13137C5473.38 13172.5 5467.77 13219.5 5462.76 13228.9C5457.74 13238.3 5436.89 13239.9 5436.89 13239.9Z" fill="#656380"/>
<path id="Vector_99" opacity="0.2" d="M5470.84 13136.2C5470.39 13171.8 5464.55 13218.8 5459.67 13228.1C5455.9 13235.3 5442.86 13237.9 5436.84 13238.8L5436.82 13239.8C5436.82 13239.8 5457.81 13238.2 5462.82 13228.9C5467.84 13219.6 5473.47 13172.6 5473.99 13137C5474.19 13126.7 5471.19 13123.1 5466.74 13123.2C5469.33 13124.8 5470.92 13128.6 5470.84 13136.2Z" fill="black"/>
</g>
<g id="plant_3">
<path id="Vector_100" d="M5772 15177C5758.33 15169.8 5743.47 15180.9 5733.05 15193C5722.64 15205 5712.04 15219.6 5697.33 15220.7C5676.29 15222.3 5661.31 15196.4 5648.1 15175.9C5638.31 15160.6 5627.1 15146.8 5614.69 15134.6C5609.89 15129.5 5604.39 15125.4 5598.46 15122.5C5589.82 15118.8 5580.5 15119.8 5571.54 15121C5541.66 15124.7 5511.88 15129.4 5482.22 15134.9" stroke="#3F3D56" stroke-width="4" stroke-miterlimit="10"/>
<path id="Vector_101" d="M5476.66 15094C5471.2 15094.8 5466.06 15097.3 5461.7 15101.2C5457.33 15105.1 5453.9 15110.3 5451.71 15116.4L5467.08 15123.9L5449.47 15125.3C5448.85 15129.6 5448.83 15134.1 5449.42 15138.5C5450.48 15146.3 5453.42 15153.6 5457.87 15159.5C5462.31 15165.5 5468.06 15169.7 5474.39 15171.8C5480.72 15173.9 5487.34 15173.6 5493.42 15171.2C5499.51 15168.7 5504.78 15164 5508.57 15157.8C5512.37 15151.6 5514.51 15144.1 5514.74 15136.3C5514.97 15128.5 5513.27 15120.6 5509.86 15113.8C5506.44 15107 5501.47 15101.4 5495.56 15097.9C5489.65 15094.4 5483.07 15093 5476.66 15094L5476.66 15094Z" fill="#57B793"/>
<path id="Vector_102" d="M5705.13 15143.7C5712.19 15147.2 5718.12 15153.6 5721.92 15161.6C5725.72 15169.6 5727.17 15178.9 5726.02 15187.9C5724.87 15196.8 5721.2 15204.9 5715.61 15210.8C5710.02 15216.7 5702.86 15220 5695.32 15220.1C5687.79 15220.3 5680.35 15217.3 5674.23 15211.7C5668.12 15206.1 5663.71 15198.2 5661.75 15189.3C5659.79 15180.4 5660.39 15171.1 5663.45 15162.9C5666.51 15154.7 5671.85 15148.1 5678.57 15144.3L5697.68 15167.5L5689.87 15140.7C5695.04 15140.2 5700.27 15141.3 5705.13 15143.7V15143.7Z" fill="#57B793"/>
<path id="Vector_103" d="M5643.4 15169.4C5644.91 15179.2 5643.35 15189.2 5639.02 15197.5C5634.69 15205.7 5627.9 15211.6 5620 15213.9C5612.1 15216.3 5603.65 15214.9 5596.31 15210.1C5588.97 15205.4 5583.28 15197.5 5580.34 15188.1L5593.85 15187L5578.32 15179.5C5577.6 15174.3 5577.73 15169 5578.72 15163.9C5579.7 15158.8 5581.5 15154.1 5584.03 15150C5586.56 15145.8 5589.76 15142.3 5593.45 15139.8C5597.14 15137.2 5601.25 15135.5 5605.53 15134.9C5609.29 15134.3 5613.12 15134.5 5616.87 15135.5C5623.55 15137.3 5629.69 15141.5 5634.44 15147.6C5639.19 15153.6 5642.32 15161.3 5643.4 15169.4V15169.4Z" fill="#57B793"/>
<path id="Vector_104" d="M5581.29 15078C5582.06 15084.1 5581.66 15090.2 5580.12 15096C5578.59 15101.8 5575.96 15107 5572.44 15111.2C5568.92 15115.5 5564.61 15118.6 5559.84 15120.5C5555.07 15122.3 5549.97 15122.8 5544.94 15121.9C5539.91 15120.9 5535.08 15118.6 5530.83 15115.1C5526.59 15111.6 5523.04 15106.9 5520.46 15101.5C5517.88 15096.2 5516.34 15090.2 5515.97 15084.1C5515.59 15077.9 5516.39 15071.9 5518.3 15066.3L5534.84 15071.8L5522.02 15058.4C5527.13 15050.1 5534.82 15044.7 5543.42 15043.4C5546.43 15043 5549.51 15043 5552.54 15043.6C5559.67 15044.9 5566.34 15048.9 5571.53 15055.2C5576.72 15061.4 5580.15 15069.4 5581.29 15078V15078Z" fill="#57B793"/>
<path id="Vector_105" opacity="0.1" d="M5485.9 15098.5C5487.59 15107.6 5490.8 15116.3 5492.15 15125.5C5493.49 15134.6 5492.66 15144.9 5487.31 15151.3C5484.43 15154.7 5480.57 15156.7 5477.34 15159.7C5474.35 15162.5 5472.01 15166.2 5470.53 15170.4C5474.89 15172.4 5479.51 15173.3 5484.11 15173C5488.7 15172.7 5493.16 15171.3 5497.19 15168.8C5501.22 15166.2 5504.73 15162.7 5507.5 15158.4C5510.28 15154 5512.24 15149 5513.28 15143.6C5514.31 15138.3 5514.39 15132.6 5513.5 15127.1C5512.62 15121.6 5510.79 15116.4 5508.15 15111.7C5505.5 15107 5502.09 15103 5498.13 15100C5494.18 15096.9 5489.77 15094.9 5485.19 15094C5485.38 15095.5 5485.62 15097 5485.9 15098.5Z" fill="black"/>
<path id="Vector_106" opacity="0.1" d="M5581.29 15078C5582.19 15084.8 5581.63 15091.7 5579.67 15098.1C5577.7 15104.4 5574.39 15110 5570.06 15114.2C5565.73 15118.5 5560.52 15121.3 5554.94 15122.3C5549.36 15123.4 5543.6 15122.7 5538.21 15120.2C5539.63 15116.9 5541.58 15114 5543.96 15111.6C5547.21 15108.4 5551.13 15106.3 5554.03 15102.6C5559.44 15095.9 5560.39 15085.1 5559.13 15075.6C5557.86 15066 5554.72 15057 5553.09 15047.6C5552.96 15046.2 5552.66 15044.8 5552.52 15043.6C5559.65 15044.9 5566.32 15048.9 5571.51 15055.1C5576.7 15061.4 5580.14 15069.4 5581.29 15078Z" fill="black"/>
<path id="Vector_107" opacity="0.1" d="M5643.4 15169.4C5644.33 15176.2 5643.8 15183.1 5641.89 15189.4C5639.97 15195.7 5636.72 15201.2 5632.46 15205.5C5628.19 15209.8 5623.05 15212.6 5617.53 15213.7C5612 15214.8 5606.28 15214.2 5600.91 15211.9C5602.37 15208.4 5604.35 15205.3 5606.75 15202.8C5610.05 15199.3 5614.03 15197 5617.01 15193.2C5622.51 15185.9 5623.6 15174.4 5622.44 15164.3C5621.29 15154.1 5618.43 15145.2 5616.87 15135.5C5623.55 15137.2 5629.69 15141.5 5634.44 15147.5C5639.19 15153.6 5642.32 15161.3 5643.4 15169.4V15169.4Z" fill="black"/>
<path id="Vector_108" opacity="0.1" d="M5705.14 15143.7C5713.46 15147.3 5720.41 15154.6 5724.44 15164.2C5728.47 15173.7 5729.26 15184.6 5726.63 15194.6C5724 15204.5 5718.17 15212.7 5710.43 15217.2C5702.68 15221.7 5693.65 15222.3 5685.32 15218.7C5686.78 15215.3 5688.67 15212.1 5690.91 15209.4C5694.33 15205.3 5698.41 15202.3 5701.57 15197.6C5707.37 15188.9 5708.88 15175.5 5707.97 15163.8C5707.35 15157.1 5706.41 15150.4 5705.14 15143.7V15143.7Z" fill="black"/>
<path id="Vector_109" d="M5762.9 15238.4C5762.9 15238.4 5759.11 15207.1 5752.65 15198.1C5746.2 15189.2 5735.9 15151.2 5744.56 15147.9C5753.22 15144.5 5784.41 15096.5 5787.93 15131.9C5791.44 15167.3 5791.25 15214.6 5787.34 15224.5C5783.43 15234.4 5762.9 15238.4 5762.9 15238.4Z" fill="#656380"/>
<path id="Vector_110" opacity="0.2" d="M5784.77 15131.5C5788.38 15166.9 5787.95 15214.2 5784.19 15224.1C5781.25 15231.6 5768.6 15235.7 5762.71 15237.3L5762.81 15238.3C5762.81 15238.3 5783.49 15234.3 5787.41 15224.5C5791.32 15214.7 5791.54 15167.3 5787.99 15131.9C5787.02 15121.7 5783.62 15118.5 5779.21 15119.1C5781.96 15120.3 5783.98 15124 5784.77 15131.5Z" fill="black"/>
</g>
<path id="bush" d="M5281.01 14172.1C5282.79 14181.8 5287.6 14190.7 5294.75 14197.5C5238.48 14230.2 5205.69 14272 5212.16 14311.8C5218.64 14351.7 5262.96 14381 5326.68 14394.2C5322.04 14402.8 5320.29 14412.8 5321.68 14422.6C5329.03 14467.9 5410.86 14492.3 5504.43 14477.1L5437.12 14062.6C5343.55 14077.8 5273.65 14126.8 5281.01 14172.1Z" fill="#D0CDE1"/>
<path id="bush_2" d="M5948.38 15974.6C5956.48 15985 5967.99 15992.3 5981.22 15995.4C5928.46 16073.4 5911.32 16146 5943.5 16189.1C5975.68 16232.2 6050.13 16236.3 6139.9 16207.9C6139.13 16221.5 6142.84 16234.6 6150.48 16245.3C6187.04 16294.3 6306.79 16266.7 6417.94 16183.7L6083.43 15735.7C5972.28 15818.7 5911.81 15925.7 5948.38 15974.6Z" fill="#D0CDE1"/>
<g id="treeinwest">
<path id="Vector_111" d="M8120.24 8467.09C8404.52 8460.93 8629.63 8209.05 8623.03 7904.49C8616.44 7599.93 8380.63 7358.02 8096.35 7364.18C7812.07 7370.34 7586.96 7622.23 7593.56 7926.79C7600.16 8231.35 7835.96 8473.25 8120.24 8467.09Z" fill="#6C63FF"/>
<path id="Vector_112" d="M8193.86 9575.58L8088.44 9577.86L8098.74 7832.75L8193.86 9575.58Z" fill="#201E2C"/>
<path id="Vector_113" d="M8115.2 8163.08L8224.74 7992.89L8114.55 8204.66L8101.65 8181.67L8115.2 8163.08Z" fill="#3F3D56"/>
<path id="Vector_114" d="M8106.47 8332.77L7989.64 8167.48L8108.92 8374.26L8120.81 8350.75L8106.47 8332.77Z" fill="#3F3D56"/>
</g>
<g id="parkbench">
<path id="Vector_115" d="M8481.6 17571L9645.75 17570.5L9645.73 17537L9464.18 17537L9464.06 17218.1L9426.5 17218.1L9426.62 17537L8719.48 17537.3L8719.36 17218.4L8681.8 17218.4L8681.92 17537.3L8481.59 17537.4L8481.6 17571Z" fill="#3F3D56"/>
<path id="Vector_116" d="M8479.35 17671.4L9643.5 17671L9643.49 17637.4L8479.34 17637.8L8479.35 17671.4Z" fill="#3F3D56"/>
<path id="Vector_117" d="M8479.38 17755.3L9643.53 17754.9L9643.52 17721.3L8479.37 17721.8L8479.38 17755.3Z" fill="#3F3D56"/>
<path id="Vector_118" d="M8479.41 17839.3L9643.56 17838.8L9643.55 17805.3L8479.4 17805.7L8479.41 17839.3Z" fill="#3F3D56"/>
</g>
<g id="treewithsnow">
<path id="Vector_119" d="M5488.15 9435.65L5484.55 9174L5519.03 9473.18L5486.7 9465.82L5488.15 9435.65Z" fill="#3F3D56"/>
<path id="Vector_120" d="M5607.24 9595.03L5347.14 9566.33L5641.63 9629.36L5637.41 9596.48L5607.24 9595.03Z" fill="#3F3D56"/>
<path id="Vector_121" d="M6653.53 10609.4L6534.07 10717.9L5217.82 9159.19L6653.53 10609.4Z" fill="#3F3D56"/>
<path id="Vector_122" d="M5114.62 8286.33C5070.99 8244.49 5010.21 8222.51 4943.12 8224.3C4876.04 8226.1 4807 8251.55 4748.32 8296.12C4689.65 8340.7 4645.15 8401.49 4622.75 8467.68C4600.36 8533.86 4601.52 8601.12 4626.05 8657.47C4623.18 8659.93 4620.31 8662.37 4617.49 8664.93C4567.67 8710.19 4531.19 8767.42 4513.49 8828.07C4495.79 8888.72 4497.83 8949.53 4519.31 9001.4C4475.51 9019.51 4436.28 9050.44 4407.76 9089.35C4379.23 9128.25 4363.03 9172.93 4361.67 9216.38L5080.99 8563.07C5102.02 8544.06 5119.7 8521.77 5132.97 8497.54C5146.24 8473.3 5154.82 8447.62 5158.22 8422.03C5161.61 8396.43 5159.73 8371.46 5152.7 8348.59C5145.67 8325.73 5133.63 8305.45 5117.31 8288.97C5116.42 8288.08 5115.52 8287.2 5114.62 8286.33Z" fill="#E6E6E6"/>
<path id="Vector_123" d="M4873.91 9229.56C4908.11 9198.49 4915.24 9150.62 4889.82 9122.63C4864.4 9094.64 4816.06 9097.14 4781.86 9128.21C4747.65 9159.28 4740.52 9207.15 4765.94 9235.14C4791.36 9263.13 4839.7 9260.63 4873.91 9229.56Z" fill="#E6E6E6"/>
<path id="Vector_124" d="M4944.71 8931.75C4973.19 8905.88 4979.13 8866.02 4957.96 8842.71C4936.8 8819.41 4896.55 8821.49 4868.06 8847.36C4839.58 8873.23 4833.65 8913.09 4854.82 8936.39C4875.98 8959.7 4916.23 8957.62 4944.71 8931.75Z" fill="#E6E6E6"/>
<path id="Vector_125" d="M5412.36 8940.9C5446.56 8909.83 5453.69 8861.96 5428.27 8833.97C5402.85 8805.98 5354.51 8808.48 5320.31 8839.55C5286.1 8870.61 5278.97 8918.49 5304.39 8946.48C5329.81 8974.46 5378.15 8971.97 5412.36 8940.9Z" fill="#E6E6E6"/>
<path id="Vector_126" d="M5153.6 9599.76C5187.81 9568.69 5194.93 9520.82 5169.52 9492.83C5144.1 9464.84 5095.76 9467.34 5061.55 9498.41C5027.34 9529.48 5020.22 9577.35 5045.64 9605.34C5071.06 9633.33 5119.4 9630.83 5153.6 9599.76Z" fill="#E6E6E6"/>
<path id="Vector_127" d="M5887.95 9464.55C5922.16 9433.48 5929.29 9385.61 5903.87 9357.62C5878.45 9329.63 5830.11 9332.13 5795.9 9363.2C5761.7 9394.27 5754.57 9442.14 5779.99 9470.13C5805.41 9498.11 5853.75 9495.62 5887.95 9464.55Z" fill="#E6E6E6"/>
<path id="Vector_128" d="M6631.24 10480.2C6630.76 10479.6 6630.36 10479 6629.85 10478.5C6622.16 10469.9 6611.97 10463.9 6600.23 10461C6588.49 10458.1 6575.57 10458.3 6562.67 10461.6C6549.77 10465 6537.3 10471.3 6526.41 10480.1C6515.52 10489 6506.56 10499.9 6500.35 10512C6483.91 10511.7 6466.73 10516.8 6451.45 10526.6C6436.16 10536.3 6423.62 10550.2 6415.73 10566C6407.84 10581.8 6405.05 10598.8 6407.78 10614.2C6410.51 10629.7 6418.62 10642.8 6430.85 10651.6C6430.53 10651.8 6430.2 10652.1 6429.88 10652.4C6420.01 10661.3 6412.02 10672.1 6406.59 10683.7C6401.16 10695.4 6398.44 10707.6 6398.65 10719.3C6398.87 10731.1 6402.01 10742.1 6407.82 10751.4C6413.63 10760.7 6421.94 10768 6432.06 10772.7C6442.18 10777.5 6453.82 10779.5 6466 10778.7C6478.19 10777.8 6490.57 10774.1 6502.12 10767.8C6513.67 10761.6 6524.05 10752.9 6532.4 10742.6C6540.75 10732.4 6546.83 10720.7 6550.13 10708.7C6562.17 10712.1 6575.54 10712.1 6588.93 10708.7C6602.31 10705.3 6615.26 10698.7 6626.48 10689.4C6637.69 10680.2 6646.8 10668.7 6652.9 10656C6659 10643.3 6661.87 10629.9 6661.24 10617.2C6672.6 10614.9 6683.79 10610.2 6694.01 10603.5C6704.23 10596.7 6713.24 10588.1 6720.38 10578.2C6727.53 10568.4 6732.64 10557.5 6735.34 10546.4C6738.05 10535.2 6738.29 10524.1 6736.04 10513.9C6733.79 10503.6 6729.11 10494.4 6722.33 10486.9C6715.56 10479.5 6706.85 10474 6696.84 10470.7C6686.83 10467.5 6675.76 10466.7 6664.42 10468.3C6653.08 10470 6641.75 10474 6631.24 10480.2V10480.2Z" fill="#E6E6E6"/>
<path id="Vector_129" d="M5733.78 9180.72C5748.03 9167.77 5751 9147.82 5740.41 9136.16C5729.82 9124.5 5709.68 9125.54 5695.42 9138.49C5681.17 9151.43 5678.2 9171.38 5688.79 9183.04C5699.39 9194.7 5719.53 9193.66 5733.78 9180.72Z" fill="#E6E6E6"/>
<path id="Vector_130" d="M5108.36 8823.97C5122.61 8811.02 5125.58 8791.08 5114.99 8779.41C5104.4 8767.75 5084.26 8768.79 5070 8781.74C5055.75 8794.68 5052.78 8814.63 5063.37 8826.29C5073.96 8837.95 5094.1 8836.91 5108.36 8823.97Z" fill="#E6E6E6"/>
<path id="Vector_131" d="M5496.21 9427.31C5510.47 9414.36 5513.43 9394.42 5502.84 9382.76C5492.25 9371.09 5472.11 9372.13 5457.86 9385.08C5443.61 9398.02 5440.64 9417.97 5451.23 9429.63C5461.82 9441.3 5481.96 9440.25 5496.21 9427.31Z" fill="#E6E6E6"/>
<path id="Vector_132" d="M5497.67 9387.45C5511.92 9374.51 5514.89 9354.56 5504.3 9342.9C5493.71 9331.24 5473.57 9332.28 5459.32 9345.22C5445.06 9358.17 5442.09 9378.12 5452.69 9389.78C5463.28 9401.44 5483.42 9400.4 5497.67 9387.45Z" fill="#E6E6E6"/>
<path id="Vector_133" d="M5493.99 9352.27C5508.24 9339.32 5511.21 9319.37 5500.62 9307.71C5490.03 9296.05 5469.88 9297.09 5455.63 9310.04C5441.38 9322.98 5438.41 9342.93 5449 9354.59C5459.59 9366.25 5479.73 9365.21 5493.99 9352.27Z" fill="#E6E6E6"/>
<path id="Vector_134" d="M5593.13 9585.89C5607.39 9572.95 5610.36 9553 5599.77 9541.34C5589.17 9529.67 5569.03 9530.72 5554.78 9543.66C5540.53 9556.61 5537.56 9576.55 5548.15 9588.21C5558.74 9599.88 5578.88 9598.84 5593.13 9585.89Z" fill="#E6E6E6"/>
<path id="Vector_135" d="M6189.87 9475.48C6204.12 9462.54 6207.09 9442.59 6196.5 9430.93C6185.9 9419.27 6165.76 9420.31 6151.51 9433.25C6137.26 9446.2 6134.29 9466.15 6144.88 9477.81C6155.47 9489.47 6175.61 9488.43 6189.87 9475.48Z" fill="#E6E6E6"/>
<path id="Vector_136" d="M5649.09 9989.75C5663.35 9976.8 5666.31 9956.86 5655.72 9945.19C5645.13 9933.53 5624.99 9934.57 5610.74 9947.52C5596.48 9960.46 5593.52 9980.41 5604.11 9992.07C5614.7 10003.7 5634.84 10002.7 5649.09 9989.75Z" fill="#E6E6E6"/>
<path id="Vector_137" d="M5089.41 9311.27C5103.66 9298.33 5106.63 9278.38 5096.04 9266.72C5085.45 9255.06 5065.31 9256.1 5051.05 9269.04C5036.8 9281.99 5033.83 9301.93 5044.42 9313.6C5055.01 9325.26 5075.16 9324.22 5089.41 9311.27Z" fill="#E6E6E6"/>
<path id="Vector_138" d="M5553.31 9583.53C5567.56 9570.58 5570.53 9550.64 5559.94 9538.97C5549.35 9527.31 5529.21 9528.35 5514.96 9541.3C5500.7 9554.24 5497.73 9574.19 5508.33 9585.85C5518.92 9597.51 5539.06 9596.47 5553.31 9583.53Z" fill="#E6E6E6"/>
<path id="Vector_139" d="M5496.81 9573.19C5511.06 9560.24 5514.03 9540.29 5503.44 9528.63C5492.85 9516.97 5472.71 9518.01 5458.46 9530.96C5444.2 9543.9 5441.23 9563.85 5451.83 9575.51C5462.42 9587.17 5482.56 9586.13 5496.81 9573.19Z" fill="#E6E6E6"/>
</g>
</g>
</g>
<defs>
<linearGradient id="paint0_linear" x1="9031.71" y1="9702.48" x2="9031.71" y2="17110" gradientUnits="userSpaceOnUse">
<stop stop-color="#E1D56B"/>
<stop offset="0.666667" stop-color="#2F3946"/>
<stop offset="0.921875" stop-color="#241C1D" stop-opacity="0.9"/>
</linearGradient>
<clipPath id="clip0">
<rect x="18539.6" y="64.7485" width="28119" height="18441" transform="rotate(90.2012 18539.6 64.7485)" fill="white"/>
</clipPath>
</defs>
</svg>
