<svg width="209" height="256" viewBox="0 0 209 256" fill="none" xmlns="http://www.w3.org/2000/svg">
<rect width="209" height="256" fill="#E5E5E5"/>
<g id="walking2 1">
<g clip-path="url(#clip0)">
<path id="Vector" d="M70.2834 115.055C70.2834 115.055 79.9559 117.962 78.7672 114.294C77.5784 110.626 71.2488 106.961 70.0879 107.726C68.927 108.492 70.2834 115.055 70.2834 115.055Z" fill="#FFC1C7"/>
<path id="Vector_2" opacity="0.1" d="M70.2834 115.055C70.2834 115.055 79.9559 117.962 78.7672 114.294C77.5784 110.626 71.2488 106.961 70.0879 107.726C68.927 108.492 70.2834 115.055 70.2834 115.055Z" fill="black"/>
<path id="backhand" d="M59.1906 74.0362C59.1906 74.0362 65.4388 77.2246 62.5433 87.3695C62.5433 87.3695 57.8191 105.051 59.8002 106.21C61.7813 107.369 70.9251 106.79 70.9251 106.79C70.9251 106.79 73.0586 116.645 71.9918 116.935C70.9251 117.224 53.8568 123.891 52.028 117.514C50.1993 111.138 52.028 83.6014 52.028 83.6014C52.028 83.6014 54.6188 69.9783 59.1906 74.0362Z" fill="#6C63FF"/>
<g id="neck">
<path id="Vector_3" d="M64.8292 58.0942C64.8292 58.0942 59.9525 68.8188 58.7334 69.1086C57.5142 69.3985 62.6956 81.8622 62.6956 81.8622C62.6956 81.8622 65.5911 72.5869 67.5723 71.7173C69.5534 70.8477 64.8292 58.0942 64.8292 58.0942Z" fill="#FFC1C7"/>
</g>
<path id="Vector_4" d="M57.8192 68.8188L58.5812 66.7898C58.5812 66.7898 63.8318 75.6927 64.0258 78.0528C64.1566 79.3772 64.0072 80.7462 63.6102 81.8622L60.5623 79.2535L59.0384 73.4564L57.8192 68.8188Z" fill="#3F3D56"/>
<path id="Vector_5" d="M66.9628 140.703C66.9628 140.703 68.182 147.659 67.2676 147.369C66.3532 147.079 66.3532 143.311 65.2865 143.311C64.2197 143.311 63.6101 140.123 63.6101 140.123L66.9628 140.703Z" fill="#3F3D56"/>
<path id="Vector_6" d="M59.1907 141.282C59.1907 141.282 55.6856 155.775 51.2662 154.326L50.4032 153.622C50.0426 153.329 49.7483 152.802 49.5723 152.136C49.3962 151.469 49.3499 150.706 49.4413 149.98C49.8624 146.642 50.6366 141.282 51.2662 141.282H59.1907Z" fill="#3F3D56"/>
<g id="face">
<path id="Vector_7" d="M68.7914 74.9058C65.4248 74.9058 62.6956 69.7149 62.6956 63.3116C62.6956 56.9083 65.4248 51.7174 68.7914 51.7174C72.158 51.7174 74.8872 56.9083 74.8872 63.3116C74.8872 69.7149 72.158 74.9058 68.7914 74.9058Z" fill="#FFC1C7"/>
<path id="Vector_8" d="M74.8743 64.0393C74.8743 64.0393 74.2779 60.4131 72.2967 61.8624C70.3156 63.3116 68.6392 66.5 68.1821 64.1812C67.7249 61.8624 66.5549 59.7292 65.7683 61.5204C64.9818 63.3117 61.4005 66.645 61.5529 64.9058C61.7053 63.1667 59.6479 52.8769 63.6102 49.1088C67.5725 45.3407 69.706 42.4421 71.6871 45.3407C73.6683 48.2392 78.5449 53.7465 77.783 57.2247C77.021 60.703 77.3258 62.4421 76.1066 63.3117C74.8874 64.1812 74.8743 64.0393 74.8743 64.0393Z" fill="#2F2E41"/>
</g>
<path id="Vector_9" d="M56.4889 72.113C56.4889 72.113 56.6413 69.5043 58.0128 70.0841C59.3844 70.6638 63.0419 82.2579 63.0419 82.2579C63.6388 85.9597 64.0972 89.7373 64.4135 93.5622C65.023 100.519 66.2422 126.026 67.4614 130.374C68.6805 134.722 66.3946 144.866 66.3946 144.866C66.3946 144.866 65.023 141.968 60.6036 143.707C56.1841 145.446 50.3931 147.185 49.9359 146.316C49.4787 145.446 50.3931 143.127 49.1739 140.229C47.9547 137.33 46.2784 82.5478 52.3742 76.4609C52.3742 76.4609 55.2697 72.113 56.4889 72.113Z" fill="#6C63FF"/>
<g id="mobile">
<path id="Vector_10" d="M85.245 110.649L75.1161 121.231C75.0574 121.305 74.9909 121.354 74.9212 121.374C74.8515 121.394 74.7803 121.385 74.7127 121.347C74.6451 121.309 74.5827 121.243 74.5298 121.155C74.477 121.066 74.435 120.956 74.4069 120.833L71.9256 110.969C71.8786 110.688 71.8863 110.384 71.9472 110.112C72.0081 109.841 72.1182 109.62 72.2575 109.49L80.667 101.246C80.7706 101.127 80.8935 101.085 81.0122 101.129C81.1309 101.172 81.2371 101.297 81.3104 101.48L85.5111 109.007C85.5524 109.147 85.5783 109.301 85.5873 109.461C85.5963 109.621 85.5881 109.783 85.5632 109.936C85.5383 110.09 85.4972 110.232 85.4426 110.355C85.3879 110.478 85.3206 110.578 85.245 110.649V110.649Z" fill="#2F2E41"/>
<path id="Vector_11" d="M84.5691 109.192L75.0732 119.515L72.5465 110.853L80.6925 102.427L84.5691 109.192Z" fill="#3F3D56"/>
<path id="Vector_12" d="M76.4231 106.265C76.3729 106.185 76.3719 106.03 76.421 105.918C76.47 105.806 76.5505 105.78 76.6007 105.86C76.6509 105.939 76.6519 106.095 76.6028 106.207C76.5538 106.318 76.4733 106.344 76.4231 106.265Z" fill="#F2F2F2"/>
<path id="Vector_13" d="M79.9787 115.06C79.9456 115.008 79.9453 114.905 79.9779 114.831C80.0105 114.756 80.0638 114.738 80.0969 114.791C80.1299 114.843 80.1303 114.946 80.0976 115.021C80.065 115.095 80.0117 115.113 79.9787 115.06Z" fill="#F2F2F2"/>
</g>
<path id="frontpalm" d="M70.142 119.448C70.142 119.448 79.9105 120.75 78.5592 117.292C77.2079 113.833 70.7351 111.225 69.6134 112.178C68.4918 113.132 70.142 119.448 70.142 119.448Z" fill="#FFC1C7"/>
<g id="backleg">
<path id="backlegupper" d="M67.8648 145.254C67.8648 145.254 73.2408 171.247 72.3448 181.479C72.3448 181.479 73.9575 182.946 72.3447 193.454C70.7319 203.961 72.8741 187.239 73.2325 187.792C73.5909 188.345 68.2268 201.534 63.5676 196.833C62.6716 200.981 62.6716 195.45 63.5676 196.833C63.5676 193.454 54.0664 164.611 54.0664 164.611C54.0664 164.611 48.332 156.591 50.4824 152.444C52.6328 148.296 50.3032 140 50.3032 140L66.6104 141.659L67.8648 145.254Z" fill="#2F2E41"/>
<path id="backleglower" d="M72.8434 187.661C72.8434 187.661 75.3042 196.024 73.7236 206.335C72.1431 216.647 73.8993 243.24 74.2505 243.782C74.6017 244.325 70.3869 250.023 65.8209 245.41C65.8209 245.41 65.6453 238.898 64.7672 237.541C63.8891 236.184 63.8891 207.692 64.7672 203.622C65.6453 199.551 62.5141 194.266 62.5141 194.266C62.5141 194.266 70.736 191.731 72.8434 187.661Z" fill="#2F2E41"/>
<path id="shoebackleg" d="M73.3009 239.654C73.3009 239.654 80.712 245.76 84.6126 245.563C88.5131 245.366 89.0982 249.501 84.6126 250.092C80.1269 250.683 66.6699 250.88 65.4998 250.092C64.3296 249.304 64.7196 241.033 65.4998 240.836C66.2799 240.639 73.3009 239.654 73.3009 239.654Z" fill="#3F3D56"/>
</g>
<g id="frontleg">
<path id="frontlegupper" d="M67.0563 148.532C67.0563 148.532 67.4261 175.072 64.6164 184.958C64.6164 184.958 65.9219 186.699 62.3568 196.723C58.7917 206.747 64.0487 190.716 64.296 191.326C64.5433 191.936 56.7921 203.895 53.1079 198.409C51.4462 202.318 52.4897 196.884 53.1079 198.409C53.7455 195.089 49.8662 164 49.8662 164C49.8662 164 46.4998 142.5 49.8662 140L66.5039 144.767L67.0563 148.532Z" fill="#2F2E41"/>
<path id="frontleglower" d="M63.9633 191.12C63.9633 191.12 64.799 199.794 61.3048 209.63C57.8105 219.465 54.5177 245.917 54.7598 246.515C55.0018 247.114 49.7946 251.928 46.1875 246.546C46.1875 246.546 47.2434 240.115 46.6382 238.619C46.0331 237.123 51.4061 209.132 53.0346 205.297C54.6631 201.462 52.5896 195.687 52.5896 195.687C52.5896 195.687 61.1294 194.726 63.9633 191.12Z" fill="#2F2E41"/>
<path id="shoefrontleg" d="M54.7111 243.65C54.7111 243.65 62.1157 249.741 66.0151 249.542C69.9146 249.343 70.4967 253.472 66.0121 254.065C61.5275 254.658 48.0747 254.864 46.9054 254.078C45.7361 253.292 46.1316 245.032 46.9116 244.835C47.6916 244.638 54.7111 243.65 54.7111 243.65Z" fill="#3F3D56"/>
</g>
<path id="fronthand" d="M56.9753 77.755C56.9753 77.755 63.2235 80.9434 60.328 91.0883C60.328 91.0883 55.6037 108.769 57.5849 109.929C59.566 111.088 68.7097 110.508 68.7097 110.508C68.7097 110.508 70.8433 120.364 69.7765 120.653C68.7097 120.943 51.6415 127.61 49.8127 121.233C47.984 114.856 49.8127 87.3202 49.8127 87.3202C49.8127 87.3202 52.4034 73.697 56.9753 77.755Z" fill="#6C63FF"/>
</g>
</g>
<defs>
<clipPath id="clip0">
<rect width="209" height="256" transform="matrix(-1 0 0 1 209 0)" fill="white"/>
</clipPath>
</defs>
</svg>
