<svg width="2919" height="4212" viewBox="0 0 2919 4212" fill="none" xmlns="http://www.w3.org/2000/svg">
<g id="world">
<path id="moon" opacity="0.2" d="M2574.15 4184.16C2584.09 4108.27 2566.35 4024.85 2524.11 3948.8C2481.86 3872.75 2417.87 3809.03 2343.56 3769.03C2269.25 3729.03 2189.46 3715.35 2118.46 3730.43C2047.46 3745.52 1989.87 3788.39 1955.98 3851.38C1962.05 3805.02 1978.26 3762.94 2003.49 3728.08C2028.72 3693.21 2062.37 3666.38 2102.11 3649.45C2141.85 3632.53 2186.72 3625.9 2233.62 3630.04C2280.52 3634.18 2328.33 3648.98 2373.73 3673.42C2419.13 3697.86 2461.04 3731.35 2496.55 3771.58C2532.06 3811.8 2560.33 3857.8 2579.39 3906.38C2598.46 3954.97 2607.86 4004.97 2606.96 4052.93C2606.05 4100.9 2594.86 4145.67 2574.15 4184.16V4184.16Z" fill="black"/>
<path id="sun" d="M632.191 620.33C785.936 620.34 910.579 484.09 910.589 316.009C910.599 147.928 785.972 11.6637 632.228 11.6544C478.483 11.645 353.84 147.894 353.83 315.975C353.819 484.057 478.446 620.321 632.191 620.33Z" fill="#FF6584"/>
<g id="bird1">
<path id="wing" d="M1121.03 109.379L1183.76 15.2986C1135.03 6.59327 1115 62.4723 1106.81 96.5322C1068.74 70.9361 1121.03 109.379 1121.03 109.379L1183.76 15.2986C1177.43 -12.0842 1135.45 126.981 1121.03 109.379Z" fill="#3F3D56"/>
<path id="Vector" d="M1132.56 94.0846C1140.75 60.0249 1083.82 85.3794 1132.56 94.0846C1094.48 68.4886 1038.82 89.1858 1038.82 89.1858L1164.33 162.961C1158 135.578 1146.98 111.686 1132.56 94.0846Z" fill="#3F3D56"/>
</g>
<g id="bird3">
<path id="wing_2" d="M2439.28 319.767L2502.02 225.686C2453.28 216.981 2433.26 272.86 2425.06 306.919C2386.99 281.323 2439.28 319.767 2439.28 319.767L2502.02 225.686C2495.68 198.303 2453.71 337.368 2439.28 319.767Z" fill="#3F3D56"/>
<path id="Vector_2" d="M2450.81 304.472C2459.01 270.412 2402.08 295.767 2450.81 304.472C2412.74 278.876 2357.07 299.573 2357.07 299.573L2482.59 373.348C2476.26 345.965 2465.23 322.073 2450.81 304.472Z" fill="#3F3D56"/>
</g>
<g id="bird2">
<path id="wing_3" d="M82.6725 509.665L145.404 415.584C96.6689 406.879 76.6466 462.758 68.4517 496.817C30.3782 471.221 82.6725 509.665 82.6725 509.665L145.404 415.584C139.071 388.201 97.0936 527.266 82.6725 509.665Z" fill="#3F3D56"/>
<path id="Vector_3" d="M94.2009 494.37C102.396 460.31 45.466 485.665 94.2009 494.37C56.1274 468.774 0.458811 489.471 0.458811 489.471L125.977 563.246C119.645 535.863 108.622 511.971 94.2009 494.37Z" fill="#3F3D56"/>
</g>
<g id="tree">
<path id="Vector_4" d="M2116.24 381.182L2112.54 374.424L2063.5 399.292L2067.19 406.05L2116.24 381.182Z" fill="#3F3D56"/>
<path id="Vector_5" d="M2052.46 321.893L2057.68 316.032L2012.48 285.723L2007.26 291.584L2052.46 321.893Z" fill="#3F3D56"/>
<path id="tree_2" d="M2056.74 0.349852L2058.49 0.349957L2089.86 1126.63L2023.49 1126.63L2056.74 0.349852Z" fill="#3F3D56"/>
</g>
<g id="land">
<ellipse id="innerland" cx="1531.79" cy="1930.7" rx="1386.35" ry="1005.55" fill="url(#paint0_linear)"/>
<ellipse id="outerland" cx="1534.87" cy="1930.7" rx="1302.99" ry="943.191" fill="#323036" fill-opacity="0.96"/>
</g>
<g id="house">
<path id="Vector_6" d="M1164.75 924.346C1168.2 934.543 1172.19 944.534 1176.69 954.277L1176.69 954.301C1180.33 962.231 1184.3 969.96 1188.58 977.487L1688.06 977.49L1688.06 978.529C1692.59 970.672 1696.76 962.581 1700.56 954.256C1705.07 944.526 1709.06 934.542 1712.5 924.349L1164.75 924.346ZM1177.34 953.963L1177.34 949.128L1699.98 949.13L1699.98 953.966L1177.34 953.963ZM1216.27 1018.13L1660.98 1018.13C1670.1 1006.84 1678.41 994.876 1685.86 982.325L1191.39 982.322C1198.83 994.873 1207.15 1006.84 1216.27 1018.13V1018.13Z" fill="#3F3D56"/>
<path id="Vector_7" d="M1720.31 897.223C1718.52 904.791 1716.43 912.213 1714.08 919.514L1163.17 919.511C1160.82 912.21 1158.73 904.788 1156.94 897.22L1720.31 897.223Z" fill="#3F3D56"/>
<path id="Vector_8" d="M1720.65 895.797L1720.65 892.388L1156.59 892.385L1156.59 895.794C1154.62 887.38 1152.98 878.814 1151.69 870.094L1725.55 870.097C1724.28 878.801 1722.64 887.367 1720.65 895.797Z" fill="#3F3D56"/>
<path id="Vector_9" d="M1150.67 838.133L1150.67 842.968L1728.36 842.971C1727.92 850.49 1727.23 857.912 1726.23 865.262L1151.02 865.259C1150.04 857.958 1149.32 850.56 1148.9 843.065C1148.49 836.731 1148.3 830.348 1148.3 823.893C1148.3 819.541 1148.39 815.213 1148.56 810.91L1148.56 810.862C1148.95 801.699 1149.71 792.656 1150.83 783.735L1150.83 783.711C1151.81 776.241 1153.02 768.859 1154.48 761.565L1721.84 761.568L1721.84 757.168C1723.74 765.92 1725.26 774.817 1726.39 783.859L1151.85 783.856L1151.85 788.692L1726.97 788.695C1727.74 795.44 1728.28 802.242 1728.6 809.1L1728.67 810.986L1151.27 810.982L1151.27 815.818L1728.83 815.821C1728.92 818.505 1728.95 821.188 1728.95 823.896C1728.95 828.683 1728.83 833.421 1728.62 838.136L1150.67 838.133Z" fill="#3F3D56"/>
<path id="Vector_10" d="M1721.74 756.733L1155.5 756.73C1157.15 749.186 1159.06 741.756 1161.24 734.439L1715.91 734.442L1715.91 734.176C1718.14 741.574 1720.07 749.093 1721.74 756.733Z" fill="#3F3D56"/>
<path id="Vector_11" d="M1714.52 729.607L1162.73 729.604C1165.61 720.416 1168.9 711.439 1172.6 702.671L1172.6 707.289L1704.65 707.292L1704.65 702.698C1708.34 711.45 1711.63 720.419 1714.52 729.607Z" fill="#3F3D56"/>
<path id="Vector_12" d="M1704.53 702.456L1172.69 702.453C1175.9 694.862 1179.4 687.431 1183.21 680.162L1693.4 680.165L1693.4 678.956C1697.45 686.596 1701.15 694.429 1704.53 702.456Z" fill="#3F3D56"/>
<path id="Vector_13" d="M1691.45 675.329L1185.77 675.327C1211.07 628.712 1247.81 589.928 1292.23 562.941C1336.66 535.954 1387.17 521.734 1438.61 521.734C1490.05 521.734 1540.56 535.955 1584.99 562.943C1629.42 589.93 1666.16 628.714 1691.45 675.329V675.329Z" fill="#3F3D56"/>
<path id="Vector_14" opacity="0.5" d="M1156.59 895.794C1156.69 896.277 1156.8 896.754 1156.95 897.223L1156.59 897.223L1156.59 895.794Z" fill="black"/>
<path id="Vector_15" opacity="0.5" d="M1720.66 895.797L1720.66 897.226L1720.3 897.226C1720.45 896.757 1720.56 896.28 1720.66 895.797V895.797Z" fill="black"/>
<path id="Vector_16" opacity="0.5" d="M1728.95 838.136L1728.95 842.971L1728.37 842.971C1728.41 842.367 1728.46 841.762 1728.48 841.158C1728.53 840.143 1728.58 839.151 1728.62 838.136L1728.95 838.136Z" fill="black"/>
<path id="Vector_17" opacity="0.5" d="M1728.95 810.985L1728.95 815.82L1728.83 815.82C1728.81 814.2 1728.74 812.605 1728.67 810.985L1728.95 810.985Z" fill="black"/>
<path id="Vector_18" opacity="0.5" d="M1721.85 756.733L1721.85 757.17C1721.82 757.024 1721.77 756.878 1721.74 756.733L1721.85 756.733Z" fill="black"/>
<path id="Vector_19" opacity="0.5" d="M1172.6 702.453L1172.71 702.453C1172.68 702.53 1172.65 702.604 1172.6 702.672L1172.6 702.453Z" fill="black"/>
<path id="Vector_20" opacity="0.5" d="M1704.66 702.456L1704.66 702.694C1704.62 702.613 1704.58 702.533 1704.53 702.456L1704.66 702.456Z" fill="black"/>
<path id="Vector_21" opacity="0.5" d="M1675.03 648.197L1202.22 648.194L1202.22 653.03L1675.03 653.032L1675.03 648.197Z" fill="black"/>
<path id="Vector_22" opacity="0.5" d="M1656.66 621.064L1221.77 621.062L1221.77 625.897L1656.66 625.9L1656.66 621.064Z" fill="black"/>
<path id="Vector_23" opacity="0.5" d="M1628.81 593.931L1248.43 593.929L1248.43 598.764L1628.81 598.766L1628.81 593.931Z" fill="black"/>
<path id="Vector_24" opacity="0.5" d="M1593.85 566.785L1277.46 567.426L1277.47 572.262L1593.86 571.62L1593.85 566.785Z" fill="black"/>
<path id="Vector_25" d="M1396.53 665.125L1257.88 665.125L1257.88 984.856L1396.53 984.857L1396.53 665.125Z" fill="#E6E6E6"/>
<path id="Vector_26" d="M1321.31 695.23L1327.18 695.23C1335.83 695.23 1344.12 698.806 1350.24 705.172C1356.36 711.538 1359.79 720.172 1359.79 729.175L1359.79 777.239L1288.69 777.239L1288.69 729.174C1288.69 720.172 1292.13 711.538 1298.25 705.172C1304.36 698.806 1312.66 695.23 1321.31 695.23V695.23Z" fill="#3F3D56"/>
<path id="Vector_27" d="M1574.9 662.33C1584.32 662.33 1593.37 666.228 1600.03 673.167C1606.7 680.106 1610.44 689.517 1610.44 699.329L1610.45 759.761L1539.35 759.761L1539.35 699.329C1539.35 689.516 1543.09 680.105 1549.76 673.167C1556.42 666.228 1565.47 662.33 1574.9 662.33Z" fill="#E6E6E6"/>
<path id="Vector_28" d="M1709.98 785.66C1709.99 788.545 1709.83 791.427 1709.52 794.294L1438.62 794.292L1438.62 778.259L1709.64 778.261C1709.87 780.715 1709.98 783.182 1709.98 785.66Z" fill="#E6E6E6"/>
<path id="Vector_29" d="M1477.5 731.537L1480.13 727.301C1479.35 725.056 1478.45 722.858 1477.43 720.718L1475.73 722.15L1477.07 719.981C1475.79 717.349 1474.78 715.69 1474.78 715.69C1471.53 721.207 1469.16 727.227 1467.73 733.523L1471.11 738.959L1467.37 735.814C1467.24 736.882 1467.17 737.958 1467.17 739.036C1467.17 749.897 1470.57 758.703 1474.78 758.703C1478.98 758.703 1482.39 749.898 1482.39 739.036C1482.31 735.58 1481.73 732.157 1480.65 728.887L1477.5 731.537Z" fill="#6C63FF"/>
<path id="Vector_30" d="M1496.14 740.953L1500.88 739.896C1501.85 737.734 1502.71 735.516 1503.44 733.253L1501.26 733.012L1503.69 732.471C1504.57 729.664 1504.98 727.747 1504.98 727.747C1498.94 729.26 1493.17 731.767 1487.88 735.171L1486.58 741.502L1486.07 736.525C1485.25 737.182 1484.47 737.893 1483.74 738.652C1476.36 746.332 1472.79 755.067 1475.76 758.161C1478.73 761.256 1487.12 757.538 1494.5 749.857C1496.8 747.356 1498.71 744.503 1500.17 741.399L1496.14 740.953Z" fill="#6C63FF"/>
<path id="Vector_31" d="M1497.87 782.982C1486.88 783.714 1474.9 782.94 1462.16 782.982L1462.16 752.622C1474 754.349 1486.02 754.349 1497.87 752.622L1497.87 782.982Z" fill="#E6E6E6"/>
<path id="Vector_32" d="M1656.43 731.538L1659.06 727.302C1658.28 725.057 1657.38 722.859 1656.36 720.719L1654.66 722.151L1656.01 719.982C1654.72 717.35 1653.71 715.691 1653.71 715.691C1650.47 721.208 1648.09 727.228 1646.67 733.524L1650.05 738.96L1646.3 735.815C1646.17 736.883 1646.1 737.959 1646.1 739.037C1646.1 749.898 1649.51 758.704 1653.71 758.704C1657.92 758.704 1661.32 749.899 1661.32 739.037C1661.25 735.581 1660.66 732.158 1659.58 728.888L1656.43 731.538Z" fill="#6C63FF"/>
<path id="Vector_33" d="M1675.07 740.954L1679.81 739.897C1680.78 737.735 1681.64 735.517 1682.37 733.254L1680.2 733.013L1682.62 732.472C1683.5 729.665 1683.92 727.748 1683.92 727.748C1677.87 729.261 1672.1 731.768 1666.82 735.173L1665.51 741.503L1665 736.526C1664.18 737.184 1663.41 737.894 1662.67 738.653C1655.29 746.334 1651.72 755.068 1654.69 758.163C1657.67 761.257 1666.06 757.539 1673.44 749.859C1675.73 747.357 1677.64 744.505 1679.1 741.401L1675.07 740.954Z" fill="#6C63FF"/>
<path id="Vector_34" d="M1676.8 782.983C1665.81 783.715 1653.83 782.941 1641.09 782.983L1641.09 752.623C1652.94 754.35 1664.96 754.35 1676.8 752.623L1676.8 782.983Z" fill="#E6E6E6"/>
<path id="Vector_35" d="M1274.47 846.791C1282.33 846.791 1288.69 841.214 1288.69 834.334C1288.69 827.455 1282.33 821.877 1274.47 821.877C1266.62 821.877 1260.25 827.454 1260.25 834.334C1260.25 841.214 1266.62 846.791 1274.47 846.791Z" fill="#3F3D56"/>
<path id="Vector_36" opacity="0.2" d="M1726.72 827.111C1726.77 866.007 1719.07 904.492 1704.11 940.137L1222.4 688.89L1185.77 669.96L1235.41 667.131L1665.64 642.667C1706.6 692.181 1726.72 756.636 1726.72 827.111Z" fill="black"/>
<path id="Vector_37" d="M1784.79 669.964L1092.55 669.961L1092.55 611.937L1436.34 462.043L1784.79 611.94L1784.79 669.964Z" fill="#3F3D56"/>
</g>
</g>
<defs>
<linearGradient id="paint0_linear" x1="1531.79" y1="925.148" x2="1531.79" y2="2936.25" gradientUnits="userSpaceOnUse">
<stop stop-color="#E1D56B"/>
<stop offset="0.666667" stop-color="#2F3946"/>
<stop offset="0.921875" stop-color="#241C1D" stop-opacity="0.9"/>
</linearGradient>
</defs>
</svg>
